<svg width="24" height="24" viewBox="0 0 24 24" fill="none" xmlns="http://www.w3.org/2000/svg">
<path d="M17.8205 6.39716H11.9994H6.17837C5.73627 6.39716 5.44153 6.75403 5.44153 7.11091L6.32574 20.9577C6.32574 21.3146 6.62048 21.6001 7.06258 21.6001H12.0731H17.0836C17.4521 21.6001 17.7468 21.3146 17.8205 20.9577L18.631 7.11091C18.5573 6.75403 18.2626 6.39716 17.8205 6.39716ZM8.53626 18.3169C8.53626 18.531 8.31521 18.7451 8.09416 18.7451C7.87311 18.7451 7.65205 18.531 7.65205 18.3169V10.0373C7.65205 9.82318 7.87311 9.60905 8.09416 9.60905C8.31521 9.60905 8.53626 9.82318 8.53626 10.0373V18.3169ZM11.1152 18.3169C11.1152 18.531 10.8942 18.7451 10.6731 18.7451C10.4521 18.7451 10.231 18.6024 10.231 18.3169V10.0373C10.231 9.82318 10.4521 9.60905 10.6731 9.60905C10.8942 9.60905 11.1152 9.82318 11.1152 10.0373V18.3169ZM13.7678 18.3169C13.7678 18.531 13.5468 18.7451 13.3257 18.7451C13.1047 18.7451 12.8836 18.531 12.8836 18.3169V10.0373C12.8836 9.82318 13.1047 9.60905 13.3257 9.60905C13.5468 9.60905 13.7678 9.82318 13.7678 10.0373V18.3169ZM16.4205 18.3169C16.4205 18.531 16.1994 18.7451 15.9784 18.7451C15.7573 18.7451 15.5363 18.531 15.5363 18.3169V10.0373C15.5363 9.82318 15.7573 9.60905 15.9784 9.60905C16.1994 9.60905 16.4205 9.82318 16.4205 10.0373V18.3169Z" fill="#B9DD9F"/>
<path d="M14.7262 2.40009H9.27361C8.46308 2.40009 7.79993 3.04246 7.79993 3.82759V6.89674H9.27361V4.25585C9.27361 4.04172 9.49466 3.82759 9.7894 3.82759H14.2841C14.5052 3.82759 14.7262 4.04172 14.7262 4.25585V6.89674H16.1999V3.82759C16.1999 3.04246 15.5368 2.40009 14.7262 2.40009Z" fill="#525C6B"/>
<path d="M19.5158 8.03879H4.48419C3.9684 8.03879 3.59998 7.61054 3.59998 7.18228V6.39715C3.59998 5.89753 3.9684 5.54065 4.48419 5.54065H19.5158C20.0316 5.54065 20.4 5.89753 20.4 6.39715V7.18228C20.4 7.61054 20.0316 8.03879 19.5158 8.03879Z" fill="#82AF5D"/>
</svg>
