<svg width="20" height="20" viewBox="0 0 20 20" fill="none" xmlns="http://www.w3.org/2000/svg">
<path fill-rule="evenodd" clip-rule="evenodd" d="M8.60861 0.0458845C8.45049 0.115748 8.28881 0.312858 8.24258 0.492132C8.22204 0.571852 8.09601 1.08593 7.96254 1.63455C7.82904 2.18316 7.70587 2.6591 7.68885 2.69215C7.67178 2.72525 7.53753 2.79433 7.39057 2.84569C7.24356 2.89705 6.95613 3.01612 6.75182 3.11035C6.54751 3.20459 6.35378 3.27445 6.32129 3.26565C6.28881 3.25681 5.8517 3.00122 5.34998 2.69767C4.84826 2.39412 4.37828 2.13462 4.30556 2.12097C4.02751 2.06886 3.92513 2.14283 2.98568 3.07417C2.49671 3.55895 2.06759 4.01673 2.03213 4.09145C1.89867 4.37246 1.94763 4.50183 2.59507 5.57907L3.18732 6.56443L3.05843 6.84748C2.98759 7.00313 2.88685 7.25144 2.83464 7.3993C2.77452 7.56954 2.71104 7.68079 2.66145 7.7027C2.6184 7.72171 2.08352 7.8585 1.47288 8.00667C0.348611 8.27944 0.240352 8.32047 0.0807045 8.53421C0.002818 8.63849 0 8.68962 0 10.0056C0 11.3216 0.002818 11.3727 0.0807045 11.477C0.239256 11.6892 0.348297 11.7305 1.47174 12.0036C2.08301 12.1522 2.61875 12.2893 2.66227 12.3083C2.71315 12.3305 2.77487 12.4386 2.83542 12.6117C2.88716 12.7597 3.00387 13.0418 3.09476 13.2387L3.26 13.5967L2.72982 14.4817C2.29084 15.2145 2.19656 15.3991 2.18157 15.5548C2.16963 15.6792 2.18384 15.7814 2.22364 15.8569C2.32333 16.0459 4.09479 17.7807 4.21957 17.8115C4.48278 17.8765 4.63429 17.8144 5.53499 17.2724L6.41249 16.7444L6.76787 16.9087C6.96337 16.999 7.24431 17.1154 7.39225 17.1673C7.56286 17.2273 7.67389 17.2904 7.69585 17.34C7.71487 17.3831 7.8526 17.9188 8.00192 18.5305C8.27562 19.6521 8.31734 19.7623 8.52779 19.9193C8.63213 19.9972 8.68329 20 10 20C11.3167 20 11.3679 19.9972 11.4722 19.9193C11.6827 19.7623 11.7244 19.6521 11.9981 18.5305C12.1474 17.9188 12.285 17.3827 12.304 17.3392C12.3261 17.2884 12.4347 17.2264 12.6076 17.1657C12.7556 17.1137 13.0422 16.9946 13.2444 16.9011L13.6121 16.731L14.5321 17.28C15.3995 17.7977 15.4636 17.829 15.6555 17.829C15.9288 17.829 15.9894 17.7809 16.9907 16.7678C17.8589 15.8895 17.9405 15.7753 17.8904 15.5088C17.8775 15.4402 17.6194 14.972 17.3169 14.4682L16.7668 13.5523L16.9414 13.1578C17.0375 12.9409 17.1485 12.6688 17.1881 12.5531C17.2311 12.428 17.292 12.3289 17.3386 12.3083C17.3816 12.2894 17.917 12.1522 18.5283 12.0036C19.6517 11.7305 19.7607 11.6892 19.9193 11.477C19.9972 11.3727 20 11.3216 20 10.0056C20 8.68962 19.9972 8.63849 19.9193 8.53421C19.7607 8.32196 19.6517 8.28069 18.5283 8.00757C17.917 7.85897 17.3816 7.72178 17.3386 7.70273C17.289 7.68079 17.2256 7.56962 17.1655 7.3993C17.1134 7.25144 17.0023 6.9813 16.9187 6.79897C16.835 6.61661 16.7742 6.43808 16.7836 6.40217C16.793 6.36622 17.0236 5.96598 17.296 5.51273C17.8853 4.53238 17.9204 4.45668 17.8845 4.24064C17.8604 4.09512 17.7711 3.99197 16.972 3.18616C16.4847 2.69493 16.0344 2.25572 15.9712 2.21019C15.8912 2.15249 15.7954 2.12679 15.6556 2.12543C15.4656 2.12363 15.405 2.15339 14.5246 2.68093C14.013 2.98749 13.58 3.23834 13.5623 3.23834C13.5447 3.23834 13.3832 3.17095 13.2035 3.08856C13.0238 3.00615 12.7557 2.89615 12.6077 2.84408C12.4373 2.78404 12.3261 2.72075 12.3042 2.67115C12.2852 2.62812 12.1483 2.09354 12 1.48324C11.7271 0.359721 11.6861 0.251484 11.4723 0.0918471C11.3688 0.0145909 11.3089 0.0107965 10.0461 0.00215167C9.00982 -0.00492852 8.70247 0.00442046 8.60861 0.0458845ZM10.56 5.94035C12.1828 6.18284 13.4942 7.32541 13.9463 8.89076C14.5699 11.0495 13.2997 13.3195 11.1155 13.9497C8.95554 14.5729 6.68427 13.3034 6.05366 11.1204C5.31115 8.54993 7.26505 5.93546 9.95335 5.90233C10.1322 5.9001 10.4052 5.91724 10.56 5.94035Z" fill="#DFE2DC"/>
</svg>
