<?xml version="1.0" encoding="utf-8"?><svg viewBox="0 0 20 20" xmlns="http://www.w3.org/2000/svg" xmlns:xlink="http://www.w3.org/1999/xlink"><style>:root>svg{display:none}:root>svg:target{display:block}</style><svg viewBox="0 0 20 20" id="btn-like" xmlns="http://www.w3.org/2000/svg"><path d="M19 6.864C19 4.18 16.806 2 14.106 2A4.91 4.91 0 0010 4.214 4.91 4.91 0 005.894 2C3.194 2 1 4.18 1 6.864c0 .391.045.76.135 1.13C2.058 13.158 10 18 10 18s7.942-4.841 8.865-9.996c.09-.369.135-.749.135-1.14z" stroke="#757575" stroke-width="1.5" stroke-linejoin="round"/></svg><svg viewBox="0 0 12 12" id="menu-close" xmlns="http://www.w3.org/2000/svg"><path d="M1 1l10 10m0-10L1 11" stroke="#333" stroke-width="2" stroke-linecap="round"/></svg><svg fill="none" viewBox="0 0 16 16" id="toTop" xmlns="http://www.w3.org/2000/svg"><path d="M2 11l6-6 6 6" stroke="#fff" stroke-width="2" stroke-linecap="round" stroke-linejoin="round"/></svg></svg>