<svg width="28" height="28" viewBox="0 0 28 28" fill="none" xmlns="http://www.w3.org/2000/svg">
<path fill-rule="evenodd" clip-rule="evenodd" d="M21.5893 1.43538C21.5216 1.44789 17.7677 2.13756 13.2474 2.96789C8.72693 3.79828 4.93924 4.50236 4.83026 4.53256C3.97024 4.77086 3.19557 5.59601 2.95773 6.52706C2.86307 6.89776 2.86553 7.5662 2.96358 8.11147C3.0383 8.52674 3.03786 8.5533 2.95556 8.60263C2.14481 9.08872 1.66883 9.71342 1.48281 10.5355C1.37152 11.0273 1.3728 22.4925 1.48419 22.9849C1.72529 24.0505 2.54883 24.8939 3.56809 25.119C4.06795 25.2294 20.4706 25.2258 20.974 25.1152C21.8921 24.9135 22.6301 24.2334 22.9804 23.2662C23.0866 22.9729 23.0915 22.8827 23.1152 20.7581L23.1398 18.5543L23.8782 18.4139C24.2842 18.3367 24.7343 18.2267 24.8783 18.1695C25.9454 17.7457 26.6736 16.5695 26.5941 15.3982C26.5572 14.8547 24.659 3.69674 24.538 3.31188C24.1483 2.0729 22.7954 1.2119 21.5893 1.43538ZM22.5751 3.12225C22.8625 3.28516 23.0788 3.56377 23.1593 3.87458C23.1901 3.9935 23.6484 6.65229 24.1777 9.78295C24.8635 13.8392 25.1323 15.5377 25.113 15.6932C25.0627 16.0986 24.7795 16.5061 24.4154 16.697C24.3318 16.7408 24.055 16.814 23.8001 16.8596C23.5452 16.9053 23.2869 16.9553 23.226 16.9708L23.1152 16.999V13.9191C23.1152 11.8837 23.0969 10.7471 23.0612 10.5675C22.9 9.75629 22.3206 8.99682 21.5849 8.63237C21.3494 8.51571 21.0329 8.40464 20.851 8.37474C20.6423 8.34049 17.7441 8.32208 12.5209 8.32187L4.51085 8.32146L4.48757 8.20608C4.33808 7.46508 4.321 7.03407 4.43037 6.76141C4.52833 6.51716 4.81786 6.19999 5.0364 6.09753C5.32421 5.96262 21.7515 2.93779 22.0681 2.96143C22.2273 2.97333 22.4207 3.03466 22.5751 3.12225ZM20.9274 9.99679C21.4218 10.2725 21.6054 10.6154 21.63 11.3085L21.6477 11.8085H12.2604H2.87316L2.89413 11.3085C2.90998 10.9305 2.94035 10.7586 3.01861 10.6034C3.17012 10.3032 3.43302 10.0644 3.73043 9.957C3.98126 9.86639 4.3398 9.86295 12.36 9.87397L20.7279 9.88551L20.9274 9.99679ZM21.6385 14.3725V15.3469H12.2616H2.88463V14.3725V13.3982H12.2616H21.6385V14.3725ZM21.6385 19.7249C21.6385 22.7961 21.6388 22.7924 21.3699 23.1597C21.3013 23.2534 21.1288 23.3973 20.9865 23.4794L20.7279 23.6287H12.2616C4.09901 23.6287 3.78905 23.6252 3.62297 23.5332C3.38247 23.3999 3.14113 23.1525 3.01566 22.9107C2.91062 22.7083 2.90904 22.6673 2.89536 19.7954L2.88153 16.8853H12.26H21.6385V19.7249ZM4.93924 20.5995C4.83745 20.6373 4.71971 20.6981 4.67757 20.7345C4.44357 20.9368 4.37987 21.4309 4.55072 21.7183C4.75908 22.0689 4.73083 22.0646 6.85465 22.0644C8.68716 22.0642 8.77355 22.0599 8.93007 21.9605C9.14651 21.823 9.30525 21.4574 9.25928 21.2021C9.21232 20.9412 9.05613 20.7352 8.82085 20.6239C8.63607 20.5365 8.47206 20.5286 6.87168 20.5296C5.5372 20.5304 5.08056 20.547 4.93924 20.5995Z" fill="#9AC07E"/>
</svg>
