<svg width="29" height="28" viewBox="0 0 29 28" fill="none" xmlns="http://www.w3.org/2000/svg">
<path fill-rule="evenodd" clip-rule="evenodd" d="M5.45113 2.88082C3.52312 3.2619 2.08866 4.72078 1.78722 6.60731C1.73778 6.91662 1.72494 8.93079 1.73841 14.2555C1.75829 22.1253 1.73474 21.5455 2.06964 22.4208C2.23642 22.8568 2.67995 23.5061 3.07461 23.892C3.46926 24.278 4.13315 24.7117 4.57897 24.8748C5.47606 25.2031 4.83681 25.1797 13.3529 25.1967C18.5207 25.2071 21.2765 25.1929 21.4868 25.1548C22.5484 24.9629 23.4761 24.0612 23.6713 23.0311C23.7028 22.8651 23.7286 22.0793 23.7286 21.285V19.8408L24.3548 19.8218C25.0315 19.8013 25.1591 19.7526 25.4153 19.417C25.5312 19.2652 25.5334 19.2051 25.5334 16.2447C25.5334 13.2844 25.5312 13.2242 25.4153 13.0724C25.3503 12.9873 25.226 12.8657 25.139 12.8021C24.9837 12.6888 24.9144 12.6863 21.435 12.6713C17.429 12.6541 17.4027 12.6562 16.5685 13.0585C15.3681 13.6373 14.5632 14.9162 14.5632 16.2447C14.5632 17.5726 15.3584 18.8359 16.5666 19.4273C17.3298 19.8008 17.5595 19.8288 19.878 19.8299L21.9004 19.8308L21.8834 21.3398C21.8674 22.7624 21.8597 22.8575 21.7483 23.0033C21.6833 23.0883 21.559 23.2099 21.472 23.2734C21.3143 23.3886 21.2889 23.389 13.6833 23.4038C8.35026 23.4142 5.96193 23.4003 5.75119 23.3576C4.75384 23.1559 3.91102 22.3566 3.64585 21.3609C3.51728 20.8783 3.51728 7.12848 3.64585 6.64581C3.91102 5.65015 4.75367 4.85095 5.75119 4.64906C5.96118 4.60653 8.09111 4.59252 12.7665 4.60289C19.4462 4.61774 19.4811 4.61836 19.6385 4.73334C19.9816 4.9838 20.0314 5.1087 20.0523 5.76973L20.0717 6.38156L13.0234 6.39618C6.00576 6.4108 5.97448 6.41136 5.81697 6.5264C5.51628 6.74594 5.42249 6.92502 5.42249 7.27938C5.42249 7.63373 5.51628 7.81281 5.81697 8.03235C5.97442 8.14739 6.01023 8.14801 13.6343 8.17591C19.6576 8.19793 21.3205 8.21906 21.4201 8.2747C21.4897 8.31364 21.6186 8.4377 21.7065 8.55044C21.8594 8.74627 21.8677 8.78936 21.8951 9.52626C21.9199 10.1941 21.9398 10.3183 22.0436 10.4552C22.4606 11.0053 23.1628 11.0053 23.5801 10.4554C23.6862 10.3154 23.702 10.2048 23.7185 9.48659C23.7287 9.04017 23.7093 8.54904 23.6752 8.39371C23.5137 7.65715 22.9578 6.97876 22.2786 6.6894L21.8951 6.52601V5.84986C21.8951 5.10708 21.8153 4.70778 21.5738 4.24164C21.3691 3.84661 20.8715 3.35055 20.4701 3.14132C19.777 2.78001 20.1495 2.79621 12.6441 2.80198C7.25619 2.80613 5.74535 2.82271 5.45113 2.88082ZM23.7286 16.2471V18.0425L20.7349 18.0261L17.7411 18.0098L17.3787 17.8176C16.9855 17.6091 16.7527 17.3708 16.5556 16.9749C16.3692 16.6007 16.3754 15.8769 16.5681 15.4883C16.8069 15.0068 17.2833 14.6256 17.7984 14.5038C17.893 14.4814 19.266 14.4605 20.8494 14.4574L23.7286 14.4516V16.2471Z" fill="#9AC07E"/>
</svg>
