<svg width="350" height="350" viewBox="0 0 350 350" fill="none" xmlns="http://www.w3.org/2000/svg">
<rect width="350" height="350" fill="#9AC07E"/>
<path d="M279.316 253.645C280.228 255.026 280.228 255.947 279.316 256.637C278.403 257.328 278.175 258.248 278.403 259.169C278.631 259.399 278.631 260.32 278.631 261.701C278.859 263.082 278.859 264.463 278.631 266.304C278.631 267.915 278.631 269.526 278.403 270.907C278.175 272.288 277.947 272.749 277.491 272.749C276.578 273.209 276.35 274.13 276.578 275.28C277.035 276.892 277.035 278.733 276.578 280.344C276.35 281.955 275.894 282.876 275.21 283.336C274.525 283.566 273.841 284.257 272.929 285.177C272.244 286.098 271.788 286.098 271.332 285.177C271.788 284.717 271.56 284.257 271.104 283.566C270.648 283.106 270.876 283.106 271.332 283.336C272.016 283.336 272.701 282.646 273.157 281.495C274.069 280.114 274.297 279.654 274.069 279.884C273.841 279.884 273.385 280.114 272.701 280.804C272.244 281.265 271.788 281.495 271.104 281.725C270.419 281.955 270.191 281.725 270.191 280.804C270.191 279.884 270.419 279.884 271.104 280.574C271.56 281.034 272.016 280.804 272.701 279.884C273.385 278.963 273.385 278.273 272.929 278.042C272.244 278.503 271.104 278.963 269.507 279.653C267.91 280.114 266.085 280.344 263.804 280.344C262.208 280.804 261.523 280.574 261.523 279.653C261.751 278.733 261.523 278.503 261.295 278.963C261.067 279.423 260.383 279.423 259.47 279.193C258.558 278.963 257.874 278.733 257.645 278.503C258.33 279.193 259.014 280.114 259.926 281.034C261.067 281.955 261.979 282.415 263.12 282.415C264.032 282.415 264.489 282.415 264.489 282.646C264.489 282.646 264.261 283.106 263.804 284.257C263.12 285.408 262.664 285.868 262.208 286.098C261.979 286.098 261.067 286.098 259.242 285.868C257.417 285.408 255.592 285.177 253.768 284.947C252.171 284.487 250.346 284.027 248.749 283.336C248.293 283.106 247.837 283.336 247.152 283.566C246.696 284.027 246.24 284.027 245.556 283.566C244.187 282.646 243.046 282.185 241.678 282.185C240.309 282.185 239.397 281.725 238.484 280.804C238.028 279.884 237.572 279.653 236.888 280.114C236.431 280.344 235.519 280.114 234.378 279.193C233.238 278.273 232.554 277.812 231.869 277.812C227.079 275.28 222.061 272.288 216.814 268.836C211.796 265.153 206.777 261.24 201.759 256.867C200.39 256.637 199.706 255.947 199.25 255.026C199.022 253.875 198.337 253.415 197.425 253.415C196.741 253.185 195.828 252.494 194.46 251.574C193.319 250.423 192.178 249.502 191.038 248.351C189.897 247.201 188.985 246.28 187.844 245.129C186.704 243.978 186.248 243.288 186.019 242.597C185.791 241.677 185.335 241.446 184.423 241.907C183.51 242.137 182.826 241.677 182.142 240.526C181.913 240.296 181.685 240.065 181.457 239.835C181.457 239.605 181.457 239.375 181.229 239.145C181.001 238.915 180.773 238.915 180.545 238.915C179.632 238.915 178.492 237.994 176.667 235.923C175.07 234.081 174.614 232.7 174.842 232.01C175.07 231.78 175.07 231.78 174.842 231.78C174.842 231.549 174.842 231.549 174.614 231.78C174.158 232.24 173.474 232.01 172.789 231.549C171.877 230.859 171.421 230.168 171.421 229.248C171.421 228.097 171.192 227.867 170.736 228.327C169.824 228.327 168.911 227.637 167.543 226.486C166.402 225.105 165.262 223.724 164.121 221.883C162.752 220.271 161.612 218.66 160.243 217.049C159.103 215.438 158.19 214.057 157.278 213.597C156.822 213.597 155.909 212.676 154.312 210.605C152.716 208.533 151.575 207.382 150.891 207.382C150.435 207.382 150.207 207.382 149.978 207.152C149.75 206.692 149.522 206.462 149.294 206.231C147.697 203.7 145.872 201.398 143.819 199.096C142.223 196.795 140.17 194.263 138.117 191.731C137.432 190.811 136.748 190.12 136.292 189.43C135.836 188.739 135.608 188.509 135.379 188.509C134.923 188.049 134.923 187.358 135.151 186.668C135.379 185.517 135.151 184.826 134.239 184.366C133.098 184.136 132.642 183.676 132.87 182.755C133.327 181.834 133.098 181.604 132.642 182.064C131.274 181.144 129.677 179.993 127.852 178.152C126.027 176.31 125.115 174.239 125.343 172.398C125.343 171.017 125.115 170.556 124.43 170.786C124.202 171.247 123.746 171.017 122.833 170.556C121.921 169.636 121.237 168.715 120.324 167.564C119.64 166.413 118.956 165.493 118.499 164.342C118.043 162.961 118.043 162.27 118.271 161.81C117.587 160.659 116.903 160.199 115.99 159.969C115.078 159.508 114.165 158.127 113.025 155.826C111.884 154.215 111.428 152.834 111.2 152.373C110.972 151.683 110.972 151.223 110.972 150.992C110.972 150.532 110.972 150.302 110.972 150.072C110.972 149.842 110.516 149.151 109.603 148.23C108.919 147.31 108.235 146.849 107.778 146.849C107.322 146.849 107.094 147.079 107.778 147.54C108.006 149.611 108.007 152.373 108.007 155.596C108.235 158.588 108.235 161.81 108.235 165.262C108.235 168.485 108.235 171.707 108.235 174.929C108.235 178.152 108.235 180.914 108.007 182.985C107.778 184.826 107.778 186.668 107.778 188.049C108.006 189.43 108.007 190.58 108.007 191.501C108.007 192.422 108.006 193.573 107.778 194.723C107.778 195.874 107.55 197.025 106.866 198.176C107.322 198.176 107.778 199.096 108.235 201.168C108.006 202.319 108.235 203.7 108.919 205.311C109.603 206.922 109.375 207.843 108.691 208.303C107.55 208.303 107.55 208.993 108.463 210.605C109.375 211.986 109.831 212.906 109.831 213.597C109.375 214.287 109.147 215.898 109.147 218.66C109.147 221.422 109.375 223.264 109.831 223.724C110.059 224.875 109.831 225.565 109.603 226.026C109.147 226.026 108.919 226.486 108.691 227.406C108.691 228.327 108.691 229.248 108.691 230.399C108.691 231.319 108.691 232.01 108.463 232.93C108.463 233.851 108.463 234.311 108.235 234.311C107.322 234.542 107.322 235.002 108.235 235.692C108.919 236.383 109.147 237.534 109.147 239.605C109.147 241.677 108.919 243.058 108.235 244.439C107.778 245.589 107.778 245.82 108.235 245.359C108.919 244.669 109.147 244.899 108.919 245.589C108.463 246.28 108.691 246.74 109.147 247.201C109.831 247.431 109.831 247.661 109.375 248.121C109.147 248.351 109.147 249.042 109.147 250.423C109.147 251.574 109.147 252.724 108.919 253.875C108.919 255.256 108.919 256.407 108.691 257.788C108.463 258.939 108.235 259.399 107.778 259.399C106.41 260.55 106.182 261.01 107.094 260.78C108.235 260.55 108.691 261.01 108.463 262.161C108.919 262.621 108.463 263.082 107.094 263.542C105.725 264.002 105.497 263.772 105.725 263.312C105.954 262.852 105.269 263.082 103.901 263.542C102.76 264.233 101.848 265.153 100.935 266.074C100.251 267.225 100.479 267.455 101.619 266.995C103.216 266.534 104.357 266.304 105.041 266.074C106.866 265.614 107.55 265.614 106.866 266.074C106.41 266.764 105.497 267.225 104.357 267.455C103.216 267.455 102.532 267.685 101.848 268.145C100.935 268.606 101.391 268.606 102.76 268.376C104.357 268.145 105.269 267.915 105.725 267.685C105.269 268.145 104.357 268.836 103.216 269.526C102.076 270.217 101.848 270.677 102.988 270.447C103.216 270.677 103.672 270.447 104.585 270.217C105.497 269.757 106.182 269.296 106.866 268.836C107.778 268.376 108.463 268.145 108.691 267.915C109.375 267.685 109.375 267.915 108.919 268.606C108.919 269.066 108.919 269.296 109.147 269.296C110.059 269.296 110.059 269.526 109.375 269.987C108.919 270.217 108.235 270.447 107.094 270.677C105.725 270.447 105.041 270.677 104.585 270.907C104.129 271.137 103.901 271.598 103.901 272.288C103.901 272.749 103.901 273.209 103.901 273.899C104.129 274.36 104.129 274.59 103.901 274.82C103.901 274.13 103.444 273.669 102.532 273.439C101.848 272.979 101.619 272.518 101.848 271.828C101.391 271.368 100.479 271.598 98.8822 272.518C97.5135 273.209 96.6011 273.209 95.6886 272.749C94.7762 272.288 94.32 272.288 94.0919 272.749C93.8638 273.209 93.8638 273.899 93.8638 274.59C93.8638 275.28 93.8638 276.201 93.8638 277.122C93.8638 278.042 93.8638 278.733 93.6357 278.963C92.7233 279.884 92.7233 280.574 93.6357 281.495C94.7762 282.415 95.4606 282.415 96.1449 281.495C96.8292 280.804 97.0573 280.574 97.0573 280.804C97.2854 281.034 97.2854 281.725 97.2854 283.106C97.0573 284.487 96.8292 285.408 96.373 286.098C96.1449 286.789 96.1449 286.558 96.1449 285.408C95.4606 283.566 95.0043 282.646 94.5481 282.876C94.32 282.876 94.0919 283.336 93.6357 284.487C93.4076 285.408 93.1795 286.328 92.7233 287.479C92.267 288.63 91.5827 289.09 90.8984 288.86C90.8984 288.63 90.8984 288.4 90.6703 288.17C90.4422 287.939 90.214 287.939 89.9859 287.939C89.7578 287.709 89.5298 287.479 89.3016 287.249C88.3892 286.558 87.933 285.638 87.7049 284.717C87.4768 283.336 86.7925 283.336 85.88 284.717C84.2833 286.098 83.1427 286.328 82.6865 285.638C82.4584 284.947 82.4584 284.027 82.4584 283.106C82.4584 281.955 82.4584 281.265 82.2303 280.574C82.0022 279.654 81.0897 279.654 79.2649 280.574C77.6681 281.725 76.0714 281.495 74.4746 279.884C73.106 278.273 72.6497 276.431 72.6497 274.82C72.4216 273.209 72.6498 272.518 73.3341 272.288C74.0184 272.058 74.0184 271.828 73.5622 271.368C72.8778 267.915 72.6497 263.542 72.6497 258.479C72.8779 253.415 72.8779 248.812 72.6497 244.669C72.6497 237.764 72.6497 230.168 72.4216 221.422C72.4216 212.906 72.8779 205.081 73.7903 198.176C73.106 196.565 72.8778 193.803 73.106 190.12C73.3341 186.207 73.5622 183.676 74.0184 182.064C74.0184 180.453 74.0184 177.921 74.0184 174.929C74.0184 171.937 74.0184 168.945 73.7903 165.953C73.7903 162.961 73.7903 160.429 73.5622 158.127C73.3341 156.056 73.3341 154.905 73.3341 154.675C73.106 154.215 73.3341 154.215 73.5622 154.445C73.7903 154.675 73.7903 154.445 73.7903 154.215C74.0184 153.524 74.0184 152.834 74.0184 152.373C74.2465 151.683 74.2465 151.223 74.2465 150.762C74.4746 150.072 74.7027 149.842 75.1589 149.842C75.6151 149.842 75.6151 149.611 75.387 149.151C75.1589 148.46 74.9308 147.77 74.4746 147.31C74.2465 146.389 74.0184 145.698 73.5622 145.468C73.1059 144.778 72.8779 144.548 72.6497 144.548C72.4216 144.548 72.4216 144.317 72.4216 143.857C72.8778 143.167 73.106 143.167 73.3341 143.627C73.7903 143.857 74.2465 143.627 74.7027 142.706C74.7027 141.786 74.7027 141.325 74.7027 141.095C74.7027 140.635 74.7027 140.174 74.4746 139.714C74.2465 139.254 74.2465 138.563 74.2465 137.413C74.2465 136.262 74.2465 134.651 74.2465 132.349C74.4746 130.508 74.4746 129.127 74.2465 128.436C74.2465 127.516 74.0184 127.055 73.5622 126.825C73.3341 126.365 73.106 126.135 72.6497 125.904C72.1935 125.674 71.9654 125.214 71.7373 124.293C71.7373 123.142 71.5092 122.912 71.053 123.373C70.5968 123.373 70.8249 122.912 71.2811 121.761C71.9654 120.38 72.4216 120.15 72.8778 120.38C73.334 120.38 73.5622 120.15 73.5622 119.46C73.7903 118.999 74.0184 118.999 74.4746 119.23C74.9308 119.46 74.9308 118.999 74.7027 117.849C74.7027 117.619 74.7027 117.158 74.9308 116.468C75.1589 115.777 75.387 115.317 75.6152 114.857C75.8433 114.166 75.8432 113.706 75.8432 113.476C75.8432 113.245 75.6151 113.476 75.1589 114.166C74.4746 115.317 74.0184 116.238 73.5622 117.388C73.3341 118.309 72.8778 117.849 71.9654 116.007C71.2811 114.166 71.2811 111.864 71.7373 109.563C72.1935 107.031 72.1935 105.42 71.9654 104.96C71.053 102.888 71.2811 101.737 72.1935 101.967C73.106 102.428 73.5622 101.737 73.7903 100.126C74.2465 98.2848 74.0184 96.9038 73.106 96.6737C72.1935 95.9832 71.7373 95.753 71.5092 95.9832C71.053 95.5229 70.8249 94.3721 70.8249 92.5307C70.8249 90.6894 71.2811 89.3085 72.4216 89.0783C73.1059 88.618 73.1059 88.618 72.4216 88.8481C71.7373 89.0783 71.2811 89.0783 71.053 88.8481C70.8249 88.3878 71.053 87.9275 71.7373 87.4672C72.4216 86.7767 72.4216 85.1655 71.9654 82.6337C71.9654 80.3321 71.9654 78.9511 71.9654 78.4908C72.1935 78.0305 72.4216 78.0305 72.6497 78.2606C73.106 78.4908 73.3341 78.721 73.5622 79.1813C73.7903 79.6416 74.0184 79.4115 74.4746 78.9511C75.387 77.8003 75.8433 77.34 76.0714 77.1098C76.5276 76.6495 76.9838 75.4987 77.44 73.8875C77.44 72.9669 77.44 72.5066 77.6681 72.2764C77.8962 71.8161 78.1243 71.5859 78.3524 71.3557C78.5806 71.1256 78.5805 70.8954 78.5805 70.6653C78.8086 70.4351 78.8087 69.9748 78.8087 69.0541C78.5805 67.9033 78.8087 67.2128 79.0368 66.7525C79.7211 66.062 80.4054 65.6017 81.3179 65.3715C82.2303 64.9112 82.9146 64.681 83.827 64.681C84.7395 64.4509 85.4238 64.2207 86.1081 63.7604C87.7049 63.3 89.3016 62.6095 90.6703 61.4587C92.0389 60.0778 93.8638 59.8476 96.1449 60.0778C98.8822 60.5381 101.163 60.9984 102.76 61.6889C104.357 62.1492 106.182 62.8397 107.778 63.9905C109.375 64.4509 110.972 65.6017 112.797 67.443C114.622 69.0541 115.762 70.6653 115.99 72.2764C115.99 75.959 116.446 78.4908 117.359 80.1019C118.271 81.7131 118.956 83.5544 119.64 85.856C120.324 87.4672 121.009 89.7688 121.921 92.5307C123.062 95.2927 124.202 97.5943 125.799 99.6658C126.939 100.817 127.396 101.737 127.168 102.658C127.168 103.579 127.852 104.729 129.449 106.571C130.133 107.261 130.589 107.952 131.045 108.872C131.274 109.333 131.502 109.563 131.73 109.793C131.502 110.253 131.73 110.944 131.958 111.634C132.642 112.555 133.327 113.476 133.783 114.626C134.695 115.547 135.379 116.468 136.064 117.618C136.748 118.539 136.976 119.23 136.976 119.92C137.432 119.92 137.889 120.611 138.345 121.761C139.029 122.912 139.257 123.373 139.029 123.373C139.714 124.063 140.398 124.984 141.31 126.595C142.451 128.206 142.907 129.357 142.679 130.508C142.679 130.968 143.363 131.889 144.96 133.5C146.557 135.111 147.469 136.032 147.241 136.722C147.241 137.873 147.925 138.563 149.066 139.254C150.663 141.555 152.259 144.087 153.856 147.079C155.453 149.842 157.05 152.143 159.331 153.754C160.699 156.056 162.296 158.588 164.349 161.58C166.63 164.342 169.139 167.334 171.421 170.326C173.93 173.088 176.439 175.85 178.72 178.612C181.001 181.144 183.054 183.445 184.423 185.747C188.529 190.35 192.863 194.954 197.425 200.017C202.215 204.851 207.005 209.684 211.796 214.517C216.814 219.351 222.061 223.724 227.079 227.637C232.097 231.78 237.344 235.232 242.362 238.224C242.59 237.764 242.59 236.843 242.59 235.692C242.59 234.542 242.59 233.161 242.362 231.78C242.134 230.168 241.906 229.018 241.678 227.867C241.678 226.716 241.678 226.256 241.678 226.026C241.906 224.414 241.906 222.343 241.906 219.581C242.134 216.819 242.134 213.827 242.134 210.835C242.134 207.843 242.134 205.081 241.906 202.779C241.678 200.247 241.678 198.406 241.678 197.715C242.818 196.104 242.818 194.033 241.906 191.961C241.222 189.89 240.994 187.818 241.222 186.207C241.222 185.747 241.222 184.366 241.222 181.604C241.45 178.842 241.45 175.85 241.45 172.628C241.678 169.405 241.678 166.183 241.678 162.961C241.906 159.739 241.906 157.437 241.906 155.826C242.134 148.921 241.906 143.627 241.222 139.944C240.765 136.262 241.222 132.349 242.134 128.436C241.45 126.825 241.222 124.523 241.222 121.992C241.45 119.46 241.45 117.158 241.222 115.547C240.537 114.857 240.765 114.166 241.45 113.706C242.134 113.015 242.362 112.555 242.362 112.325C242.362 111.864 242.134 111.404 241.45 110.714C240.765 109.563 240.765 108.642 241.222 107.491C241.678 106.341 241.678 105.42 241.45 104.269C241.678 102.658 241.222 101.737 240.081 101.277C239.169 100.817 238.256 100.817 236.888 101.047C235.519 101.047 234.378 101.047 233.466 101.277C232.325 101.277 231.869 101.047 232.097 100.356C232.554 99.6658 232.554 99.4356 232.097 99.6658C231.641 99.6658 231.185 99.896 230.501 100.586C230.044 101.507 229.816 101.737 229.816 101.277C229.816 99.8959 229.588 99.6658 229.132 99.896C228.676 100.126 227.535 100.586 225.938 100.817C224.342 100.817 220.92 100.817 215.674 100.817C213.164 100.586 210.655 100.586 207.918 100.817C205.637 100.817 203.356 100.817 201.531 100.817C199.706 100.817 197.881 100.817 196.512 100.586C194.916 100.126 193.775 99.2055 193.091 97.5943C193.319 96.6737 193.775 96.2134 194.688 96.2134C195.828 96.2134 196.512 95.9832 196.969 95.2927C196.969 94.6022 197.653 93.9117 199.25 92.9911C200.846 91.8403 201.531 91.1498 201.531 90.6894C201.075 90.2291 199.478 89.9989 196.512 89.9989C192.178 89.7688 189.441 89.7688 187.844 89.7688C186.476 89.5386 186.019 89.3085 186.019 88.8481C185.791 87.9275 186.248 87.6973 187.616 87.9275C189.213 88.1576 190.125 87.9275 190.582 87.237C190.582 86.7767 189.441 86.5465 187.388 86.5465C184.651 86.5465 182.826 85.856 181.914 84.7052C181.229 83.3242 182.142 82.4036 184.423 81.7131C186.932 81.0226 187.16 80.5623 184.651 80.1019C183.738 79.6416 183.282 79.8718 183.054 80.3321C182.826 81.0226 182.37 81.0226 181.685 80.3321C181.229 79.8718 180.773 79.6416 180.317 79.6416C180.089 79.6416 179.861 79.6416 179.404 79.6416C179.176 79.6416 179.176 79.6416 179.176 79.4114C179.176 78.9511 179.176 78.2606 179.404 77.1098C179.632 75.7288 179.632 75.0383 179.404 74.8082C179.404 74.3479 179.176 74.1177 178.492 74.1177C177.351 74.1177 177.351 74.3479 178.264 74.8082C178.948 75.0383 178.948 75.7288 178.492 76.6495C178.264 77.5701 178.036 77.5701 177.579 76.6495C177.351 76.1892 177.351 76.1892 177.351 76.6495C177.351 77.1098 177.123 77.34 176.667 77.34C176.439 77.1098 176.211 77.1098 175.983 77.34C175.755 77.5701 175.526 77.8003 175.298 78.0305C175.07 78.2606 174.842 78.4908 174.614 78.721C174.386 78.721 174.386 78.4908 174.386 78.0305C174.158 77.8003 174.386 77.34 175.07 76.4193C175.983 75.4987 175.983 75.2685 175.298 75.7288C174.614 76.1892 174.386 76.1892 174.386 75.7288C174.614 75.2685 175.07 74.578 175.755 73.8875C177.123 73.197 177.123 72.5066 175.983 71.5859C175.07 70.4351 175.07 69.7446 175.983 69.0541C176.211 68.8239 176.211 68.8239 176.211 69.0541C176.439 69.0541 176.211 69.0541 175.983 69.2843C175.527 70.2049 175.527 70.4351 175.983 70.2049C176.439 69.9748 176.895 69.7446 177.351 69.2843C178.036 68.5938 178.492 67.9033 178.72 67.443C179.176 66.7525 179.176 66.2922 178.72 66.062C178.036 65.6017 178.72 64.9112 180.317 64.2207C182.142 63.0699 184.423 62.3794 186.704 61.9191C191.266 61.4587 196.284 61.2286 201.759 61.2286C207.234 61.2286 212.936 61.2286 218.411 61.2286C223.885 61.2286 229.132 61.2286 233.694 61.4587C238.484 61.4587 242.362 61.4587 245.099 61.2286C248.977 60.9984 251.715 60.9984 253.311 60.9984C255.136 60.9984 256.505 60.9984 257.417 61.2286C258.558 61.2286 259.242 61.4587 259.926 62.1492C260.839 62.6096 261.979 63.3 263.804 63.9905C264.261 63.7604 265.173 64.2207 266.77 65.3715C268.366 66.5223 268.823 67.2128 267.682 67.9033C267.226 68.5938 267.454 68.824 267.91 68.5938C268.366 68.3636 269.507 68.5938 270.876 69.2843C272.244 69.9748 272.472 70.4351 272.244 70.8954C271.788 71.8161 272.472 72.0462 274.069 71.5859C274.525 71.5859 275.21 72.5066 275.894 74.1177C276.806 75.7288 277.263 77.1098 277.491 78.2606C277.719 83.0941 277.947 89.3085 278.175 96.2134C278.403 103.118 278.403 110.483 278.403 118.539C278.403 126.595 278.403 134.651 278.403 143.397C278.631 151.913 278.631 160.429 278.631 168.485C278.859 183.215 278.86 195.184 278.86 204.16C279.088 213.136 279.088 220.271 279.088 225.795C279.088 230.859 279.088 234.772 278.86 237.304C278.86 239.605 278.86 241.907 278.86 243.748C279.316 245.359 279.316 246.97 279.088 249.272C278.859 250.423 278.859 252.264 279.316 253.645ZM181.457 72.0462C181.914 71.3557 181.457 70.8954 180.545 70.4351C179.632 69.9748 179.404 70.4351 179.861 71.8161C180.089 72.9669 180.773 72.9669 181.457 72.0462ZM191.266 86.0862C191.266 86.3163 191.95 86.5465 193.547 86.7767C195.144 86.7767 195.6 86.5465 195.372 86.0862C195.372 85.6258 194.688 85.3957 193.091 85.3957C191.95 85.6258 191.266 85.856 191.266 86.0862ZM196.969 86.5465C196.284 86.7767 196.512 86.7767 197.197 86.7767C198.337 86.7767 198.565 86.7767 198.109 86.5465C198.109 86.3163 197.881 86.3163 197.425 86.3163C197.425 86.0862 197.197 86.3163 196.969 86.5465ZM202.443 86.5465C201.759 86.7767 201.987 86.7767 202.671 86.7767C203.584 86.7767 203.812 86.7767 203.584 86.5465C203.356 86.0862 202.9 86.0862 202.443 86.5465ZM72.1935 109.333C73.106 108.412 72.8778 108.182 71.9654 108.642C70.8249 108.872 70.3686 109.102 70.5967 109.563C71.053 110.253 71.5092 110.253 72.1935 109.333ZM72.4216 107.491C73.3341 107.031 73.5622 106.571 73.3341 105.88C73.106 104.96 72.8778 104.729 72.4216 104.96C72.1935 104.96 71.9654 105.19 71.7373 105.88C71.7373 106.341 71.7373 106.801 71.7373 107.261C71.7373 107.721 71.9654 107.722 72.4216 107.491ZM70.8249 122.912C71.053 123.373 71.5092 123.142 72.4216 122.682C73.3341 121.992 73.7903 121.301 73.7903 120.841C73.7903 120.38 73.5622 120.38 73.106 120.611C72.8778 120.611 72.6498 120.841 72.1935 121.301C71.7373 121.531 71.2811 121.761 70.8249 122.222C70.5968 122.452 70.5968 122.682 70.8249 122.912ZM103.672 252.494C103.672 252.955 103.901 252.955 104.585 252.724C105.269 252.494 105.497 252.264 105.497 252.034C105.497 251.804 105.041 251.804 104.129 251.804C103.672 251.804 103.444 252.034 103.672 252.494ZM118.499 118.079C117.359 119.92 117.359 120.841 118.271 120.38C119.412 119.69 119.64 118.999 119.184 118.079C118.956 117.388 118.728 117.388 118.499 118.079ZM120.324 125.444C120.781 124.984 120.552 124.523 120.096 124.063C119.412 123.373 118.956 123.142 118.499 123.142C117.359 123.373 117.359 124.063 118.271 124.984C119.184 126.135 119.868 126.365 120.324 125.444ZM127.168 138.103C126.711 137.643 126.483 137.643 126.255 138.103C126.255 138.333 126.255 138.563 126.255 139.024C126.255 139.484 126.255 139.944 126.483 140.405C126.939 140.635 127.396 140.405 127.852 139.714C127.624 139.484 127.396 139.024 127.168 138.103ZM126.483 150.302C126.939 149.842 126.939 149.381 126.711 148.921C126.483 148.46 126.255 148.921 125.799 149.842C125.571 150.992 125.799 151.223 126.483 150.302ZM127.624 147.31C127.624 147.77 128.08 147.77 129.221 147.54C130.361 147.31 130.361 147.079 129.449 146.619C128.308 145.929 127.624 146.159 127.624 147.31ZM135.608 151.913C135.379 150.762 134.923 150.762 134.011 151.683C133.327 152.604 133.555 152.834 134.695 152.604C134.695 152.604 134.923 152.604 135.379 152.373C135.608 152.143 135.608 152.143 135.608 151.913ZM133.098 149.611C132.414 149.611 132.414 149.842 132.87 150.532C133.555 151.223 133.783 150.992 133.783 150.302C133.783 149.842 133.555 149.611 133.098 149.611ZM133.783 157.667C135.379 159.508 136.748 159.508 138.345 157.437C139.029 156.516 139.029 156.286 138.345 156.516C137.889 156.516 137.889 156.056 138.345 154.905C138.573 153.984 138.573 153.524 138.345 153.524C138.345 153.524 138.117 153.754 137.432 154.445C136.52 155.365 135.608 155.826 134.239 156.056C132.87 156.286 132.414 156.056 132.642 155.365C133.098 154.905 133.098 154.215 132.642 153.524C132.186 152.604 131.958 152.604 131.73 153.524C131.73 154.215 131.502 154.215 131.045 153.754C130.589 153.294 130.589 153.524 131.045 154.445C131.502 155.365 132.414 156.516 133.783 157.667ZM138.345 161.58C138.801 162.501 139.257 162.961 139.714 162.961C140.398 162.731 140.398 162.27 139.942 161.35C139.713 160.889 139.257 160.659 138.345 160.429C137.661 160.199 137.661 160.429 138.345 161.58ZM141.538 173.088C141.766 172.628 141.995 172.398 142.223 172.167C142.451 171.937 142.451 171.707 142.451 171.477C142.223 171.017 141.995 171.017 141.538 171.477C141.082 171.707 140.854 171.937 140.626 172.398C140.398 172.628 140.398 172.858 140.398 173.318C140.398 173.779 140.854 173.548 141.538 173.088ZM144.732 168.945C144.276 169.405 144.048 170.096 144.048 170.786C144.276 171.707 144.504 171.477 144.96 170.096C144.96 169.405 144.732 168.945 144.732 168.945ZM168.683 198.636C169.368 199.557 169.596 199.787 169.596 199.557C169.596 199.096 169.368 198.636 168.911 198.176C168.683 197.485 168.227 197.255 167.543 197.255C167.086 197.025 166.858 197.485 166.858 198.866C167.087 199.787 167.315 199.787 167.543 198.866C167.771 198.406 167.999 198.176 168.227 198.176C168.455 198.176 168.683 198.176 168.683 198.636ZM150.663 171.247C150.206 171.247 149.294 171.247 147.697 171.247C146.101 171.247 146.101 171.477 147.013 171.937C147.697 171.937 147.925 172.398 147.697 173.318C147.697 174.009 147.697 174.469 147.697 174.699C147.697 174.469 147.697 174.239 147.925 174.009L149.294 172.628L150.663 171.247ZM155.225 183.445C155.225 182.755 155.453 182.525 155.909 182.755C156.365 182.985 156.594 182.755 156.594 182.525C156.594 181.604 155.453 181.144 153.4 181.144C152.716 181.144 152.031 180.683 151.119 179.763C150.207 178.612 149.75 177.691 149.75 176.771C149.75 175.85 149.522 176.08 148.838 177.461C147.697 178.152 147.697 178.842 148.61 179.302C149.75 179.763 149.978 179.993 149.294 180.223C148.838 180.453 148.382 180.453 147.925 180.453C147.469 180.223 147.241 180.453 147.013 181.144C147.241 181.604 148.154 181.834 149.978 182.064C151.803 182.064 152.944 182.295 153.172 182.985C154.312 185.056 155.225 185.056 155.225 183.445ZM157.734 188.279C156.365 187.358 155.909 187.358 155.909 188.279C156.137 188.969 156.594 189.66 157.278 190.58C157.962 191.271 158.646 191.731 159.559 192.192C160.471 192.652 160.928 192.192 161.156 190.58C161.156 189.89 160.699 189.66 159.559 189.66C158.418 189.43 157.962 188.969 157.734 188.279ZM164.349 197.946C163.665 197.946 163.665 198.406 164.121 199.327C164.805 200.017 165.033 199.787 165.033 198.636C165.033 198.176 164.805 197.946 164.349 197.946ZM165.946 195.644C166.402 195.184 166.174 194.723 165.718 194.263C165.262 193.803 164.805 193.803 164.121 194.033C162.981 194.493 162.981 195.184 163.893 195.874C164.805 197.025 165.49 196.795 165.946 195.644ZM166.63 201.168C166.63 201.398 166.858 201.628 167.315 202.089C167.999 202.549 168.455 202.779 168.911 203.009C169.368 203.239 169.596 203.239 169.824 203.239C170.052 203.009 169.824 202.549 168.911 201.858C167.771 201.628 167.086 201.168 166.63 201.168ZM169.139 205.311C168.911 205.311 168.911 205.311 169.139 205.541C169.596 205.771 170.052 206.001 170.508 206.231C170.964 206.462 171.192 206.462 171.421 206.462C171.877 206.231 171.877 206.001 171.649 205.541C171.421 205.081 170.964 204.851 170.052 204.851C169.596 204.851 169.139 205.081 169.139 205.311ZM173.017 204.39C172.105 203.93 171.877 204.16 172.333 205.081C172.789 206.001 173.245 206.001 173.702 205.081L173.017 204.39ZM173.474 202.549C172.789 203.009 172.561 203.239 172.789 203.47C173.245 203.47 173.702 203.47 174.158 203.47C174.614 203.47 175.07 203.47 175.526 203.47C175.983 203.239 175.983 203.009 175.526 202.549C174.842 202.089 174.158 202.089 173.474 202.549ZM174.614 228.327C174.842 228.327 174.842 228.097 174.842 227.406C174.386 226.026 174.158 225.795 173.93 226.716C173.93 227.406 174.158 227.867 174.614 228.327ZM175.298 213.367C176.211 214.287 176.667 214.057 176.667 213.136C176.667 212.446 176.439 212.216 175.755 212.446C175.07 212.676 175.07 213.136 175.298 213.367ZM177.579 206.692C177.123 206.692 177.351 206.922 177.808 207.612C178.72 208.073 178.948 208.073 178.72 207.612C178.264 206.922 178.036 206.692 177.579 206.692ZM179.861 218.66C180.089 218.2 180.317 217.509 180.773 216.819C181.229 215.668 181.001 215.208 180.545 214.978C179.632 214.287 178.948 214.287 178.264 214.748C177.579 215.208 177.579 215.668 178.264 216.129C178.72 216.129 178.948 216.589 179.176 217.509C179.632 217.74 179.861 218.2 179.861 218.66ZM246.468 205.081C245.784 205.541 246.012 206.001 246.696 206.692C247.609 207.152 247.837 206.692 247.381 205.771C247.152 205.311 246.924 205.081 246.468 205.081ZM215.217 246.28C214.761 245.359 214.305 245.359 213.849 246.28C213.392 247.201 213.621 247.661 214.533 247.661C214.989 247.201 215.217 246.74 215.217 246.28ZM202.443 233.851C202.443 232.7 202.215 232.7 201.531 233.621C201.075 234.311 201.303 234.542 201.759 234.542C202.215 234.311 202.443 234.311 202.443 233.851ZM196.741 226.946C196.512 226.716 196.056 226.946 195.372 227.637C194.688 228.327 194.916 228.327 196.056 227.867C196.741 227.637 196.969 227.176 196.741 226.946ZM184.195 219.581C184.651 220.502 185.563 220.502 186.704 219.811C188.072 219.121 188.301 218.43 187.616 217.509C186.932 216.819 186.476 216.589 186.248 216.819C186.248 216.819 186.248 217.049 186.248 217.509C186.476 217.97 186.476 218.43 186.476 218.89C186.704 219.121 186.476 218.89 186.248 218.66C185.107 218.2 184.651 217.97 184.423 217.97C183.51 218.2 183.282 218.66 184.195 219.581ZM188.301 224.414C188.529 224.875 188.757 224.875 189.213 224.645C189.669 224.184 189.441 223.724 188.985 223.264C188.529 222.803 187.844 222.803 187.16 223.033C186.248 223.033 185.791 223.264 185.791 223.724C185.791 224.184 186.248 224.184 187.16 223.954C188.072 223.724 188.529 223.724 188.301 224.414ZM189.669 227.867C188.757 227.406 188.529 227.637 188.985 228.557C189.669 229.478 190.125 229.478 190.582 228.557C190.582 228.327 190.582 228.327 190.354 228.327C189.897 228.327 189.669 228.097 189.669 227.867ZM193.091 232.7C192.863 233.621 193.091 233.851 193.319 233.621C193.775 233.161 194.231 232.7 194.688 232.24C195.144 231.78 195.6 231.549 196.056 231.549C196.512 231.319 196.512 231.78 196.284 232.93V234.542C196.741 234.081 197.197 233.391 197.653 232.7C198.337 231.78 199.022 231.549 199.478 231.78C200.162 232.24 200.39 232.24 200.162 231.78C200.162 231.319 199.934 230.859 199.478 230.399C199.022 229.708 198.565 229.248 197.881 228.787C197.425 228.327 197.197 228.327 197.197 228.787C197.653 229.708 197.197 230.168 195.6 230.399C194.003 230.629 193.091 230.399 192.635 229.708C191.95 229.018 191.722 228.787 191.722 228.787C191.722 228.787 191.95 229.248 192.406 230.168C193.319 230.859 193.547 231.78 193.091 232.7ZM199.934 235.462C200.39 234.772 200.39 234.311 199.934 234.081C199.478 233.621 199.25 234.081 199.25 235.002C199.25 235.923 199.25 236.383 199.25 236.613C199.478 236.613 199.706 236.153 199.934 235.462ZM207.005 238.915C207.69 238.684 207.918 238.454 207.69 237.994C207.462 237.304 207.234 237.304 206.777 237.764C205.637 239.375 204.268 239.835 202.215 239.375C200.162 238.915 199.022 237.534 198.337 235.232C197.425 235.232 196.741 235.462 195.828 236.153C195.144 236.843 195.6 237.303 197.197 237.534C198.109 237.534 198.565 237.764 198.794 238.224C199.25 238.454 199.022 238.684 198.565 238.915C198.109 239.375 198.337 239.605 199.25 239.605C200.162 239.605 200.39 240.065 199.934 240.986C199.706 241.677 199.934 241.907 200.847 241.907C201.987 241.446 202.443 241.677 202.215 242.137C202.215 242.597 202.443 242.827 203.128 242.827C203.584 243.058 204.268 243.518 205.409 244.208C206.549 244.669 207.234 244.439 207.69 243.518C207.918 243.058 207.234 242.597 205.865 242.137C204.496 241.677 204.268 241.216 204.952 240.756C205.409 239.835 206.093 239.835 206.777 240.756C207.462 241.216 207.69 241.446 207.462 241.446C207.462 241.216 207.462 240.986 207.233 240.756C207.005 240.296 206.777 240.065 206.549 239.835C205.865 239.145 206.321 238.915 207.005 238.915ZM209.058 246.74C208.374 246.74 208.374 247.201 208.83 248.121C209.515 248.812 209.743 248.581 209.743 247.431C209.743 246.97 209.515 246.74 209.058 246.74ZM210.427 250.423C211.111 249.962 211.339 249.732 211.339 249.732C210.883 249.272 210.199 249.272 209.515 249.732C208.602 250.423 208.83 250.423 210.427 250.423ZM221.604 257.328C222.289 256.637 222.289 256.407 221.604 256.407C221.148 256.177 220.92 256.177 220.692 256.407C220.692 256.637 220.692 256.867 220.692 257.328C220.92 257.558 221.148 257.788 221.376 258.018C221.376 258.018 221.604 257.788 221.604 257.328ZM221.604 253.645C221.832 253.415 221.832 253.415 221.832 253.415C221.832 253.185 221.832 253.185 221.604 253.415C221.148 253.875 220.464 253.645 219.779 252.724C218.867 251.574 218.183 250.883 217.955 250.423C220.008 250.883 220.92 250.423 220.236 249.502C219.779 248.121 219.095 247.891 217.955 248.812C217.498 249.502 217.042 249.732 216.358 249.502C215.674 249.042 214.989 249.502 214.533 250.423C213.849 251.574 213.621 252.034 213.849 252.034C214.305 251.574 214.761 251.804 215.445 252.264C216.358 252.955 217.042 253.645 217.726 254.566C218.411 255.256 218.867 255.717 219.323 256.177C220.008 256.637 220.236 256.407 220.008 255.486C219.779 254.566 220.008 254.105 220.236 254.105C220.692 254.336 221.148 254.105 221.604 253.645ZM225.482 253.185C224.798 253.415 224.57 253.645 224.57 254.105C224.57 254.336 224.57 254.566 224.798 255.026C225.254 255.256 225.482 255.256 225.71 255.256C226.166 255.026 226.395 254.566 226.395 253.875C226.395 253.185 226.166 252.955 225.482 253.185ZM225.026 259.629C224.342 260.55 224.798 261.01 226.395 261.01C227.991 261.01 228.676 260.78 228.676 260.32C228.448 259.859 227.991 259.859 227.307 260.09C226.623 260.32 226.166 260.09 225.71 259.859C225.254 258.709 225.026 258.709 225.026 259.629ZM229.816 264.002C229.816 264.923 229.816 265.153 230.044 264.693C230.272 264.002 230.501 263.542 230.957 263.312C231.869 262.161 231.641 261.931 230.729 262.391C230.044 262.852 229.588 263.312 229.816 264.002ZM231.185 268.836C232.097 269.296 232.554 269.296 232.554 268.836C232.782 268.376 232.325 268.145 231.185 268.145C230.044 268.145 230.044 268.376 231.185 268.836ZM234.15 266.534C234.607 267.225 235.063 268.145 235.519 269.066C236.203 269.987 236.888 270.677 237.344 271.598C238.256 272.288 238.941 272.749 239.853 272.979C240.765 273.209 241.678 272.979 242.818 272.058C242.818 271.368 242.134 270.447 240.537 269.066C239.169 267.685 238.941 266.995 239.853 266.534C240.537 265.153 240.309 264.923 239.169 265.844C238.028 266.534 237.8 267.455 238.256 268.376C238.256 269.987 238.028 270.677 237.344 270.677C236.888 270.447 236.431 269.526 235.975 268.145C235.519 266.764 235.747 265.383 236.203 264.233C236.659 263.772 236.888 263.542 236.888 263.542C236.888 263.312 236.888 263.312 236.66 263.542C235.975 264.233 235.291 264.233 234.378 263.772C233.238 263.312 232.325 263.542 231.413 264.463C230.729 265.383 230.729 266.074 231.413 266.304C232.325 267.225 232.554 267.225 232.325 266.304C232.554 265.844 233.01 265.844 234.15 266.534ZM246.468 276.892C246.696 276.201 246.924 276.201 247.152 276.661C247.609 276.892 247.837 277.122 247.837 277.582C248.065 278.042 248.065 278.273 248.065 278.273C248.293 278.273 248.293 277.582 248.293 276.431C248.293 275.28 248.065 274.82 247.609 274.82C247.381 274.59 247.152 274.13 246.924 273.209C246.924 272.518 246.696 272.058 246.012 271.828C245.328 271.598 245.099 271.828 245.099 272.749C245.099 273.439 245.099 273.669 244.871 273.439C244.871 273.209 244.643 272.979 244.187 272.749C243.959 272.288 243.731 272.058 243.503 271.828C243.275 271.598 243.275 271.828 243.275 272.058C243.275 272.979 243.503 273.669 243.959 274.59C244.643 275.28 245.099 275.28 245.556 274.82C245.784 274.59 245.784 275.05 245.784 276.431C245.784 277.812 246.012 277.812 246.468 276.892ZM250.118 142.936C248.977 144.317 248.749 144.778 249.434 144.778C250.346 144.548 250.802 143.857 250.802 142.936C250.574 141.555 250.346 141.555 250.118 142.936ZM249.662 279.423C249.89 279.884 250.346 279.884 251.258 279.653C252.171 279.423 252.627 279.193 252.627 278.733C252.855 278.273 252.399 278.273 251.03 278.503C249.662 278.503 249.205 278.963 249.662 279.423ZM263.804 241.216C263.804 240.986 263.576 240.986 262.892 240.986C261.751 241.446 261.523 241.677 262.208 241.907C262.892 242.137 263.348 241.907 263.804 241.216ZM266.542 71.1256C266.998 70.2049 266.77 69.9748 266.314 70.4351C265.857 70.6652 265.857 70.8954 266.085 71.3557C266.085 72.5066 266.085 72.2764 266.542 71.1256ZM74.7027 70.6653C75.387 70.2049 75.6151 69.9748 75.387 69.7446C75.1589 69.5144 74.9308 69.5144 74.4746 69.5144C74.2465 69.2843 74.0184 69.2843 73.7903 69.2843C73.5622 69.0541 73.7903 68.824 74.4746 68.3636C75.1589 67.9033 75.6151 67.9033 75.8432 68.3636C76.2995 68.824 76.2995 69.5144 75.8432 70.6653C75.387 71.5859 74.9308 72.0462 74.2465 72.2764C73.5622 72.5066 73.7903 72.0462 74.4746 70.8954H74.7027V70.6653ZM178.72 82.4036C179.176 82.8639 178.948 83.094 178.036 83.094C177.123 82.8639 176.895 82.6337 177.351 82.4036H178.72ZM174.614 89.9989C174.842 89.7688 175.298 89.999 175.983 90.2291C176.895 90.4593 177.579 90.6894 178.264 91.1498C179.176 91.3799 179.861 91.6101 180.089 91.8403C180.773 91.8403 181.001 91.6101 180.773 90.9196C180.545 90.2291 180.773 89.999 181.001 90.2291C181.685 90.4593 182.142 90.9196 182.598 91.6101C183.282 92.0704 183.738 92.5307 183.967 93.2212C184.423 93.9117 184.423 94.372 183.967 94.6022C183.967 94.8324 184.195 94.8324 184.651 94.8324C185.335 94.8324 185.335 94.372 184.651 93.4514C184.195 92.5307 183.967 91.8403 183.967 91.6101C183.967 90.9196 184.195 90.6894 184.651 90.9196C185.107 90.9196 185.563 91.1498 186.019 91.6101C186.704 92.0704 186.932 92.5307 186.932 92.9911C187.16 93.4514 186.932 93.6816 186.248 93.6816C185.791 94.1419 186.248 94.6022 187.616 95.0625C188.985 95.2927 189.669 95.2927 189.897 95.0625C190.354 95.0625 190.582 95.2927 190.582 95.753C190.582 96.2133 190.582 96.6737 190.354 97.134C190.125 97.5943 189.897 97.8245 189.441 98.0546C188.985 98.0546 188.757 97.8245 188.529 97.134C188.072 96.2134 187.388 95.9832 186.248 96.2134C185.335 96.4435 184.651 96.2133 184.423 95.5229C183.966 95.0625 182.598 94.8324 179.861 94.8324C178.264 95.0625 177.123 95.0625 176.667 94.8324C176.211 94.6022 175.755 93.9117 175.298 92.9911C174.386 91.1498 174.158 90.2291 174.614 89.9989ZM180.773 93.6816C180.545 94.1419 180.773 94.372 181.457 94.372C182.37 94.1419 182.598 94.1419 182.37 94.1419C182.37 93.6816 182.142 93.4514 181.685 93.4514C181.229 92.9911 181.001 93.2212 180.773 93.6816ZM269.279 66.7525C268.823 66.7525 268.595 66.2922 268.595 65.3715C268.595 64.2207 268.823 64.2207 269.279 65.1413C269.735 65.3715 269.963 65.8318 269.963 66.5223C269.735 67.2128 269.507 67.2128 269.279 66.7525ZM191.266 93.2212C191.038 93.2212 190.582 93.2212 189.669 93.2212C188.757 93.2212 188.301 92.9911 188.301 92.3006C188.072 91.6101 188.301 91.6101 189.213 92.3006C190.354 92.7609 191.038 92.9911 191.266 93.2212ZM71.5092 98.9753C71.9654 99.4356 71.5092 99.6658 70.5967 99.6658C69.6843 99.4356 69.6843 99.2055 70.3687 98.9753H71.5092ZM70.5967 96.4435C71.053 96.6737 70.8249 97.134 69.9125 97.8245C69.2281 98.515 69 98.515 69 97.8245C69 97.3642 69.2281 96.9038 69.6843 96.4435C70.1405 95.9832 70.3686 95.9832 70.5967 96.4435ZM69.9125 131.198C69.6843 130.047 69.6843 129.817 69.9125 130.508C70.3687 131.198 70.3686 131.658 70.1405 132.119C69.9124 132.579 69.9125 132.119 69.9125 131.198ZM98.8822 273.669C98.8822 273.209 99.1103 272.979 99.7946 272.979C100.479 272.979 100.707 273.209 100.707 273.669C100.707 274.13 100.479 274.36 99.7946 274.36C99.1103 274.36 98.8822 274.13 98.8822 273.669ZM268.595 287.019C269.051 285.868 269.279 285.408 269.507 285.408C269.963 285.408 269.963 285.868 269.507 287.019C269.507 287.709 269.051 288.4 268.138 288.86C267.454 289.32 267.454 288.63 268.595 287.019ZM259.926 287.479C259.926 286.789 260.155 286.789 260.611 287.249L261.295 287.939C261.067 288.4 260.839 288.63 260.383 288.63C259.927 288.4 259.926 287.939 259.926 287.479ZM102.076 281.725C102.076 281.034 102.304 281.034 102.76 281.495C102.988 281.955 102.76 282.415 102.532 282.876C102.304 283.106 102.076 282.876 102.076 281.725Z" fill="white"/>
</svg>
