<svg width="10" height="10" viewBox="0 0 10 10" fill="none" xmlns="http://www.w3.org/2000/svg">
<path fill-rule="evenodd" clip-rule="evenodd" d="M4.55889 0.511251C3.51885 0.640476 2.57184 1.095 1.83417 1.81898C1.198 2.44335 0.77215 3.20914 0.564539 4.10213C0.478487 4.47228 0.478487 5.52411 0.564539 5.89426C0.77623 6.80475 1.2442 7.62873 1.90122 8.2478C2.81441 9.10821 4.03442 9.55646 5.29406 9.49437C6.4779 9.436 7.45983 9.0063 8.3109 8.17409C8.95557 7.54373 9.3541 6.84046 9.56458 5.96175C9.6292 5.69208 9.64453 5.51408 9.64607 5.01623C9.64864 4.17468 9.53896 3.69552 9.18464 3.00055L9.03981 2.71648L9.49823 2.25828C9.98697 1.76973 10.0359 1.68423 9.98337 1.40966C9.95179 1.24446 9.75892 1.04853 9.57447 0.994312C9.30885 0.916207 9.16049 0.985545 8.75501 1.3773C8.55982 1.56587 8.37974 1.73701 8.35482 1.75768C8.32159 1.78521 8.25785 1.74931 8.11589 1.62319C7.57466 1.14233 6.74734 0.734671 5.99247 0.576838C5.72395 0.520703 4.81683 0.479179 4.55889 0.511251ZM5.89105 1.73001C6.31194 1.83482 6.72823 2.01826 7.0342 2.23385C7.26993 2.39991 7.48721 2.60389 7.46012 2.63365C7.45148 2.64314 6.89151 3.19622 6.2157 3.86273L4.98694 5.07453L4.5432 4.64342C4.29912 4.40633 4.0607 4.19297 4.0134 4.16934C3.79546 4.06039 3.45533 4.14882 3.29863 4.35517C3.2007 4.48407 3.17361 4.77391 3.24665 4.91103C3.31741 5.04398 4.55742 6.27511 4.71622 6.37014C4.8552 6.45333 5.06476 6.4617 5.23091 6.39074C5.29693 6.36252 5.96652 5.73267 6.74583 4.96573C7.51397 4.20975 8.15232 3.59122 8.16434 3.59122C8.19724 3.59122 8.27156 3.7588 8.37236 4.06021C8.497 4.43288 8.52968 5.20892 8.43922 5.64713C8.17364 6.93347 7.19046 7.94284 5.88708 8.26735C5.3982 8.38907 4.74724 8.38867 4.25597 8.26638C3.57196 8.09606 3.06088 7.79352 2.54743 7.25494C1.95096 6.62924 1.65553 5.88174 1.65553 4.99819C1.65553 4.0793 1.95408 3.35135 2.60492 2.68329C3.09668 2.17855 3.56708 1.90578 4.24644 1.73153C4.7232 1.60923 5.40334 1.60862 5.89105 1.73001Z" fill="#9AC07E"/>
</svg>
