<svg width="14" height="14" viewBox="0 0 14 14" fill="none" xmlns="http://www.w3.org/2000/svg">
<path d="M7.99997 2.38464C7.99997 1.83236 7.55225 1.38464 6.99997 1.38464C6.44768 1.38464 5.99997 1.83236 5.99997 2.38464L7.99997 2.38464ZM5.99997 11.6154C5.99997 12.1677 6.44768 12.6154 6.99997 12.6154C7.55225 12.6154 7.99997 12.1677 7.99997 11.6154H5.99997ZM11.6154 8.00003C12.1676 8.00003 12.6154 7.55231 12.6154 7.00003C12.6154 6.44774 12.1676 6.00003 11.6154 6.00003V8.00003ZM2.38458 6.00003C1.8323 6.00003 1.38458 6.44774 1.38458 7.00003C1.38458 7.55231 1.8323 8.00003 2.38458 8.00003V6.00003ZM5.99997 2.38464L5.99997 7.00003L7.99997 7.00003L7.99997 2.38464L5.99997 2.38464ZM5.99997 7.00003L5.99997 11.6154H7.99997L7.99997 7.00003L5.99997 7.00003ZM11.6154 6.00003L6.99997 6.00003V8.00003H11.6154V6.00003ZM6.99997 6.00003H2.38458V8.00003H6.99997V6.00003Z" fill="#9AC07E"/>
</svg>
