<svg width="80" height="80" viewBox="0 0 80 80" fill="none" xmlns="http://www.w3.org/2000/svg">
<g filter="url(#filter0_d_1628_97114)">
<mask id="path-1-outside-1_1628_97114" maskUnits="userSpaceOnUse" x="13.2" y="10" width="54" height="60" fill="black">
<rect fill="white" x="13.2" y="10" width="54" height="60"/>
<path d="M63.3369 29.3968C63.3369 24.6989 60.1911 20.8819 56.387 20.8819C56.1676 20.8819 55.8749 20.8819 55.6555 20.9553C56.0212 21.2489 55.2897 20.6617 55.6555 20.9553C55.2165 16.6245 50.6808 12 46.1451 12C43.5847 12 41.3168 12.4404 37.2201 15.3032C37.9516 15.2298 36.4885 15.3032 37.2201 15.3032C35.7569 14.3489 34.0012 13.7617 32.1723 13.7617C27.4171 13.7617 23.2472 17.7255 23.0277 22.2766C23.174 22.1298 22.8814 22.4234 23.0277 22.2766C19.3699 22.4968 16.4437 26.2404 16.4437 30.7181C16.3705 31.3787 15.2 38.2053 15.2 41.1415C15.2 55.5287 26.3198 67.2 40 67.2C53.6802 67.2 64.8 55.5287 64.8 41.1415C64.8 37.8383 63.3369 30.2043 63.3369 29.3968Z"/>
</mask>
<path d="M63.3369 29.3968C63.3369 24.6989 60.1911 20.8819 56.387 20.8819C56.1676 20.8819 55.8749 20.8819 55.6555 20.9553C56.0212 21.2489 55.2897 20.6617 55.6555 20.9553C55.2165 16.6245 50.6808 12 46.1451 12C43.5847 12 41.3168 12.4404 37.2201 15.3032C37.9516 15.2298 36.4885 15.3032 37.2201 15.3032C35.7569 14.3489 34.0012 13.7617 32.1723 13.7617C27.4171 13.7617 23.2472 17.7255 23.0277 22.2766C23.174 22.1298 22.8814 22.4234 23.0277 22.2766C19.3699 22.4968 16.4437 26.2404 16.4437 30.7181C16.3705 31.3787 15.2 38.2053 15.2 41.1415C15.2 55.5287 26.3198 67.2 40 67.2C53.6802 67.2 64.8 55.5287 64.8 41.1415C64.8 37.8383 63.3369 30.2043 63.3369 29.3968Z" fill="#E0A550"/>
<path d="M37.2201 15.3032V17.3032H37.3201L37.4197 17.2932L37.2201 15.3032ZM16.4437 30.7181L18.4315 30.9382L18.4437 30.8285V30.7181H16.4437ZM65.3369 29.3968C65.3369 23.9872 61.6513 18.8819 56.387 18.8819V22.8819C58.731 22.8819 61.3369 25.4107 61.3369 29.3968H65.3369ZM56.387 18.8819C56.2612 18.8819 55.6115 18.8611 55.0211 19.0586L56.2898 22.852C56.2217 22.8748 56.1751 22.8832 56.1614 22.8855C56.1461 22.888 56.1455 22.8873 56.1642 22.886C56.1822 22.8847 56.209 22.8834 56.2481 22.8827C56.2885 22.882 56.3299 22.8819 56.387 22.8819V18.8819ZM56.9074 19.3956C56.9067 19.3951 56.906 19.3945 56.9053 19.3939C56.9046 19.3934 56.9039 19.3928 56.9032 19.3922C56.9025 19.3917 56.9018 19.3911 56.9011 19.3906C56.9004 19.39 56.8997 19.3895 56.899 19.3889C56.8984 19.3884 56.8977 19.3878 56.897 19.3873C56.8963 19.3868 56.8957 19.3862 56.895 19.3857C56.8937 19.3846 56.8924 19.3836 56.8911 19.3825C56.8904 19.382 56.8898 19.3815 56.8891 19.381C56.8885 19.3805 56.8879 19.3799 56.8872 19.3794C56.8866 19.3789 56.886 19.3784 56.8853 19.3779C56.8847 19.3774 56.8841 19.3769 56.8835 19.3764C56.8829 19.3759 56.8823 19.3754 56.8816 19.375C56.881 19.3745 56.8804 19.374 56.8798 19.3735C56.8788 19.3727 56.8773 19.3715 56.8763 19.3706C56.8757 19.3702 56.8751 19.3697 56.8745 19.3692C56.874 19.3688 56.8734 19.3683 56.8728 19.3679C56.8722 19.3674 56.8717 19.367 56.8711 19.3665C56.8706 19.3661 56.87 19.3656 56.8694 19.3652C56.8689 19.3647 56.8683 19.3643 56.8678 19.3638C56.8673 19.3634 56.8667 19.363 56.8662 19.3625C56.8656 19.3621 56.8651 19.3617 56.8646 19.3612C56.864 19.3608 56.8635 19.3604 56.863 19.36C56.8625 19.3596 56.8619 19.3591 56.8614 19.3587C56.8609 19.3583 56.8604 19.3579 56.8599 19.3575C56.8594 19.3571 56.8589 19.3567 56.8584 19.3563C56.8579 19.3559 56.8574 19.3555 56.8569 19.3551C56.8554 19.3539 56.8525 19.3516 56.8512 19.3505C56.8492 19.3489 56.8476 19.3476 56.8458 19.3462C56.8453 19.3458 56.8449 19.3455 56.8445 19.3451C56.8441 19.3448 56.8436 19.3444 56.8432 19.3441C56.8426 19.3436 56.8413 19.3426 56.8407 19.3421C56.8402 19.3417 56.8388 19.3406 56.8383 19.3402C56.838 19.3399 56.8376 19.3396 56.8372 19.3393C56.8368 19.339 56.8364 19.3386 56.836 19.3383C56.8357 19.338 56.8353 19.3377 56.8349 19.3374C56.8345 19.3371 56.8342 19.3369 56.8338 19.3366C56.8334 19.3363 56.8331 19.336 56.8327 19.3357C56.8324 19.3354 56.832 19.3351 56.8317 19.3348C56.8313 19.3345 56.83 19.3335 56.8296 19.3332C56.8293 19.3329 56.8289 19.3326 56.8286 19.3324C56.8283 19.3321 56.828 19.3319 56.8276 19.3316C56.8273 19.3313 56.827 19.3311 56.8267 19.3308C56.8264 19.3306 56.826 19.3303 56.8257 19.3301C56.8254 19.3298 56.8251 19.3296 56.8248 19.3293C56.8245 19.3291 56.8242 19.3288 56.8239 19.3286C56.8236 19.3284 56.8233 19.3281 56.823 19.3279C56.8227 19.3277 56.8225 19.3274 56.8222 19.3272C56.8219 19.327 56.8216 19.3268 56.8213 19.3265C56.821 19.3263 56.8208 19.3261 56.8205 19.3259C56.8197 19.3253 56.8197 19.3252 56.8189 19.3246C56.8187 19.3244 56.8184 19.3242 56.8182 19.324C56.8179 19.3238 56.8177 19.3236 56.8174 19.3234C56.8172 19.3232 56.8169 19.323 56.8167 19.3228C56.8164 19.3226 56.8162 19.3224 56.816 19.3222C56.8157 19.322 56.8155 19.3219 56.8153 19.3217C56.8151 19.3215 56.8148 19.3213 56.8146 19.3211C56.8144 19.321 56.8142 19.3208 56.814 19.3206C56.8137 19.3204 56.8135 19.3203 56.8133 19.3201C56.8131 19.3199 56.8129 19.3198 56.8127 19.3196C56.8125 19.3195 56.8123 19.3193 56.8121 19.3191C56.8119 19.319 56.8117 19.3188 56.8115 19.3187C56.8113 19.3185 56.8111 19.3184 56.811 19.3182C56.8108 19.3181 56.8106 19.3179 56.8104 19.3178C56.8102 19.3176 56.8101 19.3175 56.8099 19.3174C56.8098 19.3173 56.808 19.3158 56.808 19.3158C56.8078 19.3156 56.8073 19.3153 56.8071 19.3151C56.8068 19.3149 56.8066 19.3147 56.8063 19.3145C56.8062 19.3144 56.8061 19.3143 56.8059 19.3142C56.8058 19.3141 56.8057 19.314 56.8056 19.3139C56.8055 19.3138 56.8054 19.3137 56.8052 19.3136C56.8051 19.3135 56.805 19.3135 56.8049 19.3134C56.8048 19.3133 56.8047 19.3132 56.8046 19.3131C56.8045 19.313 56.8044 19.313 56.8043 19.3129C56.8042 19.3128 56.8041 19.3127 56.8041 19.3127C56.804 19.3126 56.8039 19.3125 56.8038 19.3125C56.8032 19.312 56.8039 19.3126 56.8033 19.3121C56.8029 19.3117 56.8034 19.3121 56.8029 19.3118C56.8028 19.3116 56.8027 19.3116 56.8026 19.3115C56.8019 19.311 56.803 19.3118 56.8023 19.3113C56.8022 19.3112 56.802 19.311 56.802 19.311C56.8018 19.3109 56.8019 19.3109 56.8018 19.3109C53.9902 19.6186 54.2979 22.4302 54.2979 22.4302C54.2979 22.4302 54.2979 22.4302 54.2979 22.4303C54.298 22.4303 54.2979 22.4303 54.298 22.4303C54.2986 22.4308 54.298 22.4303 54.2989 22.431C54.299 22.4311 54.2991 22.4312 54.2992 22.4313C54.2994 22.4314 54.2995 22.4315 54.2996 22.4316C54.2997 22.4317 54.2998 22.4318 54.2999 22.4318C54.2999 22.4319 54.3 22.4319 54.3001 22.432C54.3002 22.4321 54.3003 22.4321 54.3004 22.4322C54.3004 22.4323 54.3005 22.4323 54.3006 22.4324C54.3007 22.4325 54.3008 22.4326 54.3009 22.4326C54.301 22.4327 54.3011 22.4328 54.3012 22.4329C54.3013 22.4329 54.3014 22.433 54.3015 22.4331C54.3016 22.4332 54.3017 22.4333 54.3018 22.4334C54.3019 22.4334 54.302 22.4335 54.3021 22.4336C54.3022 22.4337 54.3023 22.4338 54.3024 22.4339C54.3025 22.4339 54.3031 22.4344 54.3031 22.4344C54.3033 22.4345 54.3034 22.4346 54.3035 22.4347C54.3036 22.4348 54.3038 22.4349 54.3039 22.4351C54.304 22.4352 54.3042 22.4353 54.3043 22.4354C54.3044 22.4355 54.3046 22.4356 54.3047 22.4357C54.3052 22.4361 54.305 22.436 54.3055 22.4364C54.3057 22.4365 54.3058 22.4366 54.306 22.4367C54.3061 22.4368 54.3063 22.437 54.3064 22.4371C54.309 22.4392 54.3116 22.4413 54.3151 22.444C54.3157 22.4445 54.3157 22.4446 54.3163 22.445C54.3165 22.4452 54.3168 22.4454 54.317 22.4456C54.3172 22.4457 54.3174 22.4459 54.3176 22.4461C54.3179 22.4462 54.3181 22.4464 54.3183 22.4466C54.3185 22.4468 54.3187 22.447 54.319 22.4471C54.3192 22.4473 54.3194 22.4475 54.3196 22.4477C54.3199 22.4479 54.3201 22.4481 54.3203 22.4482C54.3206 22.4484 54.3208 22.4486 54.321 22.4488C54.3213 22.449 54.3215 22.4492 54.3217 22.4494C54.3226 22.4501 54.3223 22.4498 54.3232 22.4505C54.3234 22.4507 54.3236 22.4509 54.3239 22.4511C54.3241 22.4513 54.3244 22.4515 54.3246 22.4517C54.3255 22.4524 54.3253 22.4522 54.3261 22.4529C54.3264 22.4531 54.3266 22.4533 54.3269 22.4535C54.3271 22.4537 54.3274 22.4539 54.3277 22.4541C54.3279 22.4543 54.3282 22.4545 54.3284 22.4547C54.3287 22.455 54.329 22.4552 54.3292 22.4554C54.3295 22.4556 54.3297 22.4558 54.33 22.456C54.3303 22.4562 54.3305 22.4564 54.3308 22.4567C54.3311 22.4569 54.3314 22.4571 54.3316 22.4573C54.3319 22.4575 54.3322 22.4577 54.3324 22.458C54.3327 22.4582 54.333 22.4584 54.3333 22.4586C54.3335 22.4588 54.3338 22.4591 54.3341 22.4593C54.3344 22.4595 54.3346 22.4597 54.3349 22.4599C54.3352 22.4602 54.3355 22.4604 54.3358 22.4606C54.336 22.4609 54.3363 22.4611 54.3366 22.4613C54.3369 22.4615 54.3372 22.4618 54.3375 22.462C54.3377 22.4622 54.338 22.4625 54.3383 22.4627C54.3386 22.4629 54.3389 22.4631 54.3392 22.4634C54.3395 22.4636 54.3398 22.4638 54.3401 22.4641C54.3404 22.4643 54.3407 22.4646 54.3409 22.4648C54.3412 22.465 54.3415 22.4653 54.3418 22.4655C54.3421 22.4657 54.3424 22.466 54.3427 22.4662C54.3429 22.4663 54.3444 22.4675 54.3445 22.4677C54.3448 22.4679 54.3451 22.4681 54.3454 22.4684C54.3457 22.4686 54.346 22.4689 54.3463 22.4691C54.3467 22.4694 54.347 22.4696 54.3473 22.4699C54.3476 22.4701 54.3479 22.4704 54.3482 22.4706C54.3491 22.4713 54.3492 22.4714 54.3501 22.4721C54.3504 22.4724 54.3507 22.4726 54.351 22.4729C54.3513 22.4731 54.3516 22.4734 54.352 22.4736C54.3523 22.4739 54.3526 22.4741 54.3529 22.4744C54.3532 22.4746 54.3535 22.4749 54.3539 22.4752C54.3542 22.4754 54.3545 22.4757 54.3548 22.4759C54.3551 22.4762 54.3555 22.4764 54.3558 22.4767C54.3561 22.477 54.3564 22.4772 54.3568 22.4775C54.3571 22.4777 54.3574 22.478 54.3577 22.4783C54.3581 22.4785 54.3584 22.4788 54.3587 22.479C54.359 22.4793 54.3594 22.4796 54.3597 22.4798C54.36 22.4801 54.3603 22.4804 54.3607 22.4806C54.361 22.4809 54.3613 22.4812 54.3617 22.4814C54.362 22.4817 54.3623 22.482 54.3627 22.4822C54.363 22.4825 54.3633 22.4828 54.3637 22.483C54.364 22.4833 54.3643 22.4836 54.3647 22.4838C54.365 22.4841 54.3653 22.4844 54.3657 22.4846C54.366 22.4849 54.3663 22.4852 54.3667 22.4854C54.367 22.4857 54.3674 22.486 54.3677 22.4863C54.368 22.4865 54.3684 22.4868 54.3687 22.4871C54.3691 22.4873 54.3694 22.4876 54.3697 22.4879C54.3701 22.4882 54.3704 22.4884 54.3708 22.4887C54.3711 22.489 54.3714 22.4893 54.3718 22.4895C54.3721 22.4898 54.3725 22.4901 54.3728 22.4904C54.3732 22.4906 54.3735 22.4909 54.3738 22.4912C54.3751 22.4922 54.3767 22.4935 54.378 22.4945C54.3783 22.4948 54.3787 22.4951 54.379 22.4954C54.3794 22.4956 54.3797 22.4959 54.3801 22.4962C54.3804 22.4965 54.3808 22.4968 54.3811 22.497C54.3815 22.4973 54.3818 22.4976 54.3822 22.4979C54.3828 22.4984 54.3836 22.4991 54.3843 22.4996C54.3845 22.4998 54.3862 22.5011 54.3864 22.5013C54.3868 22.5016 54.3871 22.5018 54.3875 22.5021C54.3878 22.5024 54.3882 22.5027 54.3885 22.503C54.3889 22.5033 54.3892 22.5036 54.3896 22.5038C54.3899 22.5041 54.3903 22.5044 54.3907 22.5047C54.3908 22.5048 54.3926 22.5063 54.3928 22.5064C54.3935 22.5069 54.3942 22.5076 54.3949 22.5081C54.3953 22.5084 54.3956 22.5087 54.396 22.509C54.3963 22.5093 54.3967 22.5095 54.3971 22.5098C54.3974 22.5101 54.3978 22.5104 54.3981 22.5107C54.3985 22.511 54.3988 22.5113 54.3992 22.5116C54.3996 22.5118 54.3999 22.5121 54.4003 22.5124C54.4006 22.5127 54.401 22.513 54.4013 22.5133C54.4017 22.5136 54.4021 22.5138 54.4024 22.5141C54.4028 22.5144 54.4031 22.5147 54.4035 22.515C54.4038 22.5153 54.4042 22.5156 54.4046 22.5159C54.4049 22.5161 54.4053 22.5164 54.4056 22.5167C54.406 22.517 54.4063 22.5173 54.4067 22.5176C54.4071 22.5179 54.4074 22.5181 54.4078 22.5184C54.408 22.5186 54.4097 22.52 54.4099 22.5201C54.4103 22.5204 54.4106 22.5207 54.411 22.521C54.4113 22.5213 54.4117 22.5216 54.4121 22.5219C54.4124 22.5222 54.4128 22.5224 54.4131 22.5227C54.4135 22.523 54.4138 22.5233 54.4142 22.5236C54.4145 22.5239 54.4149 22.5242 54.4153 22.5244C54.4156 22.5247 54.416 22.525 54.4163 22.5253C54.4167 22.5256 54.417 22.5259 54.4174 22.5261C54.4177 22.5264 54.4181 22.5267 54.4184 22.527C54.4196 22.5279 54.4194 22.5278 54.4206 22.5287C54.4209 22.529 54.4213 22.5293 54.4216 22.5296C54.422 22.5298 54.4223 22.5301 54.4227 22.5304C54.423 22.5307 54.4234 22.531 54.4237 22.5312C54.4241 22.5315 54.4244 22.5318 54.4248 22.5321C54.4257 22.5329 54.4259 22.533 54.4269 22.5338C54.4272 22.5341 54.4276 22.5343 54.4279 22.5346C54.4283 22.5349 54.4286 22.5352 54.429 22.5355C54.4293 22.5357 54.4297 22.536 54.43 22.5363C54.4304 22.5366 54.4307 22.5368 54.4311 22.5371C54.4314 22.5374 54.4318 22.5377 54.4321 22.538C54.4324 22.5382 54.4328 22.5385 54.4331 22.5388C54.4335 22.5391 54.4338 22.5393 54.4342 22.5396C54.4345 22.5399 54.4349 22.5402 54.4352 22.5404C54.4355 22.5407 54.4359 22.541 54.4362 22.5413C54.4366 22.5415 54.4369 22.5418 54.4372 22.5421C54.4376 22.5424 54.4379 22.5426 54.4383 22.5429C54.4386 22.5432 54.4389 22.5435 54.4393 22.5437C54.4394 22.5439 54.4411 22.5452 54.4413 22.5453C54.4416 22.5456 54.442 22.5459 54.4423 22.5462C54.4426 22.5464 54.443 22.5467 54.4433 22.547C54.4438 22.5474 54.4448 22.5482 54.4453 22.5486C54.4457 22.5489 54.4469 22.5498 54.4473 22.5501C54.4479 22.5506 54.4486 22.5512 54.4492 22.5517C54.4496 22.552 54.4499 22.5522 54.4502 22.5525C54.4505 22.5528 54.4509 22.553 54.4512 22.5533C54.4515 22.5535 54.4518 22.5538 54.4522 22.5541C54.4525 22.5543 54.4528 22.5546 54.4531 22.5548C54.4534 22.5551 54.4538 22.5553 54.4541 22.5556C54.4544 22.5559 54.4547 22.5561 54.455 22.5564C54.4553 22.5566 54.4557 22.5569 54.456 22.5571C54.4563 22.5574 54.4566 22.5576 54.4569 22.5579C54.4577 22.5585 54.4599 22.5602 54.4606 22.5609C54.4609 22.5611 54.4612 22.5613 54.4615 22.5616C54.4618 22.5618 54.4621 22.5621 54.4625 22.5623C54.4628 22.5626 54.4631 22.5628 54.4634 22.563C54.4637 22.5633 54.464 22.5635 54.4643 22.5638C54.4646 22.564 54.4648 22.5642 54.4651 22.5645C54.4654 22.5647 54.4657 22.565 54.466 22.5652C54.4663 22.5654 54.4666 22.5657 54.4669 22.5659C54.4672 22.5661 54.4675 22.5664 54.4678 22.5666C54.4679 22.5667 54.4694 22.5679 54.4695 22.568C54.4698 22.5682 54.4701 22.5684 54.4704 22.5687C54.4707 22.5689 54.4709 22.5691 54.4712 22.5694C54.4723 22.5703 54.4718 22.5698 54.4729 22.5707C54.4732 22.5709 54.4734 22.5711 54.4737 22.5714C54.474 22.5716 54.4743 22.5718 54.4745 22.572C54.4748 22.5722 54.4751 22.5725 54.4754 22.5727C54.4756 22.5729 54.4759 22.5731 54.4762 22.5733C54.4771 22.5741 54.4768 22.5739 54.4778 22.5746C54.4784 22.5752 54.4786 22.5753 54.4793 22.5759C54.4796 22.5761 54.4798 22.5763 54.4801 22.5765C54.4803 22.5767 54.4806 22.5769 54.4808 22.5771C54.4814 22.5775 54.4833 22.5791 54.4838 22.5795C54.4841 22.5797 54.4843 22.5799 54.4845 22.58C54.4848 22.5802 54.485 22.5804 54.4852 22.5806C54.4855 22.5808 54.4857 22.581 54.486 22.5812C54.4862 22.5814 54.4864 22.5816 54.4866 22.5817C54.4869 22.5819 54.4871 22.5821 54.4873 22.5823C54.4876 22.5825 54.4878 22.5827 54.488 22.5828C54.4882 22.583 54.4885 22.5832 54.4887 22.5834C54.4889 22.5836 54.4891 22.5837 54.4893 22.5839C54.4896 22.5841 54.4898 22.5843 54.49 22.5844C54.4902 22.5846 54.4904 22.5848 54.4906 22.5849C54.4909 22.5851 54.4911 22.5853 54.4913 22.5855C54.4915 22.5856 54.4917 22.5858 54.4919 22.586C54.4921 22.5861 54.4923 22.5863 54.4925 22.5865C54.4927 22.5866 54.4929 22.5868 54.4931 22.5869C54.4933 22.5871 54.4935 22.5873 54.4937 22.5874C54.4939 22.5876 54.4941 22.5877 54.4943 22.5879C54.4945 22.588 54.4947 22.5882 54.4949 22.5883C54.4951 22.5885 54.4953 22.5887 54.4954 22.5888C54.4956 22.589 54.4958 22.5891 54.496 22.5892C54.4962 22.5894 54.4964 22.5895 54.4965 22.5897C54.4967 22.5898 54.4969 22.59 54.4971 22.5901C54.4973 22.5903 54.4974 22.5904 54.4976 22.5905C54.4978 22.5907 54.498 22.5908 54.4981 22.591C54.4983 22.5911 54.4985 22.5912 54.4986 22.5914C54.4988 22.5915 54.499 22.5916 54.4991 22.5918C54.4993 22.5919 54.4994 22.592 54.4996 22.5921C54.4998 22.5923 54.4999 22.5924 54.5001 22.5925C54.5002 22.5926 54.5004 22.5928 54.5005 22.5929C54.5031 22.595 54.5048 22.5963 54.5064 22.5976C54.5066 22.5978 54.5067 22.5978 54.5069 22.598C54.5076 22.5986 54.5066 22.5978 54.5073 22.5984C54.5081 22.5989 54.507 22.5981 54.5077 22.5987C54.5084 22.5992 54.5075 22.5985 54.5081 22.599C54.5087 22.5995 54.5086 22.5994 54.509 22.5997C54.509 22.5997 54.509 22.5997 54.509 22.5997C54.509 22.5997 54.509 22.5997 54.5091 22.5997C54.5091 22.5997 54.5091 22.5997 54.5091 22.5997C54.5091 22.5998 54.2014 19.7881 57.013 19.4804C57.013 19.4804 57.013 19.4804 57.0129 19.4803C57.0128 19.4803 57.0127 19.4801 57.0125 19.48C57.0124 19.4799 57.0124 19.4799 57.0122 19.4798C57.0122 19.4797 57.012 19.4796 57.0119 19.4795C57.0115 19.4792 57.0087 19.4769 57.0069 19.4755C57.0061 19.4749 57.0058 19.4746 57.005 19.4739C57.0047 19.4737 57.0041 19.4733 57.0039 19.4731C57.0031 19.4725 57.0035 19.4728 57.0027 19.4722C57.0023 19.4718 57.002 19.4716 57.0015 19.4712C57.0013 19.471 57.0011 19.4708 57.0009 19.4707C57.0007 19.4705 57.0005 19.4703 57.0002 19.4701C57 19.47 56.9998 19.4698 56.9996 19.4696C56.9993 19.4694 56.9991 19.4692 56.9989 19.4691C56.9986 19.4689 56.9984 19.4687 56.9982 19.4685C56.9979 19.4683 56.9977 19.4681 56.9974 19.4679C56.9957 19.4665 56.9931 19.4644 56.9909 19.4627C56.9906 19.4624 56.9903 19.4622 56.99 19.462C56.9897 19.4617 56.9894 19.4615 56.9891 19.4612C56.9888 19.461 56.9885 19.4607 56.9882 19.4605C56.9879 19.4602 56.9875 19.46 56.9872 19.4597C56.986 19.4587 56.9845 19.4575 56.9832 19.4565C56.9828 19.4562 56.9825 19.4559 56.9821 19.4556C56.9818 19.4553 56.9814 19.455 56.981 19.4547C56.9807 19.4544 56.9803 19.4541 56.9799 19.4538C56.9796 19.4535 56.9792 19.4532 56.9788 19.4529C56.9784 19.4526 56.978 19.4523 56.9777 19.452C56.9773 19.4517 56.9769 19.4514 56.9765 19.4511C56.9757 19.4504 56.975 19.4499 56.9741 19.4492C56.971 19.4467 56.9673 19.4437 56.9637 19.4408C56.9632 19.4404 56.9628 19.4401 56.9623 19.4397C56.9618 19.4393 56.9613 19.4389 56.9609 19.4385C56.9604 19.4382 56.9599 19.4378 56.9594 19.4374C56.9589 19.437 56.9584 19.4366 56.9579 19.4362C56.9575 19.4358 56.957 19.4354 56.9565 19.435C56.956 19.4346 56.9555 19.4342 56.9549 19.4338C56.9544 19.4334 56.9539 19.433 56.9534 19.4326C56.9529 19.4321 56.9524 19.4317 56.9519 19.4313C56.9502 19.43 56.9472 19.4276 56.9454 19.4261C56.9448 19.4257 56.9443 19.4252 56.9437 19.4248C56.9432 19.4243 56.9426 19.4239 56.942 19.4234C56.9415 19.423 56.9409 19.4225 56.9403 19.422C56.9397 19.4216 56.9392 19.4211 56.9386 19.4206C56.938 19.4202 56.9374 19.4197 56.9368 19.4192C56.9362 19.4188 56.9356 19.4183 56.935 19.4178C56.9344 19.4173 56.9338 19.4168 56.9332 19.4163C56.9326 19.4158 56.932 19.4154 56.9314 19.4149C56.9307 19.4144 56.9301 19.4139 56.9295 19.4134C56.9289 19.4129 56.9282 19.4124 56.9276 19.4119C56.927 19.4113 56.9263 19.4108 56.9257 19.4103C56.9251 19.4098 56.9244 19.4093 56.9238 19.4088C56.9231 19.4083 56.9225 19.4077 56.9218 19.4072C56.9212 19.4067 56.9205 19.4061 56.9198 19.4056C56.9192 19.4051 56.9185 19.4045 56.9178 19.404C56.9172 19.4035 56.9165 19.4029 56.9158 19.4024C56.9151 19.4018 56.9144 19.4013 56.9137 19.4007C56.913 19.4002 56.9124 19.3996 56.9117 19.399C56.911 19.3985 56.9103 19.3979 56.9096 19.3974C56.9088 19.3968 56.9081 19.3962 56.9074 19.3956L54.4035 22.515C54.4182 22.5268 54.4531 22.5548 54.4597 22.5602C54.4955 22.5889 54.4453 22.5485 54.4792 22.5758C54.4892 22.5838 54.4735 22.5712 54.4833 22.579C54.487 22.5821 54.4833 22.5791 54.487 22.582C54.4902 22.5846 54.4873 22.5823 54.4904 22.5848C54.4926 22.5865 54.4914 22.5856 54.4935 22.5872C54.5036 22.5953 54.4891 22.5837 54.4988 22.5915C54.5014 22.5936 54.4985 22.5912 54.501 22.5933C54.5015 22.5937 54.5026 22.5945 54.5029 22.5948C54.5044 22.596 54.5032 22.5951 54.5046 22.5962C54.5301 22.6166 54.4798 22.5763 54.5053 22.5967C54.5054 22.5968 54.5056 22.5969 54.5057 22.597C54.5058 22.5971 54.5059 22.5972 54.506 22.5973C54.5087 22.5995 54.5044 22.596 54.5071 22.5982C54.5089 22.5996 54.5063 22.5975 54.508 22.5989C54.5082 22.599 54.5081 22.599 54.5083 22.5991C54.5091 22.5997 54.5079 22.5988 54.5086 22.5994C54.5087 22.5995 54.5089 22.5996 54.509 22.5996C54.5091 22.5997 54.509 22.5997 54.5091 22.5998C57.3207 22.292 57.013 19.4804 57.013 19.4804C57.013 19.4804 57.013 19.4804 57.013 19.4804C57.0129 19.4803 57.013 19.4804 57.0129 19.4803C57.011 19.4788 57.0134 19.4807 57.0103 19.4782C56.9998 19.4698 57.0101 19.478 56.9958 19.4666C56.9604 19.4382 57.0099 19.4779 56.9717 19.4473C56.9306 19.4143 56.9839 19.457 56.9412 19.4227C56.9332 19.4163 56.9327 19.416 56.9245 19.4094C56.9095 19.3973 56.9225 19.4077 56.9074 19.3956C56.8755 19.37 56.9308 19.4144 56.8989 19.3888C56.8869 19.3792 56.9023 19.3915 56.8903 19.3819C56.8842 19.377 56.8796 19.3733 56.8737 19.3685C56.8439 19.3447 56.8713 19.3666 56.8431 19.344C56.837 19.3391 56.8356 19.338 56.8301 19.3335C56.8234 19.3282 56.8249 19.3294 56.819 19.3247C56.8054 19.3137 56.8144 19.321 56.8045 19.3131C56.8032 19.312 56.8021 19.3111 56.8019 19.311C56.8019 19.311 56.8019 19.3109 56.8019 19.3109C56.8019 19.3109 56.8019 19.3109 56.8019 19.3109C56.8018 19.3109 56.8018 19.3109 56.8018 19.3109C56.8018 19.3109 57.1095 22.1225 54.2979 22.4302C54.2979 22.4302 54.2979 22.4303 54.298 22.4303C54.3008 22.4326 54.2959 22.4286 54.299 22.4311C54.32 22.448 54.2866 22.4211 54.3135 22.4427C54.3446 22.4677 54.3423 22.4659 54.4035 22.515L56.9074 19.3956ZM57.6453 20.7536C57.3674 18.0124 55.8368 15.359 53.8267 13.4157C51.8167 11.4724 49.0762 10 46.1451 10V14C47.7497 14 49.5449 14.8398 51.0464 16.2915C52.5479 17.7431 53.5045 19.5674 53.6656 21.157L57.6453 20.7536ZM46.1451 10C44.7285 10 43.2916 10.1237 41.6243 10.6813C39.9842 11.2299 38.2191 12.1652 36.0745 13.6638L38.3657 16.9426C40.3178 15.5784 41.735 14.8621 42.8931 14.4748C44.0241 14.0965 45.0013 14 46.1451 14V10ZM37.2201 13.3032C37.1818 13.3032 37.157 13.3029 37.1426 13.3027C37.1244 13.3024 37.1338 13.3022 37.1584 13.3037C37.1696 13.3044 37.2035 13.3065 37.2494 13.3117C37.2726 13.3144 37.3118 13.3193 37.3605 13.3279C37.3855 13.3322 37.4185 13.3385 37.4571 13.3473C37.4945 13.3558 37.548 13.3692 37.6115 13.3891C37.6439 13.3993 37.683 13.4126 37.7268 13.4294C37.7701 13.446 37.8238 13.4683 37.8843 13.4977C37.9438 13.5266 38.0202 13.5674 38.1049 13.6229C38.1883 13.6775 38.2975 13.7578 38.4118 13.8703C38.5257 13.9824 38.6646 14.146 38.7811 14.3687C38.825 14.458 38.9017 14.6495 38.9334 14.7514C38.9611 14.8611 38.998 15.0871 39.0067 15.2028C39.0087 15.3194 38.9927 15.549 38.9752 15.6611C38.9525 15.7671 38.8926 15.9673 38.8564 16.0612C38.7584 16.2976 38.6315 16.4758 38.5248 16.5998C38.4179 16.7239 38.3133 16.8146 38.2328 16.8768C38.151 16.9401 38.0766 16.9875 38.0184 17.0215C37.9593 17.056 37.9065 17.0827 37.8639 17.1029C37.8208 17.1232 37.7822 17.1395 37.7502 17.1523C37.6875 17.1772 37.6343 17.1946 37.5972 17.206C37.5588 17.2177 37.5259 17.2265 37.5009 17.2328C37.4523 17.245 37.4129 17.2528 37.3892 17.2573C37.3639 17.2621 37.3431 17.2654 37.329 17.2676C37.3014 17.2718 37.281 17.2742 37.2722 17.2753C37.2545 17.2773 37.2465 17.2778 37.253 17.2773C37.2642 17.2764 37.2886 17.2747 37.3203 17.2732C37.352 17.2716 37.3763 17.2708 37.3872 17.2706C37.3937 17.2704 37.3853 17.2707 37.367 17.2704C37.358 17.2703 37.337 17.2699 37.3084 17.2684C37.2938 17.2676 37.2722 17.2663 37.2457 17.264C37.2212 17.2618 37.1797 17.2577 37.1281 17.2499C37.1017 17.246 37.0665 17.2401 37.0252 17.2316C36.9855 17.2235 36.9277 17.2103 36.859 17.1899C36.8238 17.1794 36.7812 17.1657 36.7332 17.1479C36.6858 17.1302 36.6264 17.1061 36.5595 17.0738C36.4937 17.042 36.4084 16.9963 36.3141 16.9328C36.2213 16.8704 36.0997 16.7773 35.9754 16.6454C35.8504 16.5127 35.7056 16.3225 35.5956 16.0681C35.5557 15.9685 35.4905 15.7575 35.4662 15.6466C35.4479 15.5317 35.4314 15.2989 35.4334 15.182C35.448 14.8663 35.5349 14.5961 35.6402 14.3844C35.7427 14.1782 35.8635 14.0244 35.9609 13.9188C36.0591 13.8123 36.1532 13.7336 36.2255 13.6789C36.2992 13.6233 36.3659 13.581 36.4185 13.5501C36.5206 13.4902 36.6083 13.4512 36.6624 13.4287C36.72 13.4048 36.769 13.3877 36.8036 13.3763C36.8394 13.3646 36.8701 13.3556 36.8935 13.3492C36.9392 13.3366 36.9761 13.3282 36.9982 13.3235C37.0418 13.3141 37.0741 13.3088 37.0848 13.3071C37.1082 13.3034 37.1168 13.3027 37.0985 13.3048C37.0838 13.3066 37.0587 13.3093 37.0204 13.3132L37.4197 17.2932C37.4728 17.2879 37.5221 17.2826 37.5667 17.2773C37.6077 17.2725 37.6606 17.2659 37.7154 17.2571C37.7418 17.2529 37.7866 17.2454 37.8398 17.2339C37.8667 17.2281 37.9076 17.2188 37.9566 17.2053C37.9817 17.1984 38.0139 17.189 38.051 17.1768C38.0869 17.165 38.1371 17.1475 38.1957 17.1232C38.2507 17.1003 38.3392 17.0608 38.442 17.0005C38.4949 16.9695 38.5619 16.927 38.6358 16.8712C38.7084 16.8164 38.8027 16.7375 38.9011 16.6308C38.9987 16.525 39.1196 16.3711 39.2222 16.1647C39.3275 15.9528 39.4145 15.6824 39.4291 15.3665C39.4311 15.2495 39.4146 15.0167 39.3962 14.9017C39.3719 14.7907 39.3068 14.5796 39.2668 14.4799C39.1567 14.2254 39.0118 14.0351 38.8866 13.9022C38.7622 13.7702 38.6404 13.6769 38.5474 13.6143C38.4529 13.5507 38.3673 13.5049 38.3012 13.4729C38.2341 13.4404 38.1744 13.4162 38.1266 13.3984C38.0782 13.3804 38.0352 13.3666 37.9996 13.356C37.93 13.3353 37.8712 13.3219 37.8303 13.3135C37.7878 13.3048 37.7514 13.2987 37.7235 13.2945C37.6691 13.2863 37.6242 13.2818 37.5957 13.2793C37.5654 13.2767 37.5394 13.275 37.5199 13.274C37.4816 13.272 37.4489 13.2712 37.4267 13.2709C37.382 13.2702 37.3407 13.2707 37.3101 13.2713C37.2467 13.2725 37.1796 13.2752 37.1198 13.2782C37.0601 13.2812 36.993 13.2853 36.9299 13.2904C36.8993 13.2929 36.8584 13.2965 36.8142 13.3016C36.7923 13.3041 36.7603 13.308 36.723 13.3138C36.7039 13.3167 36.6787 13.3208 36.6495 13.3263C36.622 13.3315 36.5792 13.3401 36.5277 13.353C36.5013 13.3596 36.4671 13.3687 36.4275 13.3808C36.3892 13.3925 36.3351 13.4103 36.2715 13.4356C36.239 13.4485 36.2001 13.465 36.1566 13.4855C36.1136 13.5058 36.0604 13.5328 36.0011 13.5674C35.9426 13.6016 35.8679 13.6492 35.7859 13.7126C35.7052 13.7749 35.6004 13.8658 35.4934 13.9901C35.3865 14.1143 35.2595 14.2927 35.1614 14.5292C35.1252 14.6232 35.0653 14.8235 35.0426 14.9296C35.025 15.0418 35.009 15.2714 35.011 15.3882C35.0198 15.5039 35.0566 15.73 35.0843 15.8397C35.1162 15.9418 35.1928 16.1334 35.2368 16.2227C35.3533 16.4456 35.4924 16.6094 35.6065 16.7216C35.7209 16.8342 35.8303 16.9147 35.9139 16.9695C35.999 17.0251 36.0756 17.0661 36.1355 17.0952C36.1962 17.1247 36.2503 17.1472 36.2941 17.164C36.3383 17.1809 36.3778 17.1943 36.4107 17.2047C36.4751 17.2249 36.5298 17.2386 36.5685 17.2474C36.6085 17.2565 36.643 17.2631 36.6696 17.2678C36.7217 17.2769 36.7649 17.2824 36.7929 17.2856C36.8483 17.292 36.8947 17.2951 36.9217 17.2967C36.9776 17.3 37.0313 17.3014 37.0725 17.3021C37.1174 17.3029 37.1669 17.3032 37.2201 17.3032V13.3032ZM38.3126 13.628C36.5586 12.484 34.4279 11.7617 32.1723 11.7617V15.7617C33.5744 15.7617 34.9553 16.2139 36.1275 16.9784L38.3126 13.628ZM32.1723 11.7617C26.3807 11.7617 21.3024 16.5329 21.0301 22.1803L25.0254 22.3729C25.192 18.9181 28.4535 15.7617 32.1723 15.7617V11.7617ZM21.6111 20.8648C21.5997 20.8763 21.5969 20.8791 21.5886 20.8874C21.575 20.901 21.5859 20.8901 21.5751 20.9009C21.5516 20.9245 21.5975 20.8785 21.574 20.902C21.5728 20.9032 21.5741 20.9019 21.573 20.903C21.5729 20.9031 21.5722 20.9039 21.5721 20.9039C21.572 20.904 21.5714 20.9047 21.5713 20.9047C21.5704 20.9056 21.5697 20.9063 21.5693 20.9067C21.5691 20.9069 21.569 20.907 21.5689 20.9071C21.5688 20.9072 21.569 20.9071 21.5689 20.9071C21.5689 20.9071 21.5689 20.9071 21.5689 20.9072C21.5689 20.9072 21.5689 20.9072 21.5689 20.9072C24.3973 20.9024 24.4021 23.7308 24.4021 23.7308C24.4021 23.7308 24.4021 23.7308 24.4021 23.7308C24.4021 23.7308 24.4021 23.7308 24.4021 23.7308C24.4021 23.7308 24.4021 23.7308 24.4021 23.7308C24.4022 23.7307 24.4021 23.7308 24.4022 23.7307C24.4022 23.7307 24.4022 23.7307 24.4022 23.7307C24.4022 23.7306 24.4023 23.7306 24.4023 23.7306C24.4024 23.7305 24.4024 23.7305 24.4025 23.7304C24.4027 23.7302 24.4024 23.7304 24.4026 23.7303C24.4027 23.7302 24.4027 23.7302 24.4027 23.7302C24.4027 23.7302 24.4028 23.7301 24.4028 23.7301C24.4031 23.7298 24.4029 23.73 24.4032 23.7297C24.4093 23.7236 24.4073 23.7255 24.4186 23.7142C24.4581 23.6746 24.4032 23.7297 24.4443 23.6884C24.4611 23.6716 24.4344 23.6984 24.4512 23.6816C24.4514 23.6813 24.4577 23.675 24.4578 23.6749C24.4596 23.6731 24.4577 23.675 24.4595 23.6732C24.4596 23.673 24.4609 23.6718 24.4611 23.6716C24.4635 23.6692 24.4603 23.6724 24.4626 23.67C24.476 23.6566 24.45 23.6827 24.4634 23.6693C24.4635 23.6691 24.4637 23.669 24.4638 23.6689C24.4639 23.6688 24.4641 23.6686 24.4642 23.6685C24.4687 23.664 24.4627 23.67 24.4672 23.6655C24.4699 23.6628 24.4674 23.6653 24.4701 23.6626C24.479 23.6536 24.4816 23.651 24.4855 23.6471C24.4875 23.6451 24.485 23.6476 24.4865 23.6461C24.4865 23.6461 24.4865 23.6461 24.4865 23.6461C24.4866 23.6461 24.4866 23.646 24.4866 23.646C24.4866 23.646 24.4866 23.646 24.4866 23.646C24.4866 23.646 24.4818 20.8176 21.6534 20.8224C21.6534 20.8224 21.6533 20.8224 21.6533 20.8224C21.6533 20.8225 21.6532 20.8225 21.6532 20.8226C21.6531 20.8226 21.6531 20.8226 21.6531 20.8226C21.6531 20.8227 21.6531 20.8227 21.6531 20.8227C21.653 20.8228 21.653 20.8228 21.6529 20.8228C21.6516 20.8242 21.6508 20.8249 21.6471 20.8286C21.5814 20.8946 21.6889 20.7868 21.6111 20.8648L24.4443 23.6884C24.4604 23.6723 24.454 23.6787 24.4668 23.6658C24.4833 23.6493 24.4667 23.666 24.4803 23.6523C24.4837 23.6489 24.4814 23.6512 24.4841 23.6485C24.4935 23.6391 24.4754 23.6572 24.4848 23.6478C24.4882 23.6444 24.4819 23.6507 24.4853 23.6473C24.4854 23.6472 24.4854 23.6472 24.4855 23.6472C24.4855 23.6471 24.4855 23.6471 24.4856 23.647C24.4863 23.6463 24.485 23.6476 24.4858 23.6468C24.4868 23.6458 24.4852 23.6474 24.4861 23.6465C24.4865 23.6461 24.4863 23.6463 24.4865 23.6461C24.4866 23.646 24.4865 23.6461 24.4866 23.646C24.4866 23.646 24.4866 23.646 24.4866 23.646C24.4866 23.646 24.4866 23.646 24.4866 23.646C21.6581 23.6508 21.6534 20.8224 21.6534 20.8224C21.6534 20.8224 21.6534 20.8224 21.6534 20.8224C21.6533 20.8224 21.6533 20.8224 21.6533 20.8224C21.6533 20.8224 21.6533 20.8224 21.6533 20.8224C21.6533 20.8225 21.6533 20.8224 21.6533 20.8225C21.6533 20.8225 21.6532 20.8225 21.6532 20.8225C21.6532 20.8225 21.6532 20.8226 21.6532 20.8226C21.6532 20.8226 21.6531 20.8226 21.6531 20.8227C21.6529 20.8229 21.6532 20.8226 21.653 20.8228C21.6529 20.8229 21.6529 20.8228 21.6528 20.8229C21.6528 20.823 21.6528 20.823 21.6527 20.823C21.6527 20.823 21.6527 20.8231 21.6527 20.8231C21.6524 20.8234 21.6526 20.8232 21.6523 20.8235C21.6498 20.826 21.6445 20.8313 21.6368 20.839C21.6151 20.8608 21.6346 20.8412 21.6111 20.8648C21.5381 20.938 21.6773 20.7984 21.6043 20.8716C21.5994 20.8765 21.6074 20.8685 21.6026 20.8733C21.6006 20.8753 21.6029 20.873 21.6009 20.875C21.5998 20.8762 21.5987 20.8772 21.5976 20.8783C21.5964 20.8796 21.5972 20.8787 21.596 20.88C21.595 20.881 21.5954 20.8805 21.5944 20.8816C21.594 20.882 21.5917 20.8843 21.5913 20.8847C21.5868 20.8892 21.5927 20.8832 21.5883 20.8877C21.5823 20.8937 21.5913 20.8846 21.5854 20.8906C21.5728 20.9032 21.5774 20.8986 21.57 20.9061C21.5684 20.9076 21.57 20.906 21.5689 20.9071C21.5689 20.9071 21.5689 20.9071 21.5689 20.9071C21.5689 20.9072 21.5689 20.9072 21.5689 20.9072C21.5689 20.9072 21.5737 23.7356 24.4021 23.7308C24.4021 23.7308 24.4021 23.7308 24.4021 23.7307C24.4023 23.7306 24.402 23.7309 24.4022 23.7307C24.4022 23.7307 24.4022 23.7307 24.4022 23.7306C24.4023 23.7306 24.4023 23.7306 24.4023 23.7306C24.4023 23.7306 24.4023 23.7306 24.4023 23.7305C24.4024 23.7305 24.4024 23.7305 24.4024 23.7305C24.4026 23.7303 24.4023 23.7306 24.4025 23.7303C24.4026 23.7303 24.4039 23.729 24.4045 23.7283C24.4079 23.725 24.4044 23.7285 24.4083 23.7245C24.4741 23.6586 24.3666 23.7664 24.4443 23.6884L21.6111 20.8648ZM22.9075 20.2802C17.8723 20.5833 14.4437 25.5379 14.4437 30.7181H18.4437C18.4437 26.9429 20.8675 24.4103 23.1479 24.273L22.9075 20.2802ZM14.4558 30.498C14.456 30.4962 14.455 30.5054 14.4515 30.5309C14.4484 30.5546 14.444 30.5857 14.4383 30.6253C14.4268 30.7046 14.4114 30.8073 14.3921 30.9335C14.3533 31.1876 14.3026 31.5137 14.2418 31.9079C14.1213 32.6896 13.9665 33.7074 13.8137 34.7993C13.515 36.9339 13.2 39.5115 13.2 41.1415H17.2C17.2 39.8353 17.4703 37.5316 17.7751 35.3537C18.0588 33.3263 18.3927 31.2889 18.4315 30.9382L14.4558 30.498ZM13.2 41.1415C13.2 56.5395 25.1237 69.2 40 69.2V65.2C27.5159 65.2 17.2 54.5179 17.2 41.1415H13.2ZM40 69.2C54.8763 69.2 66.8 56.5395 66.8 41.1415H62.8C62.8 54.5179 52.4842 65.2 40 65.2V69.2ZM66.8 41.1415C66.8 39.312 66.4068 36.4237 66.046 34.0346C65.8624 32.8188 65.6764 31.6652 65.5417 30.8003C65.4733 30.3611 65.4186 29.9994 65.3813 29.7267C65.3362 29.3968 65.3369 29.3343 65.3369 29.3968H61.3369C61.3369 29.6612 61.3833 30.0138 61.4182 30.2689C61.4609 30.5811 61.5205 30.9742 61.5893 31.4158C61.729 32.3126 61.9087 33.4253 62.0909 34.6319C62.4617 37.0875 62.8 39.6677 62.8 41.1415H66.8Z" fill="white" mask="url(#path-1-outside-1_1628_97114)"/>
</g>
<path d="M40 64.7043C26.7587 64.7043 15.9316 53.8405 15.2732 40.1139C15.2732 40.4809 15.2 40.8479 15.2 41.1416C15.2 55.5288 26.3198 67.2001 40 67.2001C53.6802 67.2001 64.8 55.5288 64.8 41.1416C64.8 40.8479 64.8 40.4809 64.7268 40.1139C63.9953 53.8405 53.2413 64.7043 40 64.7043Z" fill="#CB9546"/>
<path d="M16.3705 33.2872C16.3705 28.7362 19.2968 25.066 22.9546 24.8457C23.174 20.2947 27.344 16.3309 32.0991 16.3309C34.0012 16.3309 35.6838 16.9181 37.1469 17.8723H37.2201C41.3168 15.0096 43.5847 14.6426 46.1451 14.6426C50.6808 14.6426 55.2165 19.267 55.6555 23.5979C55.8749 23.5979 56.1676 23.5245 56.387 23.5245C60.2643 23.5245 63.3369 27.3415 63.3369 32.0394C63.3369 32.7734 64.5074 39.0128 64.7268 42.683C64.7268 42.1691 64.8 41.7287 64.8 41.2149C64.8 37.9117 63.41 30.2777 63.41 29.4702C63.41 24.7723 60.2643 20.9553 56.4602 20.9553C56.2407 20.9553 55.9481 20.9553 55.7286 21.0287C55.8018 21.1021 55.8749 21.1755 55.7286 21.0287C55.5823 20.8819 55.6555 20.9553 55.7286 21.0287C55.2165 16.6245 50.6808 12 46.1451 12C43.5847 12 41.3168 12.4404 37.2201 15.2298C37.3664 15.2298 37.5127 15.2298 37.1469 15.2298C36.7811 15.2298 36.9274 15.2298 37.1469 15.2298C35.6838 14.2755 34.0012 13.6883 32.0991 13.6883C27.344 13.6883 23.174 17.6521 22.9546 22.2032C22.9546 22.2032 23.0277 22.1298 22.9546 22.2032C22.8814 22.2766 22.9546 22.2032 22.9546 22.2032C19.2968 22.4234 16.3705 26.167 16.3705 30.6447C16.3705 31.3787 15.2 38.2053 15.2 41.1415C15.2 41.6553 15.2 42.0957 15.2732 42.6096C15.4195 39.3064 16.3705 33.8745 16.3705 33.2872Z" fill="#E6B166"/>
<path d="M50.8273 43.2702C50.7541 43.2702 50.681 43.2702 50.6078 43.2702C48.8521 39.8202 45.2674 37.3978 41.0975 37.3978C36.4887 37.3978 32.5382 40.334 31.0751 44.4446C30.9288 44.4446 30.7825 44.4446 30.6361 44.4446C27.1978 44.4446 24.491 47.234 24.491 50.6106C24.491 54.0606 27.271 56.7766 30.6361 56.7766C31.8067 56.7766 32.8308 56.4829 33.7819 55.8957C35.6839 57.7308 38.2444 58.8319 41.0975 58.8319C44.2432 58.8319 47.0232 57.4372 48.9984 55.3085C49.5836 55.4553 50.1689 55.6021 50.8273 55.6021C54.2656 55.6021 56.9724 52.8127 56.9724 49.4361C57.0456 46.0595 54.2656 43.2702 50.8273 43.2702Z" fill="#E07943"/>
<path d="M55.509 45.4723C55.8017 46.2063 55.948 47.0138 55.948 47.8212C55.948 51.2712 53.168 53.9872 49.8028 53.9872C49.1444 53.9872 48.5592 53.9138 47.9739 53.6936C45.9987 55.8223 43.2188 57.217 40.073 57.217C37.22 57.217 34.6595 56.1159 32.7574 54.2808C31.8064 54.7946 30.7822 55.1617 29.6117 55.1617C27.7096 55.1617 26.1002 54.3542 24.9297 53.0329C25.8807 55.3085 28.0754 56.8499 30.6359 56.8499C31.8064 56.8499 32.8306 56.5563 33.7816 55.9691C35.6837 57.8042 38.2441 58.9053 41.0972 58.9053C44.243 58.9053 47.0229 57.5106 48.9981 55.3819C49.5834 55.5287 50.1686 55.6755 50.827 55.6755C54.2654 55.6755 56.9722 52.8861 56.9722 49.5095C57.0453 47.968 56.4601 46.5734 55.509 45.4723Z" fill="#CB6D3B"/>
<path d="M28.4411 34.6086C28.4411 37.398 26.6854 39.6001 24.4907 39.6001C22.296 39.6001 20.5402 37.398 20.5402 34.6086C20.5402 31.8193 22.9544 28.5895 25.1491 28.5895C27.3438 28.5895 28.4411 31.8193 28.4411 34.6086Z" fill="#E07943"/>
<path d="M40.2194 47.0872C42.1946 45.9127 43.0725 43.7106 42.1215 42.0957C41.1704 40.5542 38.8294 40.1872 36.8542 41.3616C34.879 42.5361 33.5622 45.6191 34.44 47.234C35.3911 48.8489 38.2442 48.2616 40.2194 47.0872Z" fill="#F48F5A"/>
<path d="M21.7361 32.4976C21.2972 34.0391 21.9556 35.5806 23.1992 35.8742C24.4429 36.1678 25.7597 35.2135 26.1255 33.672C26.5644 32.1306 25.6865 29.9284 24.4429 29.6348C23.1992 29.3412 22.1019 30.9561 21.7361 32.4976Z" fill="#F48F5A"/>
<path d="M37.7323 23.8915C38.0249 26.6074 36.4155 29.0298 34.0744 29.3234C31.7334 29.5436 29.6119 27.5617 29.3193 24.8457C29.0267 22.1298 31.2214 18.6064 33.5624 18.3128C35.9034 18.0191 37.4396 21.1755 37.7323 23.8915Z" fill="#E07943"/>
<path d="M40.8046 23.1576C40.512 25.8735 42.1214 28.2959 44.4624 28.5895C46.8034 28.8831 48.925 26.8278 49.2176 24.1118C49.5102 21.3959 47.3155 17.8725 44.9745 17.5789C42.6335 17.2853 41.0973 20.4416 40.8046 23.1576Z" fill="#E07943"/>
<path d="M50.7539 32.5531C50.7539 35.3424 52.5097 37.5446 54.7043 37.5446C56.899 37.5446 58.6548 35.3424 58.6548 32.5531C58.6548 29.7637 56.2406 26.5339 54.0459 26.5339C51.8513 26.5339 50.7539 29.7637 50.7539 32.5531Z" fill="#E07943"/>
<path d="M26.2468 28.9563C26.9052 30.1308 27.271 31.8191 27.271 33.2871C27.271 36.0765 25.5152 38.2786 23.3205 38.2786C22.589 38.2786 21.9306 37.985 21.3453 37.5446C22.0769 38.7925 23.2474 39.5999 24.491 39.5999C26.6857 39.5999 28.4415 37.3978 28.4415 34.6084C28.3683 32.4063 27.6368 29.8371 26.2468 28.9563Z" fill="#CB6D3B"/>
<path d="M37.7325 23.8914C37.513 21.9095 36.7083 19.7808 35.3915 18.8265C36.0499 19.9276 36.4888 21.2489 36.562 22.5702C36.8546 25.2861 35.2452 27.7085 32.9042 28.0021C31.88 28.1489 30.9289 27.7819 30.1242 27.1212C31.0021 28.5893 32.5384 29.4702 34.0747 29.3233C36.3425 29.0297 38.0251 26.6074 37.7325 23.8914Z" fill="#CB6D3B"/>
<path d="M46.8038 18.4596C47.6085 19.7075 48.1206 21.3224 47.9743 22.717C47.6817 25.433 45.5601 27.4883 43.2191 27.1947C42.5607 27.1213 41.9023 26.8277 41.3902 26.4607C42.0486 27.6351 43.146 28.3692 44.3896 28.516C46.7306 28.7362 48.8522 26.7543 49.1448 24.0383C49.3643 22.1298 48.2669 19.7809 46.8038 18.4596Z" fill="#CB6D3B"/>
<path d="M56.1676 27.4883C56.8991 28.5893 57.4112 29.984 57.4112 31.2319C57.4112 34.0213 55.6555 36.2234 53.4608 36.2234C52.7292 36.2234 52.0708 35.9298 51.4855 35.4893C52.2171 36.7372 53.3876 37.5447 54.6313 37.5447C56.826 37.5447 58.5817 35.3425 58.5817 32.5532C58.5817 30.7181 57.4844 28.6627 56.1676 27.4883Z" fill="#CB6D3B"/>
<path d="M41.7361 21.3136C41.2972 22.8551 41.9556 24.3966 43.1992 24.6902C44.4429 24.9839 45.7597 24.0296 46.1255 22.4881C46.5644 20.9466 45.6865 18.7445 44.4429 18.4509C43.2724 18.0838 42.1019 19.7721 41.7361 21.3136Z" fill="#F48F5A"/>
<path d="M30.5361 22.1136C30.0972 23.6551 30.7556 25.1965 31.9992 25.4902C33.2429 25.7838 34.5597 24.8295 34.9255 23.288C35.2913 21.7465 34.4865 19.5444 33.2429 19.2508C31.9992 18.8838 30.9019 20.5721 30.5361 22.1136Z" fill="#F48F5A"/>
<path d="M51.3361 30.1136C50.8972 31.6551 51.5556 33.1965 52.7992 33.4902C54.0429 33.7838 55.3597 32.8295 55.7255 31.288C56.1644 29.7465 55.2865 27.5444 54.0429 27.2508C52.8724 26.8838 51.775 28.5721 51.3361 30.1136Z" fill="#F48F5A"/>
<defs>
<filter id="filter0_d_1628_97114" x="10.2" y="8" width="59.6" height="65.2" filterUnits="userSpaceOnUse" color-interpolation-filters="sRGB">
<feFlood flood-opacity="0" result="BackgroundImageFix"/>
<feColorMatrix in="SourceAlpha" type="matrix" values="0 0 0 0 0 0 0 0 0 0 0 0 0 0 0 0 0 0 127 0" result="hardAlpha"/>
<feOffset dy="1"/>
<feGaussianBlur stdDeviation="1.5"/>
<feComposite in2="hardAlpha" operator="out"/>
<feColorMatrix type="matrix" values="0 0 0 0 0 0 0 0 0 0 0 0 0 0 0 0 0 0 0.25 0"/>
<feBlend mode="normal" in2="BackgroundImageFix" result="effect1_dropShadow_1628_97114"/>
<feBlend mode="normal" in="SourceGraphic" in2="effect1_dropShadow_1628_97114" result="shape"/>
</filter>
</defs>
</svg>
