<svg width="84" height="80" viewBox="0 0 84 80" fill="none" xmlns="http://www.w3.org/2000/svg">
<g filter="url(#filter0_d_1628_97138)">
<path d="M39.4372 63.9999C39.3386 63.9999 39.2276 63.9877 39.129 63.9508C39.0057 63.9139 38.907 63.8525 38.8084 63.791C38.5001 63.7173 38.1302 63.5576 37.8713 63.1889L37.7726 63.0291C37.6 62.7219 37.563 62.3901 37.5877 62.0706C35.7135 62.98 33.9996 63.3855 32.9762 63.5453C31.5582 63.7788 28.6113 64.2703 25.3314 62.9923L25.2204 62.9431L24.8259 62.8202C24.0737 62.513 22.964 62.0092 22.0146 61.1735C21.9406 61.1121 21.8666 61.0384 21.7926 60.9646L21.7063 60.8909C21.62 60.8049 21.5707 60.7557 21.5214 60.7066C21.4844 60.6697 21.4474 60.6205 21.398 60.5714L22.0516 59.8586L21.3364 60.4977C21.2871 60.4362 21.2378 60.3871 21.1884 60.3256C21.0281 60.129 20.8925 59.9324 20.7692 59.7112C20.7076 59.6129 20.6582 59.5023 20.5966 59.404C20.5103 59.2442 20.4363 59.0722 20.3746 58.8878C20.3253 58.7895 20.2883 58.7035 20.2637 58.6052C20.2143 58.4577 19.8321 57.1183 20.1897 55.7419H20.202C20.2513 55.5084 20.3623 55.2381 20.4733 54.9677C19.9431 54.7711 19.4499 54.5622 18.969 54.3287C18.5867 54.3287 18.1922 54.3287 17.7729 54.3287L16.0344 54.3164C13.4943 54.2918 11.8298 54.1444 10.4734 53.8126L10.4611 53.8249L9.94323 53.7266C9.4007 53.5668 8.89516 53.3825 8.38962 53.149C6.88532 52.4608 5.80026 51.6252 5.18375 50.6667L4.94947 50.3226L4.9618 50.2366C4.90015 50.126 4.86316 50.0399 4.82617 49.9662C4.7152 49.7081 3.80276 47.4224 5.04811 45.7512C5.82492 44.7066 7.07028 44.3503 9.94323 44.3503C9.96789 44.3503 9.98022 44.3503 10.0049 44.3503H10.5474C11.1146 44.3503 11.6325 44.3503 12.101 44.3625C12.101 44.3134 12.0887 44.043 12.138 43.6252C12.175 43.2074 12.2613 42.7281 12.3846 42.2243C12.4216 42.04 12.5203 41.659 12.6312 41.401C12.8039 40.9217 12.9888 40.5039 13.1984 40.0983C13.2108 40.0738 13.408 39.7297 13.6053 39.3856C13.8519 38.9924 14.1232 38.6114 14.4191 38.255C14.1725 37.1245 13.9259 36.0922 13.704 35.1706C13.3341 33.6222 13.0381 32.4056 12.9395 31.4348L12.9272 31.2873L13.8766 31.1153L12.9272 31.189C12.9148 31.103 12.9148 31.0047 12.9148 30.9309C12.9025 29.8495 13.2477 29.0999 13.9506 28.6944C14.0492 28.633 14.1479 28.5961 14.2588 28.5592C14.3081 28.5346 14.3698 28.5101 14.4438 28.4978C14.5424 28.4732 14.6411 28.4609 14.7397 28.4486C14.789 28.4363 14.8507 28.424 14.9247 28.424L15.2699 28.3995L15.3069 28.424C16.2687 28.4732 17.4894 29.1122 19.08 30.4271C19.1786 29.997 19.3019 29.5669 19.4252 29.1245L19.8938 27.5761L19.9431 27.613C19.9801 27.5024 20.0294 27.3918 20.0664 27.2935L20.1774 27.0108C20.2637 26.7896 20.35 26.5807 20.4363 26.3841L20.5103 26.2244C20.6212 25.9663 20.7322 25.7205 20.8432 25.487C20.9665 25.229 21.0528 25.0446 21.1514 24.8726L21.2131 24.7497C21.2871 24.6022 21.3611 24.4671 21.4227 24.3565L21.4844 24.2582C21.5583 24.1353 21.62 24.0247 21.6693 23.9387C21.7926 23.742 21.8666 23.6437 21.9159 23.5823C26.8973 18.0401 34.7394 14.9679 43.4692 15.2136C48.2657 15.3365 52.8772 16.4425 56.8106 18.421C59.0424 19.5393 63.6785 21.8619 66.4528 26.8634C66.6501 27.2075 66.8351 27.5761 67.0077 27.9448L67.02 27.9817C67.057 28.0554 67.0817 28.1414 67.1187 28.2151L67.168 28.3503C67.2666 28.5715 67.353 28.7804 67.4393 29.0016C67.6982 29.6775 67.9078 30.3534 68.0928 31.017C68.1421 30.9432 68.1914 30.8818 68.2531 30.8203C68.4134 30.636 68.5983 30.4517 68.8203 30.2919C69.0175 30.1322 69.2148 29.9847 69.4244 29.8864C69.7327 29.7144 70.0286 29.5792 70.3246 29.4809C70.8054 29.3211 71.3356 29.2228 71.8782 29.1859C72.6303 29.1368 73.3825 29.2105 74.0853 29.3826C75.4909 29.7389 76.6993 30.5623 77.7104 31.8526L77.9077 32.1107C78.1049 32.381 78.2776 32.6391 78.4379 32.9094L78.4749 32.9832C78.7831 33.5239 78.9927 34.04 79.1654 34.5807C79.3133 35.0723 79.4243 35.5761 79.4859 36.1291C79.5353 36.5469 79.5722 36.9893 79.5846 37.5177C79.5969 37.7266 79.5969 37.9355 79.5969 38.1321C79.6092 38.6114 79.5846 39.0907 79.5229 39.6437L79.4983 39.9386C79.4489 40.4179 79.375 40.8725 79.2763 41.3026L79.2517 41.401C79.153 41.8311 79.042 42.2735 78.9064 42.6913C78.6105 43.6375 78.2652 44.4854 77.9447 45.2719L77.92 45.4071L77.9077 45.5791L77.8337 45.7389C77.4761 46.5622 77.0939 47.2873 76.687 47.9754C75.7745 49.6959 74.6525 51.1459 73.2715 52.3748C72.0754 53.4439 70.5958 54.7588 68.3764 54.8694C67.2543 54.9309 66.3542 54.6605 65.3801 54.2427C65.4418 54.6482 65.4911 54.9186 65.5404 55.1643C65.6144 55.5453 65.676 55.8525 65.713 56.3932C65.8363 58.2242 65.9473 60.1167 64.5786 61.3702L64.48 61.4562C64.332 61.6036 64.1471 61.7757 63.8142 61.9354L63.6292 61.9969C63.247 62.0829 61.9893 62.3655 61.2618 62.2795C61.1508 62.2795 61.0152 62.2549 60.8549 62.2181C60.3864 62.0952 60.0041 61.9232 59.6959 61.702C59.215 61.3579 58.9807 60.9646 58.8081 60.6205C58.7094 60.4362 58.6231 60.215 58.4998 59.9447C58.4258 59.7726 58.3395 59.576 58.2409 59.3548C58.0683 58.9616 57.8833 58.6052 57.686 58.2734C57.4271 57.831 57.1805 57.4992 56.9462 57.1674C56.7613 56.9216 56.5886 56.6636 56.4037 56.3686C56.1201 56.9954 55.9228 57.2411 55.5899 57.4746C55.1706 57.7696 54.6898 57.9416 54.1842 57.9908C53.9623 58.0891 53.7157 58.1136 53.4814 58.0522C53.3581 58.0153 53.2471 57.9662 53.1485 57.8924C53.0622 57.8679 52.9759 57.8433 52.8772 57.8064C52.5566 58.4332 52.1497 59.0353 51.5209 59.5883C50.6454 60.3502 49.6467 60.6205 48.389 60.8786C47.9328 61.2964 47.5136 61.235 47.2669 61.1612C47.23 61.149 47.193 61.1367 47.156 61.1121C47.0697 61.1244 46.9833 61.1367 46.9094 61.149C46.6381 61.3456 46.3422 61.4316 46.0339 61.3702C45.812 61.6774 45.5654 61.9354 45.2818 62.1812C44.4063 62.9431 43.4076 63.2135 42.1499 63.4715C41.6937 63.8771 41.2744 63.8279 41.0278 63.7542C40.9908 63.7419 40.9539 63.7296 40.9169 63.705C40.5716 63.7665 40.2757 63.8156 40.0044 63.8402C39.8441 63.9508 39.6345 63.9999 39.4372 63.9999ZM41.8416 56.8479L40.5223 60.0676C40.4976 60.129 40.4853 60.1782 40.4483 60.2396C40.3127 60.5345 40.1647 60.7557 40.0167 60.9769C39.8318 61.2473 39.7085 61.4439 39.5975 61.8003C39.5852 61.8494 39.5605 61.8986 39.5482 61.96H39.5975C39.8565 61.9477 40.1894 61.9109 40.5963 61.8371L41.4841 61.6774C42.8157 61.4316 43.4939 61.235 44.0487 60.768C44.3323 60.5222 44.5543 60.2519 44.7762 59.8709L45.0598 59.3794L45.627 59.404C45.738 59.404 45.886 59.404 46.0462 59.3794L46.3298 59.3425C46.4778 59.3179 46.6381 59.2934 46.8231 59.2688L47.7108 59.109C49.0425 58.8633 49.7207 58.6666 50.2632 58.1997C50.8551 57.6958 51.151 57.1183 51.5332 56.1474L52.1127 54.7711L53.2595 55.8894C53.3211 55.9262 53.3951 55.9631 53.4567 56L53.5061 56.0246C53.6294 56.0737 53.7157 56.0983 53.7527 56.0983L53.9376 56.1229C54.1596 56.1229 54.3445 56.0737 54.5295 55.9385C54.6774 55.7665 55.1337 54.5376 55.3556 53.9478L55.9968 52.2396L57.4394 54.3533C57.5257 54.4885 57.5997 54.6114 57.6737 54.7342L57.871 55.066C58.0929 55.4593 58.3025 55.7542 58.5368 56.086C58.7834 56.4301 59.067 56.8356 59.3753 57.3517C59.6095 57.745 59.8192 58.1628 60.0164 58.6175C60.1274 58.851 60.2137 59.0722 60.2877 59.2565C60.374 59.4777 60.4603 59.662 60.5343 59.8218C60.6453 60.0553 60.7193 60.129 60.8302 60.2027C60.9535 60.2888 61.1138 60.3625 61.3111 60.4116C61.3235 60.4116 61.3481 60.4239 61.3728 60.4239H61.4714L61.4961 60.4362C61.6934 60.4608 62.4085 60.3625 63.062 60.2273C63.0867 60.215 63.1113 60.1782 63.1607 60.1413L63.2963 60.0184C63.9991 59.3794 63.9128 58.0153 63.8142 56.5776C63.7895 56.1597 63.7402 55.9385 63.6785 55.5822C63.6045 55.1766 63.4936 54.6236 63.3579 53.5177L63.0867 51.1459L65.1212 52.0922C66.4035 52.682 67.242 53.0753 68.2901 53.0138C69.7204 52.9401 70.7314 52.129 72.0015 50.9985C73.2222 49.9048 74.1839 48.6636 75.0224 47.0906C75.3923 46.4762 75.7129 45.8495 76.0211 45.1613C76.0211 45.1244 76.0211 45.0999 76.0335 45.063L76.1568 44.6206C76.4897 43.8218 76.8103 43.0108 77.0815 42.1629C77.2048 41.7696 77.3158 41.3887 77.4021 40.9831C77.5008 40.5285 77.5624 40.1352 77.6117 39.7297L77.6241 39.5454C77.6734 38.9924 77.6981 38.5745 77.6857 38.169C77.6857 37.9847 77.6734 37.7881 77.6734 37.5914C77.6611 37.2105 77.6364 36.805 77.5871 36.3871C77.5254 35.9448 77.4391 35.5392 77.3281 35.146C77.1925 34.7036 77.0199 34.2981 76.7979 33.9171L76.7856 33.8925C76.65 33.659 76.5143 33.4624 76.3664 33.2535L76.1938 33.02C75.4539 32.0738 74.6032 31.4839 73.6167 31.2382C73.1235 31.1153 72.544 31.0661 72.0015 31.103C71.6069 31.1276 71.2493 31.2013 70.9164 31.2996C70.7314 31.3611 70.5342 31.4471 70.3246 31.57C70.2752 31.5945 70.0903 31.7174 70.004 31.7789C69.8807 31.8772 69.7943 31.9632 69.7204 32.0492C69.6341 32.1598 69.5601 32.2581 69.5107 32.381C69.4861 32.4425 69.4614 32.4916 69.4491 32.5408C69.4368 32.6145 69.4244 32.6637 69.4121 32.7128C69.3874 32.8357 69.3874 32.8726 69.3874 32.9217L68.512 32.9586V32.9709L69.3751 33.0323L69.3628 33.9294V34.1137V34.5315C69.3505 35.3672 69.2888 36.5223 68.8942 38.1076C68.8079 38.4517 68.7339 38.7712 68.6476 39.0784L66.7734 38.7343C66.9584 36.9033 67.057 33.315 65.6637 29.7144C65.5897 29.5177 65.5034 29.3211 65.4294 29.1368L65.3431 28.9402C65.3308 28.9156 65.3308 28.9033 65.3185 28.8787L65.2815 28.7927C65.1212 28.4486 64.9486 28.1291 64.7759 27.8096C62.2852 23.3242 58.0066 21.1737 55.9475 20.1537C52.2607 18.3104 47.9205 17.2659 43.4076 17.1553C35.2573 16.9218 27.9454 19.7236 23.3586 24.8726L23.3216 24.934C23.2599 25.0324 23.2106 25.1184 23.1613 25.2044L22.2735 24.8357L23.112 25.3027C23.0503 25.401 22.9887 25.5239 22.927 25.6468L22.8777 25.7328C22.7914 25.9171 22.7051 26.0892 22.6064 26.2858C22.4831 26.5439 22.3845 26.7651 22.2858 26.9986L22.2242 27.1583C22.1502 27.3426 22.0639 27.5393 21.9776 27.7359L21.9036 27.9202C21.8049 28.1783 21.7433 28.3626 21.6693 28.5469L21.5583 28.8419C21.4844 29.0508 21.4227 29.2474 21.3611 29.4563L21.1268 30.1936C21.0158 30.6237 20.9048 31.0415 20.8309 31.4471L20.7569 31.9386C20.7199 32.1352 20.6952 32.2704 20.6829 32.4056L20.4363 34.2243L19.0923 32.9832C16.6139 30.6975 15.5535 30.3534 15.1343 30.3534H15.1219L14.9986 29.3949L15.0356 30.3411L14.9986 30.3534H14.9863L14.937 30.3657C14.9123 30.3657 14.8383 30.4763 14.8383 30.9064L14.863 31.2259C14.9493 32.1107 15.2206 33.2781 15.5782 34.7405C15.8371 35.7973 16.1207 37.0016 16.4043 38.3411L16.5029 38.808L16.1823 39.1644C15.8371 39.5576 15.5165 39.9755 15.2452 40.3933C15.0726 40.6882 14.8877 41.0077 14.8877 41.02C14.7274 41.3272 14.5794 41.6836 14.4314 42.0891L14.3698 42.212C14.3451 42.2612 14.2835 42.4824 14.2465 42.6667C14.1355 43.1091 14.0615 43.49 14.0369 43.8464C13.9999 44.1413 14.0122 44.2765 14.0122 44.2765V44.3748V44.4977C14.0122 44.7558 14.0369 45.0016 14.0615 45.2473L14.1725 46.3287L13.0751 46.2919C12.3476 46.2673 11.5462 46.255 10.6337 46.255H9.99255C9.96789 46.255 9.95556 46.255 9.9309 46.255C7.39087 46.255 6.81134 46.5622 6.57707 46.8817C6.0592 47.5699 6.40444 48.7988 6.57707 49.2166C6.61406 49.2903 6.66338 49.4009 6.74969 49.5361L6.95931 49.8556V49.8802C7.31688 50.3103 7.97039 50.8633 9.16642 51.404C9.45002 51.5269 9.73362 51.6498 10.0172 51.7481L10.0295 51.7358L10.4858 51.8464C11.7681 52.215 13.371 52.3748 16.0221 52.3994L17.514 52.4117L17.6496 53.3702V52.4362H17.7606C18.2785 52.4362 18.747 52.4362 19.1786 52.4362H19.4129L19.6225 52.5468C20.3623 52.9278 21.2008 53.2596 22.1132 53.5422L23.9751 54.1075L22.5201 55.1398C22.3968 55.361 22.1502 55.8648 22.0516 56.1106L22.0146 56.2458C21.7803 57.1305 22.0639 58.0768 22.0762 58.0768C22.1132 58.1382 22.1379 58.1997 22.1625 58.2488C22.1995 58.3594 22.2488 58.47 22.2982 58.5683C22.3351 58.6298 22.3598 58.7035 22.3968 58.7649C22.4831 58.9001 22.5694 59.0353 22.6681 59.1582L23.112 59.6374C23.1613 59.6743 23.1983 59.7235 23.2476 59.7603C23.8888 60.3256 24.6532 60.7066 25.2451 60.9646L26.0096 61.235C28.8085 62.3164 31.3116 61.8986 32.6556 61.6774C33.9873 61.4562 36.6013 60.8049 39.055 58.9493L41.8416 56.8479ZM54.6035 56.7742L54.6281 56.8848C54.6281 56.8479 54.6158 56.811 54.6035 56.7742ZM53.4567 56.5898L53.4444 56.6881C53.4444 56.6636 53.4567 56.6267 53.4567 56.5898Z" fill="white"/>
<path d="M26.9344 33.7943C25.3684 33.7943 23.8641 34.0155 22.4585 34.3841L20.8555 32.2459C20.9665 31.6929 21.7063 28.2643 22.2858 27.269C22.5694 26.7774 24.8875 26.0278 25.2698 25.9541C25.8863 25.8435 27.7481 25.9541 27.7481 25.9541C28.3893 25.9541 28.8949 26.5931 28.8949 27.3796V30.6729V30.7344V33.5977C28.8949 33.5977 28.8949 33.5977 28.9072 33.5977V33.9172C28.266 33.8434 27.6002 33.7943 26.9344 33.7943ZM38.5495 29.0385C38.5495 29.567 38.5001 30.2428 38.4262 30.9679H38.4385C38.4262 31.0293 38.4262 31.0785 38.4262 31.1399C38.3152 31.1645 38.2042 31.2014 38.0932 31.2259C38.0563 31.2382 38.0069 31.2505 37.9699 31.2628C37.7357 31.3365 37.4891 31.4103 37.2548 31.4963C37.1685 31.5332 37.0698 31.5577 36.9835 31.5946C36.8479 31.6437 36.7246 31.6929 36.589 31.7543C36.404 31.8281 36.219 31.9141 36.0341 32.0001C35.9231 32.0493 35.8121 32.0984 35.7012 32.1599C35.5039 32.2459 35.3189 32.3442 35.134 32.4425C35.0477 32.4917 34.9614 32.5285 34.875 32.5777C34.7024 32.6637 34.5298 32.762 34.3572 32.848C34.2955 32.8849 34.2339 32.9095 34.1722 32.9464C33.9873 33.0447 33.8146 33.143 33.6543 33.229C33.6297 33.2413 33.605 33.2536 33.5804 33.2659C32.9269 33.6222 32.224 34.0155 31.6199 34.4456C31.2376 34.335 30.8554 34.249 30.4608 34.1629C30.4608 33.7943 30.4731 33.4133 30.4978 33.0447C30.5101 32.8972 30.5101 32.7374 30.5225 32.59C30.5964 31.4963 30.7444 30.4149 30.9663 29.3458C31.0773 28.805 31.213 28.2643 31.3609 27.7236C31.5952 26.9003 32.224 26.3473 32.9269 26.3473H36.0341C36.2684 26.3473 36.4903 26.3965 36.6999 26.5071C36.6999 26.5071 37.6863 26.8389 37.9453 27.1092C38.1179 27.2935 38.3275 27.6991 38.4632 28.08C38.4632 28.08 38.4632 28.08 38.4508 28.08C38.4632 28.1046 38.4755 28.1292 38.4755 28.1537C38.5248 28.3135 38.5741 28.461 38.5741 28.5839C38.5495 28.7067 38.5495 28.8665 38.5495 29.0385Z" fill="white"/>
<path d="M62.2236 45.6162C63.7648 43.1707 65.3801 43.4165 66.8597 40.8727C67.4763 39.8282 67.6859 38.9434 67.9941 37.7145C68.9312 33.8927 67.8708 32.6393 69.0175 31.2875C70.1519 29.9357 72.3714 29.776 73.888 30.1569C75.7499 30.6239 76.761 31.9757 77.1678 32.5287C78.5612 34.3843 78.6228 36.4242 78.6351 37.948C78.6721 40.713 77.8707 42.7406 77.0445 44.7191C76.2431 46.673 75.1457 49.2414 72.6303 51.4902C71.4466 52.547 70.1643 53.653 68.327 53.7513C67.0447 53.8128 66.0459 53.3581 64.7019 52.7314C62.8894 51.8957 61.681 51.3427 61.1878 50.1384C60.485 48.3689 61.7427 46.3658 62.2236 45.6162Z" fill="#E0A550"/>
<path d="M65.9103 42.1136C64.702 43.3917 63.432 43.662 62.2236 45.5914C61.755 46.341 60.485 48.3563 61.2002 50.1013C61.6934 51.3056 62.9018 51.8586 64.7143 52.6943C64.9116 52.7926 65.0965 52.8663 65.2815 52.9523C66.0583 51.0599 66.7858 49.1059 66.7488 46.4761C66.7241 45.235 66.6748 43.662 65.9103 42.1136Z" fill="#8D2543"/>
<path d="M75.5279 38.9311C75.121 38.3781 74.11 37.0264 72.2481 36.5594C71.1137 36.2768 69.5971 36.289 68.4257 36.8789C68.4134 36.9158 68.4134 36.9404 68.401 36.9895C68.0928 38.2184 67.8832 39.1032 67.2667 40.1477C67.1064 40.4181 66.9461 40.6393 66.7981 40.8482C66.7981 41.0939 66.4035 41.3029 66.3789 41.5855C67.0324 41.5486 68.0558 41.6592 68.5983 41.7944C70.4602 42.2614 71.4713 43.6131 71.8782 44.1661C73.2715 46.0217 73.3331 48.0617 73.3455 49.5855C73.3455 49.905 73.3085 50.1876 73.2962 50.4948C75.1704 48.7375 76.2184 46.8205 76.9582 45.1492C76.9706 44.8789 77.0076 44.6208 77.0076 44.3382C76.9829 42.8267 76.9213 40.7867 75.5279 38.9311Z" fill="#8D2543"/>
<path d="M73.0865 32.8603C74.9484 33.3273 75.9595 34.6791 76.3664 35.2321C77.7597 37.0877 77.8214 39.1276 77.8337 40.6514C77.846 41.6837 77.7227 42.593 77.5378 43.4532C78.1543 41.8557 78.6475 40.1353 78.6228 37.9479C78.5982 36.4241 78.5365 34.3964 77.1555 32.5286C76.7486 31.9756 75.7375 30.6238 73.8757 30.1568C72.3591 29.7759 70.1396 29.9356 69.0052 31.2874C68.3887 32.0124 68.4134 32.7252 68.4257 33.7943C69.6094 32.6392 71.6562 32.504 73.0865 32.8603Z" fill="#8D2543"/>
<g style="mix-blend-mode:multiply" opacity="0.57">
<path d="M67.9942 37.7142C67.6859 38.9431 67.4763 39.8279 66.8598 40.8724C65.3801 43.4162 63.7525 43.1704 62.2236 45.6159C61.755 46.3655 60.485 48.3808 61.2002 50.1258C61.6934 51.3301 62.9018 51.8831 64.7143 52.7188C65.6267 53.1366 66.3789 53.4684 67.168 53.6281C67.1434 53.4807 67.131 53.3455 67.1064 53.1612C66.9461 51.7725 66.8598 51.0844 66.9214 50.5068C67.0571 49.3148 68.3764 47.2134 68.5983 46.7464C68.5983 46.7464 69.0792 45.7388 70.1889 40.7618C70.7068 38.4147 70.9781 34.4577 69.856 30.5745C69.5354 30.7588 69.2518 30.98 69.0052 31.2626C67.8709 32.639 68.9313 33.8924 67.9942 37.7142Z" fill="#CC8C3F"/>
</g>
<path d="M18.2785 46.2918C16.133 45.1735 14.0985 45.1735 10.0172 45.1613C7.25523 45.1613 6.34279 45.4808 5.82492 46.1812C4.87549 47.447 5.67696 49.364 5.71395 49.45C5.8989 49.8678 6.46609 50.9861 8.77185 52.0429C10.4611 52.8171 12.1627 53.1366 16.0221 53.1735C20.5843 53.2227 22.8654 53.2472 23.2723 52.387C23.9627 50.9001 21.1268 47.7788 18.2785 46.2918Z" fill="#E0A550"/>
<path d="M22.9147 52.3871C22.9147 52.3748 22.9147 52.3748 22.9147 52.3871C22.1132 52.2642 21.2994 52.0921 20.4856 51.8095C20.1034 51.6743 18.3032 51.023 16.4906 48.9954V49.0077V48.9954C16.1577 48.6267 15.8248 48.2212 15.5042 47.7419C14.8753 46.808 14.5671 45.5422 14.5671 45.5422C14.5671 45.5422 15.5535 45.9846 17.2058 46.4885V46.5008C17.7853 46.6851 18.4388 46.8694 19.1663 47.0538C18.7594 46.7834 18.3525 46.5253 17.9332 46.3041C15.9727 45.2842 14.0739 45.1982 10.6214 45.1736C10.831 48.467 12.9765 51.3548 16.207 53.1858C20.3993 53.2227 22.5324 53.2104 22.9147 52.3871Z" fill="#CC8C3F"/>
<path d="M9.32686 49.4009C8.13082 48.5898 6.70051 48.6267 6.12099 49.4746C6.02234 49.6221 5.99768 49.7941 5.96069 49.9539C6.31827 50.4946 7.07042 51.3056 8.77199 52.0798C9.22821 52.2887 9.68443 52.4608 10.19 52.6082C10.2763 52.5345 10.3749 52.4854 10.4489 52.3993C11.0161 51.5514 10.5229 50.2119 9.32686 49.4009Z" fill="#8D2543"/>
<path d="M6.39235 47.4591C6.69886 47.4591 6.94733 47.3106 6.94733 47.1273C6.94733 46.9441 6.69886 46.7955 6.39235 46.7955C6.08584 46.7955 5.83737 46.9441 5.83737 47.1273C5.83737 47.3106 6.08584 47.4591 6.39235 47.4591Z" fill="#8D2543"/>
<path d="M8.24182 47.1277C8.56194 47.1277 8.82146 46.9681 8.82146 46.7713C8.82146 46.5745 8.56194 46.4149 8.24182 46.4149C7.92169 46.4149 7.66217 46.5745 7.66217 46.7713C7.66217 46.9681 7.92169 47.1277 8.24182 47.1277Z" fill="#8D2543"/>
<path d="M9.88171 48.1721C10.2018 48.1721 10.4614 47.9795 10.4614 47.742C10.4614 47.5045 10.2018 47.3119 9.88171 47.3119C9.56158 47.3119 9.30206 47.5045 9.30206 47.742C9.30206 47.9795 9.56158 48.1721 9.88171 48.1721Z" fill="#8D2543"/>
<path d="M66.1323 28.1414C63.6046 22.722 58.7094 20.2766 56.3914 19.1214C46.2682 14.0462 30.9417 14.7958 22.6681 24.0861C22.1749 24.6391 17.8593 32.7865 20.3993 37.7389C23.0133 42.8387 30.917 40.3195 39.5605 47.3978C39.3509 47.5084 39.1413 47.6313 38.9564 47.7419C34.7394 50.1751 35.1093 52.5591 32.3103 53.5053C30.806 54.0092 30.8677 53.2719 25.4177 53.6282C23.4202 53.7634 22.3845 53.9232 21.694 54.7465C20.5719 56.0614 21.1638 58.089 21.2008 58.2119C21.8913 60.4608 24.3327 61.407 25.6767 61.9231C28.6606 63.0783 31.3362 62.6605 32.8159 62.4147C34.3448 62.1566 37.3534 61.4316 40.1524 59.1336C40.547 58.8141 40.9292 58.47 41.2991 58.1136C41.6197 56.5284 42.2855 55.0414 43.3213 53.8126C43.3459 53.4193 43.3706 53.0015 43.3706 52.51C43.4446 52.8049 43.4939 53.1121 43.5185 53.4193C43.5185 53.4685 43.5185 53.5299 43.5185 53.5791C45.0722 51.8586 47.3409 50.7035 50.3618 50.7035C50.5221 50.7035 50.6578 50.7281 50.8181 50.7281C51.003 50.4946 51.188 50.2488 51.3729 50.0153C52.569 48.8233 56.0708 53.5422 57.0695 55.3609C57.6614 56.4301 58.3395 56.9585 59.178 58.8387C59.6342 59.8709 59.7205 60.3625 60.2754 60.7557C60.5097 60.9154 60.7809 61.0383 61.0769 61.1121C60.9412 60.8049 60.8179 60.4239 60.7809 59.9815C60.7316 59.5145 60.7809 59.1213 60.8426 58.8264L61.3605 61.1489C61.9276 61.2472 62.5442 61.2104 63.099 60.9892C62.988 60.8417 62.8894 60.6697 62.8031 60.4608C62.5442 59.8217 62.5812 59.2565 62.6181 58.9984L63.284 60.8786C63.5306 60.768 63.7649 60.6451 63.9621 60.4731C64.9979 59.5268 64.8992 57.9293 64.7883 56.2703C64.7266 55.2626 64.5787 55.2135 64.332 53.1613C64.1718 51.7726 64.0854 51.0845 64.1471 50.5069C64.2827 49.3149 65.6021 47.2135 65.824 46.7465C65.824 46.7465 66.3049 45.7389 67.4146 40.7619C68.0065 37.9232 68.2654 32.7251 66.1323 28.1414ZM28.8825 34.6544L23.1736 35.3303L20.8185 32.1844C20.8185 32.1844 21.6323 28.2028 22.2735 27.1214C22.5571 26.6299 23.3832 25.9294 23.8148 25.6591C24.1477 25.4379 24.8875 25.1675 25.2698 25.0938C25.8863 24.9832 27.7481 25.0938 27.7481 25.0938C28.3893 25.0938 28.8949 25.7328 28.8949 26.5193V34.6544H28.8825ZM37.0822 38.5254C37.0822 38.5254 33.2351 38.6974 33.0008 38.5254C32.7666 38.3533 30.3868 34.765 30.3868 34.765V34.298C30.3868 32.0369 30.6951 29.8004 31.2869 27.6621C31.5212 26.8388 32.15 26.2858 32.8529 26.2858H35.9601C36.1944 26.2858 36.4163 26.3349 36.6259 26.4455C36.6259 26.4455 37.6124 26.7773 37.8713 27.0477C38.1302 27.3303 38.4878 28.1045 38.5125 28.5223C38.7221 31.0415 37.0822 38.5254 37.0822 38.5254ZM61.8783 53.1244C61.7797 53.3456 61.6071 53.4193 61.2741 53.6651C60.6576 54.1075 60.522 54.3901 60.1891 54.6728C59.6096 55.1643 58.3519 55.7665 57.4394 55.2749C56.2927 54.6728 56.1941 52.6574 56.6626 52.3625C56.8969 52.215 57.1805 52.5837 57.9203 52.51C58.1299 52.4854 58.3765 52.4116 58.8574 52.2519C59.5726 52.0184 59.5849 51.957 59.9425 51.8586C60.5343 51.6989 61.1015 51.5391 61.5084 51.8464C61.8907 52.1167 62.0509 52.7311 61.8783 53.1244Z" fill="#E0A550"/>
<path d="M66.1323 28.1414C63.6046 22.722 58.7094 20.2766 56.3914 19.1214C46.2682 14.0462 30.9417 14.7958 22.6681 24.0861C22.1749 24.6391 17.8593 32.7865 20.3993 37.7389C21.8543 40.5899 24.9615 41.0568 28.9195 42.1505C31.3732 41.4255 37.7357 46.6851 38.0932 46.2796C40.6209 43.4531 37.637 28.1782 41.1141 26.8511C49.0672 23.8403 58.6231 24.5531 65.6637 28.0676C65.824 28.1414 66.0213 28.252 66.1939 28.338C66.1816 28.2766 66.1569 28.2028 66.1323 28.1414ZM28.8825 34.7527L23.1736 35.4286L20.8062 32.2827C20.8062 32.2827 21.62 28.3011 22.2612 27.2197C22.5448 26.7282 24.8629 25.9786 25.2451 25.9048C25.8616 25.7942 27.7235 25.9048 27.7235 25.9048C28.3646 25.9048 28.8702 26.5438 28.8702 27.3303L28.8825 34.7527ZM37.0822 38.5254C37.0822 38.5254 33.2351 38.6974 33.0008 38.5254C32.7666 38.3533 30.3868 34.765 30.3868 34.765V34.298C30.3868 32.0369 30.6951 29.8004 31.2869 27.6621C31.5212 26.8388 32.15 26.2858 32.8529 26.2858H35.9601C36.1944 26.2858 36.4163 26.3349 36.6259 26.4455C36.6259 26.4455 37.6124 26.7773 37.8713 27.0477C38.1302 27.3303 38.4878 28.1045 38.5125 28.5223C38.7221 31.0415 37.0822 38.5254 37.0822 38.5254Z" fill="#7A1C3B"/>
<path d="M22.6681 25.3764C30.9417 16.0861 46.2682 15.3488 56.3913 20.4118C58.4628 21.4563 62.6305 23.5454 65.2815 27.8833C65.4048 27.9448 65.5404 28.0062 65.6637 28.0676C65.824 28.1414 66.0213 28.252 66.1939 28.338C66.1692 28.2766 66.1446 28.2028 66.1199 28.1414C63.5922 22.722 58.6971 20.2766 56.379 19.1214C46.2682 14.0462 30.9417 14.7958 22.6681 24.0861C22.2735 24.5285 19.3389 30.0093 19.6348 34.7159C19.8444 30.3534 22.2982 25.7819 22.6681 25.3764Z" fill="#5F1532"/>
<path d="M39.8688 48.0123C47.3779 43.6006 58.1916 43.2074 66.0336 46.0584C66.1939 45.6282 66.6131 44.1905 67.4146 40.6636C58.4135 35.7112 44.9242 36.3871 37.3781 45.2227C38.1672 45.7388 38.9564 46.3041 39.7702 46.9677C40.1154 47.2504 39.5729 47.7296 39.8688 48.0123Z" fill="#7A1C3B"/>
<path d="M28.414 54.8449C28.5373 55.3856 29.832 55.0538 30.7074 56.0246C31.5089 56.9094 31.2253 58.0768 31.6445 58.1383C31.9898 58.1997 32.52 57.4009 32.6679 56.6145C32.9022 55.3241 32.2364 53.4685 30.88 53.2351C29.6347 53.0261 28.2783 54.255 28.414 54.8449Z" fill="#7A1C3B"/>
<path d="M31.6445 53.0506C31.7678 53.5913 33.0625 53.2595 33.9379 54.2303C34.7394 55.1151 34.4558 56.2825 34.875 56.344C35.2203 56.4054 35.7505 55.6066 35.8984 54.8202C36.1327 53.5298 35.4669 51.6742 34.1106 51.4407C32.8652 51.2318 31.5089 52.4607 31.6445 53.0506Z" fill="#7A1C3B"/>
<path d="M26.848 59.8587C26.848 58.7035 25.578 57.7819 23.9997 57.7819C22.9024 57.7819 21.9653 58.2365 21.4967 58.9001C22.2858 60.4485 23.9381 61.2719 25.1465 61.7634C26.1575 61.4316 26.848 60.7066 26.848 59.8587Z" fill="#8D2543"/>
<path d="M22.2367 57.0568C22.6385 57.0568 22.9643 56.8587 22.9643 56.6144C22.9643 56.3701 22.6385 56.172 22.2367 56.172C21.8348 56.172 21.509 56.3701 21.509 56.6144C21.509 56.8587 21.8348 57.0568 22.2367 57.0568Z" fill="#8D2543"/>
<path d="M24.6904 56.6146C25.1127 56.6146 25.4551 56.4055 25.4551 56.1476C25.4551 55.8897 25.1127 55.6807 24.6904 55.6807C24.2681 55.6807 23.9258 55.8897 23.9258 56.1476C23.9258 56.4055 24.2681 56.6146 24.6904 56.6146Z" fill="#8D2543"/>
<path d="M26.8482 58.0153C27.2705 58.0153 27.6128 57.7567 27.6128 57.4377C27.6128 57.1187 27.2705 56.8601 26.8482 56.8601C26.4259 56.8601 26.0836 57.1187 26.0836 57.4377C26.0836 57.7567 26.4259 58.0153 26.8482 58.0153Z" fill="#8D2543"/>
<path d="M59.9302 51.8587C59.5726 51.957 59.5602 52.0185 58.8451 52.2519C58.3642 52.4117 58.1176 52.4977 57.908 52.51C57.1682 52.5837 56.8846 52.2151 56.6503 52.3625C56.1818 52.6452 56.2927 54.6728 57.4271 55.275C58.3396 55.7542 59.5972 55.1644 60.1768 54.6728C60.5097 54.3779 60.6576 54.1075 61.2618 53.6651C61.5947 53.4194 61.7674 53.3579 61.866 53.1244C62.0386 52.7189 61.8783 52.1168 61.4961 51.8341C61.0892 51.5392 60.522 51.6989 59.9302 51.8587Z" fill="#8D2543"/>
<path d="M56.8476 49.2537C56.6256 49.7698 56.2804 49.9418 56.3174 50.3228C56.3544 50.7406 56.7736 50.7775 56.9462 51.269C57.1065 51.7237 56.9216 52.2398 56.6996 52.842C55.4912 56.0739 55.3926 56.2828 55.0597 56.5163C54.3938 56.9833 53.728 56.8604 53.5554 56.8358C53.0375 56.7375 52.1991 56.3443 52.1251 55.6684C52.0881 55.4103 52.1867 55.2751 52.6183 54.3658C53.0745 53.4073 53.2965 52.9157 53.3211 52.7068C53.4198 51.7114 52.606 51.4042 52.5196 50.2859" fill="#E0A550"/>
<g style="mix-blend-mode:multiply" opacity="0.57">
<path d="M57.711 51.269C57.5384 50.7898 57.119 50.7406 57.082 50.3228C57.045 49.9418 57.5507 49.4011 57.7727 48.885L56.9217 49.6961C56.7121 50.0524 56.2927 49.991 56.3297 50.3228C56.3667 50.7406 56.7861 50.7775 56.9587 51.269C57.119 51.7237 56.934 52.2398 56.7121 52.842C56.5271 53.3212 56.3791 53.7268 56.2434 54.0831C56.4284 54.3412 56.5764 54.587 56.7244 54.8205C56.9094 54.3289 57.156 53.7022 57.4767 52.842C57.6987 52.2398 57.8837 51.736 57.711 51.269Z" fill="#CC8C3F"/>
</g>
<path d="M52.4704 57.0936C52.421 57.0936 52.384 57.0567 52.3717 57.0076C52.347 56.7495 52.3594 56.2334 52.6307 55.7418C52.8157 55.41 53.0623 55.2134 53.2227 55.1274C53.272 55.1028 53.3213 55.1151 53.3583 55.1643C53.383 55.2134 53.3707 55.2626 53.3213 55.2994C53.1733 55.3855 52.9637 55.5452 52.791 55.8402C52.5444 56.2825 52.5444 56.7495 52.5567 56.9953C52.569 57.0444 52.532 57.0936 52.4704 57.0936Z" fill="#8D2543"/>
<path d="M53.839 57.413C53.802 57.413 53.765 57.3885 53.7527 57.3639C53.7157 57.3024 53.4567 56.7003 53.6787 56.1227C53.7527 55.9507 53.8514 55.8032 53.987 55.6803C54.024 55.6435 54.0857 55.6435 54.1227 55.6926C54.1597 55.7295 54.1597 55.7909 54.1104 55.8278C53.9994 55.9261 53.913 56.049 53.8514 56.1965C53.6541 56.7126 53.913 57.2656 53.9254 57.2902C53.95 57.3393 53.9254 57.3885 53.876 57.413C53.8637 57.4008 53.8514 57.413 53.839 57.413Z" fill="#8D2543"/>
<path d="M53.4444 51.3549C53.7774 51.0231 54.4927 51.9571 55.06 51.5393C55.319 51.3549 55.3314 51.0354 55.5164 51.0477C55.7754 51.06 56.0713 51.7236 56.0097 52.3012C55.9234 53.0262 55.2697 53.4809 54.7517 53.5546C54.6037 53.5792 54.0981 53.6529 53.7034 53.1982C53.2348 52.6575 53.1731 51.6253 53.4444 51.3549Z" fill="#8D2543"/>
<path d="M47.3409 49.7696C47.193 49.9416 46.3545 50.8756 46.1572 52.2519C46.0093 53.235 46.3299 53.53 46.2189 55.1889C46.1572 56.1352 46.1202 56.6021 45.8736 57.106C45.5777 57.7327 45.2078 57.9908 44.9735 58.8018C44.8502 59.2319 44.7393 59.6129 44.9119 59.8709C45.0845 60.129 45.5284 60.2519 47.008 59.9815C49.0302 59.6129 50.0413 59.4286 50.9167 58.6789C51.8168 57.9047 52.1744 56.9831 52.6183 55.8525C53.0129 54.8449 53.1362 54.0215 53.2965 53.0261C53.4691 51.9447 53.5554 51.318 53.4074 50.4824C53.2841 49.7696 53.1485 49.0323 52.6183 48.5653" fill="#E0A550"/>
<g style="mix-blend-mode:multiply" opacity="0.57">
<path d="M54.1476 52.8789C54.3203 51.7974 54.4066 51.1707 54.2586 50.3351C54.2339 50.1876 53.7036 49.0325 53.679 48.885L53.346 50.1016C53.3706 50.2368 53.3953 50.3719 53.42 50.5071C53.568 51.3305 53.4816 51.9572 53.309 53.0509C53.1486 54.0463 53.0253 54.8573 52.6307 55.8773C52.5813 56.0125 52.5197 56.1477 52.4703 56.2828C52.643 56.4549 52.8527 56.5778 53.0746 56.6761C53.2103 56.3689 53.346 56.0493 53.4816 55.7053C53.864 54.6853 53.9996 53.8742 54.1476 52.8789Z" fill="#CC8C3F"/>
</g>
<path d="M46.9957 54.5624C46.6134 54.2429 46.6874 53.3213 47.1067 52.756C47.9698 51.5885 50.5098 51.6746 51.1263 52.756C51.4469 53.3213 51.2743 54.2675 50.7811 54.5624C50.3742 54.8205 50.0413 54.4272 49.0302 54.3904C47.8465 54.3535 47.3656 54.8573 46.9957 54.5624Z" fill="#8D2543"/>
<path d="M46.3546 60.9647C46.3176 60.9647 46.2806 60.9401 46.2683 60.9033C46.1326 60.5838 45.9353 59.9448 46.2066 59.2566C46.3053 59.0108 46.4409 58.8019 46.6259 58.6053C46.6629 58.5684 46.7246 58.5684 46.7616 58.6053C46.7986 58.6422 46.7986 58.7036 46.7616 58.7405C46.6012 58.9125 46.4656 59.1091 46.3793 59.3303C46.1326 59.957 46.3053 60.5469 46.4286 60.8418C46.4532 60.891 46.4286 60.9401 46.3793 60.9647C46.3793 60.9524 46.3669 60.9647 46.3546 60.9647Z" fill="#8D2543"/>
<path d="M47.7356 60.9768C47.6986 60.9768 47.6616 60.9522 47.6492 60.9154C47.5136 60.5959 47.3163 59.9568 47.5876 59.2687C47.6862 59.0229 47.8219 58.814 48.0069 58.6174C48.0439 58.5805 48.1056 58.5805 48.1426 58.6174C48.1796 58.6542 48.1796 58.7157 48.1426 58.7525C47.9822 58.9246 47.8466 59.1212 47.7602 59.3424C47.5136 59.9691 47.6862 60.559 47.8096 60.8539C47.8342 60.9031 47.8096 60.9522 47.7602 60.9768C47.7602 60.9645 47.7479 60.9768 47.7356 60.9768Z" fill="#8D2543"/>
<path d="M41.1018 52.3503C40.9538 52.5223 40.1154 53.4563 39.9181 54.8326C39.7701 55.8157 40.0907 56.1106 39.9798 57.7696C39.9181 58.7159 39.8811 59.1828 39.6345 59.6867C39.3386 60.3134 38.9687 60.5715 38.7344 61.3825C38.6111 61.8126 38.5001 62.1936 38.6727 62.4516C38.8454 62.7097 39.2893 62.8326 40.7689 62.5622C42.7911 62.1936 43.8021 62.0092 44.6776 61.2596C45.5777 60.4854 45.9353 59.5638 46.3792 58.4332C46.7737 57.4255 46.897 56.6022 47.0573 55.6068C47.2299 54.5254 47.3163 53.8987 47.1683 53.063C47.045 52.3503 46.9094 51.613 46.3792 51.146" fill="#E0A550"/>
<g style="mix-blend-mode:multiply" opacity="0.57">
<path d="M47.81 54.2797C47.9826 53.1368 48.069 52.4732 47.921 51.6007C47.7976 50.9003 47.662 50.2121 47.2303 49.7083C47.0947 49.8557 46.6507 50.3718 46.33 51.1583C46.7987 51.6253 46.9343 52.3135 47.0577 53.0016C47.2057 53.825 47.1193 54.4517 46.9467 55.5454C46.7863 56.5408 46.663 57.3518 46.2684 58.3718C46.0217 58.9985 45.7997 59.5515 45.5037 60.0554C45.5284 60.0554 45.5531 60.0554 45.5901 60.0554C46.3547 59.2689 46.7123 58.3595 47.1193 57.2535C47.5263 56.1844 47.6496 55.3242 47.81 54.2797Z" fill="#CC8C3F"/>
</g>
<path d="M41.817 61.6282C40.3497 61.8985 39.9058 61.7756 39.7208 61.5176C39.5359 61.2595 39.6468 60.8786 39.7825 60.4485C40.0167 59.6374 40.3867 59.3793 40.6826 58.7526C40.9292 58.2488 40.9538 57.7818 41.0278 56.8356C41.1388 55.1766 40.8305 54.8817 40.9662 53.8986C41.0648 53.2227 41.3114 52.6574 41.558 52.2273L41.0648 52.3379C40.9169 52.5099 40.0784 53.4439 39.8811 54.8202C39.7331 55.8033 40.0537 56.0982 39.9428 57.7572C39.8811 58.7035 39.8441 59.1704 39.5975 59.6743C39.3016 60.301 38.9317 60.5591 38.6974 61.3701C38.5741 61.8002 38.4631 62.1812 38.6358 62.4392C38.8084 62.6973 39.2523 62.8202 40.7319 62.5498C42.7541 62.1812 43.7651 61.9968 44.6406 61.2472C44.8379 61.0752 44.9858 60.9031 45.1461 60.7188C44.3693 61.1612 43.4076 61.3455 41.817 61.6282Z" fill="#EDB572"/>
<path d="M40.7566 57.143C40.3743 56.8235 40.4483 55.9018 40.8675 55.3365C41.7306 54.1691 44.2707 54.2551 44.8872 55.3365C45.2078 55.9018 45.0352 56.8481 44.5419 57.143C44.135 57.4011 43.8021 57.0078 42.791 56.9709C41.6073 56.9341 41.1265 57.4379 40.7566 57.143Z" fill="#8D2543"/>
<path d="M39.5236 63.5574C39.4866 63.5574 39.4496 63.5328 39.4373 63.4959C39.3263 63.2379 39.092 62.562 39.3756 61.8492C39.4743 61.6035 39.61 61.3946 39.795 61.1979C39.832 61.1611 39.8936 61.1611 39.9306 61.1979C39.9676 61.2348 39.9676 61.2962 39.9306 61.3331C39.7703 61.5052 39.6346 61.7018 39.5483 61.923C39.2893 62.5743 39.499 63.1887 39.5976 63.4345C39.6223 63.4836 39.5976 63.5328 39.5483 63.5574C39.5483 63.5451 39.536 63.5574 39.5236 63.5574Z" fill="#8D2543"/>
<path d="M41.4964 63.5574C41.4594 63.5574 41.4224 63.5328 41.4101 63.4959C41.2991 63.2379 41.0648 62.562 41.3484 61.8492C41.4471 61.6158 41.5828 61.3946 41.7678 61.1979C41.8048 61.1611 41.8664 61.1611 41.9034 61.1979C41.9404 61.2348 41.9404 61.2962 41.9034 61.3331C41.7431 61.5052 41.6074 61.7018 41.5211 61.923C41.2621 62.5743 41.4718 63.1887 41.5828 63.4345C41.6074 63.4836 41.5828 63.5328 41.5334 63.5574C41.5211 63.5451 41.5088 63.5574 41.4964 63.5574Z" fill="#8D2543"/>
<g style="mix-blend-mode:multiply" opacity="0.57">
<path d="M40.9045 44.1657C40.7196 44.1411 40.8675 45.0136 40.6826 45.0013C40.0661 50.4206 34.1722 54.6725 26.996 54.6725C25.3561 54.6725 23.8025 54.4391 22.3352 54.0335C21.9899 54.181 21.694 54.3899 21.4474 54.6725C21.1638 55.0043 20.9912 55.373 20.8925 55.7417C20.9788 55.7662 21.0651 55.7908 21.1515 55.8154C21.9283 55.2501 22.9023 54.906 23.9628 54.906C25.541 54.906 26.9343 55.6434 27.7358 56.7493C35.2696 56.4298 41.2621 51.6249 41.2621 45.7263C41.2621 45.5051 40.9169 44.3869 40.9045 44.1657Z" fill="#CC8C3F"/>
</g>
<path d="M28.8702 30.6849V33.5481C29.3882 33.585 29.8938 33.6587 30.3995 33.7448C30.4241 32.7985 30.4858 31.8646 30.6091 30.9429C30.6091 30.9183 30.6215 30.8938 30.6215 30.8569C30.0542 30.7586 29.4745 30.6726 28.8702 30.6234V30.6849Z" fill="#5F1532"/>
<path d="M20.4611 29.0259C20.4364 29.1119 20.4118 29.1856 20.3871 29.2717C20.1774 29.9598 20.0048 30.6726 19.8568 31.4099C20.2268 31.7294 20.5474 32.0366 20.8187 32.2947L20.8064 32.2701C20.8064 32.2701 21.0161 31.2747 21.2997 30.1442C21.3244 30.0581 21.3491 29.9598 21.3737 29.8738C21.2011 29.714 21.0284 29.542 20.8681 29.3945C20.7324 29.2839 20.5968 29.1488 20.4611 29.0259Z" fill="#5F1532"/>
<path d="M40.1528 27.8341C40.0295 27.8095 39.9061 27.8095 39.7828 27.7972C39.3635 27.7972 38.8825 27.871 38.3769 28.0061C38.3892 28.0307 38.4015 28.0553 38.4015 28.0799C38.4509 28.2396 38.5002 28.3871 38.5002 28.51C38.5125 28.6452 38.5125 28.8172 38.5125 28.977C38.5125 29.5054 38.4632 30.1813 38.3892 30.9063C38.7592 30.808 39.1045 30.7465 39.4375 30.722C39.5485 29.6651 39.7335 28.7681 40.0295 28.0799C40.0665 27.9939 40.1035 27.9078 40.1528 27.8341Z" fill="#5F1532"/>
<path d="M65.6884 28.0676C58.6478 24.5407 49.0918 23.828 41.1388 26.851C38.3152 27.9202 39.7455 38.2058 39.0303 43.5391C46.7614 36.3379 59.0177 36.0553 67.4023 40.6636C68.0188 37.788 68.2407 32.6759 66.1323 28.1536C66.1569 28.2151 66.1816 28.2888 66.2062 28.3503C66.0336 28.2519 65.8363 28.1536 65.6884 28.0676Z" fill="#E0A550"/>
<path d="M48.4137 35.5145C48.6479 35.453 48.8082 35.2564 48.8329 35.0229C49.0055 33.1796 49.585 30.3532 48.6479 28.4362C48.5616 28.2641 48.4753 28.129 48.389 27.9938C46.8724 28.2273 45.3804 28.6082 43.9501 29.1489C42.4828 29.7019 42.5198 33.5114 42.5198 37.1735C42.5198 37.6281 43.013 37.8862 43.4076 37.6527C44.9735 36.7065 46.6628 36.006 48.4137 35.5145Z" fill="white"/>
<path d="M55.257 28.166C55.0967 28.0431 54.9734 27.9571 54.8131 27.8342C53.5431 27.699 52.2607 27.6622 50.9784 27.7236C50.6701 27.7359 50.4358 28.0308 50.5098 28.3381C50.9414 30.1322 51.0277 32.5531 50.7318 34.3473C50.6824 34.6791 50.966 34.9494 51.299 34.9125C52.5566 34.7405 53.839 34.6668 55.109 34.7036C55.3803 34.7159 55.6145 34.507 55.6269 34.2244C55.6762 32.4548 55.8981 29.9479 55.257 28.166Z" fill="white"/>
<path d="M63.1117 30.2795C62.9761 30.2058 62.8281 30.1321 62.7048 30.0706C62.2361 29.8371 61.7551 29.6159 61.2618 29.4193C61.6195 31.3364 61.8291 33.7941 61.7675 35.4777C61.7551 35.6866 61.8908 35.8586 62.0881 35.9323C62.8651 36.1904 63.6297 36.473 64.345 36.8048C64.5917 30.7588 63.0871 30.2304 63.1117 30.2795Z" fill="white"/>
<path d="M60.7933 35.06C60.7563 33.2782 60.7563 30.8696 60.2014 29.186C60.1151 29.1 60.0411 29.0263 59.9548 28.9402C59.0424 28.633 58.1053 28.3872 57.1558 28.1906C56.9092 28.1415 56.675 28.3627 56.7243 28.6084C57.0449 30.5132 57.1312 32.848 56.9216 34.4333C56.8969 34.6299 57.0325 34.8142 57.2421 34.8388C58.3026 34.9617 59.3383 35.146 60.3617 35.3918C60.5836 35.4655 60.8056 35.2935 60.7933 35.06Z" fill="white"/>
<path d="M40.362 31.2381C38.8824 30.2673 35.2326 32.2703 33.5187 33.2043C32.8529 33.5729 32.1131 33.9785 31.4966 34.4209C30.0293 34.0153 28.4633 33.7818 26.8111 33.7818C25.0848 33.7818 23.4449 34.0399 21.9283 34.4823C21.4227 33.831 20.7446 33.1797 20.128 32.6144C18.7594 31.3364 15.8494 28.596 14.4438 29.3948C13.1368 30.1444 14.4068 33.2534 15.4672 38.3901C13.9506 40.0983 13.0505 42.1628 13.0505 44.387C13.0505 50.2488 19.2033 54.9922 26.7987 54.9922C34.3942 54.9922 40.547 50.2488 40.547 44.387C40.547 42.2242 39.6962 40.2089 38.2535 38.5253C40.0661 34.47 41.669 32.086 40.362 31.2381Z" fill="#E0A550"/>
<path opacity="0.57" d="M27.5385 54.2794C19.9431 54.2794 13.7903 49.5359 13.7903 43.6742C13.7903 41.4499 14.6781 39.3854 16.207 37.6773C15.3316 33.4377 14.3082 30.5744 14.7274 29.2841C14.6411 29.3086 14.5548 29.3332 14.4808 29.3824C13.1738 30.132 14.4438 33.241 15.5042 38.3777C13.9876 40.0859 13.0875 42.1504 13.0875 44.3746C13.0875 50.2364 19.2403 54.9798 26.8357 54.9798C31.4472 54.9798 35.5162 53.2225 38.0069 50.5436C35.4792 52.8293 31.7308 54.2794 27.5385 54.2794Z" fill="#CC8C3F"/>
<path d="M34.6407 37.3826C35.3066 34.6177 37.0575 32.1599 39.9181 31.0171C38.2289 30.6484 35.1463 32.332 33.605 33.1676C32.9392 33.5363 32.1994 33.9418 31.5828 34.3842C30.1155 33.9787 28.5496 33.7452 26.8973 33.7452C25.1711 33.7452 23.5312 34.0032 22.0146 34.4456C21.509 33.7943 20.8308 33.143 20.2143 32.5778C18.969 31.4103 16.4536 29.0632 14.9493 29.2598C17.2181 30.9433 18.4141 33.6592 18.5744 36.4364C18.6607 36.4364 18.7347 36.4241 18.821 36.4241C23.6791 36.4241 24.8505 39.3734 25.8986 42.9617C27.033 42.4702 30.1155 42.1753 31.6198 42.1753C32.0391 42.1753 31.2376 42.1384 31.6198 42.1753C31.8171 40.4057 32.187 35.7114 34.6407 37.3826Z" fill="#8D2543"/>
<path d="M35.0723 36.0307C35.9231 33.831 37.526 31.9632 39.9181 31.0046C38.2289 30.636 35.1463 32.3195 33.605 33.1552C32.9392 33.5238 32.1994 33.9294 31.5829 34.3718" fill="#75203D"/>
<path opacity="0.09" d="M14.4931 30.0461C14.6411 29.9601 14.8137 29.9232 14.9987 29.9232C14.9987 29.9232 14.9987 29.9232 14.9863 29.9232C15.0356 29.9109 15.0973 29.9232 15.1466 29.9232C15.0973 29.9232 15.048 29.9355 14.9863 29.9355C17.1934 31.5945 18.3895 34.212 18.5868 36.9278C25.1095 31.8771 39.6715 34.8264 40.5716 44.6574C40.5223 34.384 25.2328 31.0292 18.5991 36.2396C18.3895 33.5238 17.2058 30.894 14.9987 29.2473C14.1109 29.2965 13.8766 29.9846 13.9506 31.0415C13.9999 30.5622 14.1602 30.2304 14.4931 30.0461Z" fill="white"/>
<path d="M17.0331 45.2597C17.0331 45.2597 20.9295 46.9924 26.2932 47.6314C28.229 47.8649 31.3239 48.2213 34.5298 46.7835C37.1068 45.6284 38.944 44.2397 38.944 44.2397C38.944 44.2397 38.6111 46.7221 37.3288 48.295C34.9244 51.2566 31.2253 51.8711 29.8566 52.1045C28.488 52.338 25.615 52.4363 22.964 51.527C22.5078 51.3672 20.0664 50.507 17.9702 47.4594C17.3414 46.5377 17.0331 45.2597 17.0331 45.2597Z" fill="#F2F1F0"/>
<path d="M37.3288 47.7667C34.9244 50.7283 31.2253 51.3427 29.8566 51.5762C28.488 51.8097 25.615 51.908 22.964 50.9986C22.5078 50.8389 20.0664 49.9787 17.9702 46.9311C17.625 46.4149 17.3784 45.8128 17.2181 45.3581C17.0948 45.3089 17.0331 45.2844 17.0331 45.2844C17.0331 45.2844 17.3291 46.5501 17.9702 47.4841C20.0541 50.5439 22.4955 51.4042 22.964 51.5516C25.615 52.461 28.488 52.3627 29.8566 52.1292C31.2129 51.908 34.9244 51.2936 37.3288 48.3197C38.6111 46.7344 38.944 44.2644 38.944 44.2644C38.944 44.2644 38.8947 44.3013 38.8207 44.3504C38.6358 45.1738 38.2042 46.673 37.3288 47.7667Z" fill="#E5E3E2"/>
<path d="M34.4188 46.7836C31.2253 48.2213 28.1304 47.865 26.1822 47.6315C23.5682 47.3243 21.3117 46.759 19.6718 46.2551C21.1514 47.3857 22.4215 47.8035 22.7544 47.9141C25.6643 48.8235 28.8209 48.7252 30.3252 48.4917C31.8171 48.2705 35.8861 47.6561 38.5248 44.6822C38.6358 44.5593 38.7221 44.4364 38.8207 44.3135C38.8207 44.2767 38.8331 44.2521 38.8331 44.2521C38.8331 44.2521 36.9958 45.6284 34.4188 46.7836Z" fill="#E5E3E2"/>
<path d="M18.9567 48.737C18.9567 48.737 18.821 48.0734 19.043 47.25C19.1293 46.9551 19.6597 46.2178 19.6597 46.2178" fill="white"/>
<path d="M18.9197 48.7372C18.9197 48.7126 18.784 48.0613 19.0183 47.2257C19.1047 46.9308 19.6226 46.2057 19.6473 46.1812L19.7213 46.2426C19.7213 46.2549 19.191 46.9799 19.1047 47.2626C18.8827 48.0736 19.006 48.7249 19.0183 48.7249L18.9197 48.7372Z" fill="#999999"/>
<path d="M24.2588 47.349C23.7161 48.7008 23.5805 50.1877 23.8888 51.6132L23.9258 51.7975" fill="white"/>
<path d="M23.8888 51.8221L23.8518 51.6377C23.5435 50.1999 23.6668 48.713 24.2218 47.3367L24.3081 47.3735C23.7655 48.7253 23.6422 50.1877 23.9381 51.6131L23.9751 51.7975L23.8888 51.8221Z" fill="#999999"/>
<path d="M29.8196 47.8403L29.9306 49.0201C29.98 49.5608 29.98 50.1015 29.943 50.6422L29.832 52.1291" fill="white"/>
<path d="M29.869 52.1413L29.7703 52.1291L29.8813 50.6421C29.9183 50.1014 29.9183 49.5607 29.869 49.02L29.758 47.8403L29.8567 47.828L29.9677 49.0077C30.017 49.5484 30.017 50.1014 29.98 50.6421L29.869 52.1413Z" fill="#999999"/>
<path d="M34.6654 46.6482V46.6605C35.0231 47.9262 35.0231 49.2657 34.6654 50.5314V50.5437" fill="white"/>
<path d="M34.7024 50.5559L34.6161 50.5313V50.519C34.9614 49.2656 34.9614 47.9384 34.6161 46.6849V46.6727L34.7024 46.6481V46.6604C35.0601 47.9384 35.0601 49.2779 34.7024 50.5559Z" fill="#999999"/>
<path d="M38.1549 44.7435C38.1549 44.7435 38.3152 45.5669 38.3152 45.8495C38.3152 46.1322 38.1549 46.9555 38.1549 46.9555" fill="white"/>
<path d="M38.2042 46.9555L38.1056 46.931C38.1056 46.9187 38.2659 46.1076 38.2659 45.8373C38.2659 45.5669 38.1056 44.7559 38.1056 44.7436L38.2042 44.719C38.2166 44.7559 38.3646 45.5546 38.3646 45.825C38.3646 46.1322 38.2042 46.9187 38.2042 46.9555Z" fill="#999999"/>
<path d="M15.7755 41.3028C15.3316 40.6638 9.30208 37.5179 8.51294 37.5179V37.4196C9.30208 37.4196 15.4056 40.6023 15.8494 41.2536L15.7755 41.3028Z" fill="#22211E"/>
<path d="M16.133 42.679C15.0849 42.1261 13.9752 41.7328 12.8285 41.4993C11.0653 41.143 9.27739 41.1675 7.50183 41.5853L7.47717 41.487C9.26506 41.0692 11.0776 41.0446 12.8408 41.401C13.9999 41.6345 15.1096 42.04 16.17 42.593L16.133 42.679Z" fill="#22211E"/>
<path d="M7.68683 44.7068L7.64984 44.6208C8.41432 44.2399 9.21579 43.9572 10.0419 43.7729C11.6942 43.4042 13.4697 43.4657 15.159 43.9449L15.1343 44.0432C13.4574 43.5763 11.7065 43.5148 10.0666 43.8712C9.24045 44.0432 8.43898 44.3259 7.68683 44.7068Z" fill="#22211E"/>
<path d="M38.7714 41.5608L38.6974 41.5117C39.3509 40.5531 40.51 39.2137 42.3718 38.2797C43.5186 37.7022 44.7516 37.3581 46.0463 37.2598L46.0586 37.3581C44.7762 37.4564 43.5555 37.8005 42.4212 38.3658C40.5716 39.2874 39.4249 40.6146 38.7714 41.5608Z" fill="#22211E"/>
<path d="M39.3509 42.765L39.3016 42.679C40.7689 41.9171 42.3472 41.4009 43.9871 41.1552C45.5654 40.9094 47.1683 40.9094 48.7589 41.1552L48.7466 41.2535C47.1683 41.0077 45.5777 41.0077 44.0118 41.2535C42.3842 41.4992 40.8182 42.0031 39.3509 42.765Z" fill="#22211E"/>
<path d="M47.8835 45.8863C46.7368 45.3455 45.5407 44.8909 44.32 44.5345C42.8281 44.1044 41.2991 43.8217 39.7455 43.6866L39.7578 43.5883C41.3115 43.7234 42.8527 44.0061 44.357 44.4362C45.5777 44.7926 46.7861 45.2472 47.9328 45.7879L47.8835 45.8863Z" fill="#22211E"/>
<path d="M25.1095 43.0968C25.4177 42.1014 24.9245 41.2044 24.6039 40.6022C24.1231 39.7051 23.2599 38.1322 21.6693 38.0216C19.9431 37.8987 18.2169 39.5577 18.2292 41.106C18.2292 41.8311 18.6238 42.3718 18.9567 42.8388C19.1416 43.0968 20.1157 44.4117 21.8913 44.6944C22.4215 44.7804 23.3586 44.9278 24.1847 44.3503C24.2957 44.2888 24.8752 43.871 25.1095 43.0968Z" fill="#EBDE55"/>
<path d="M32.3227 42.2982C32.0021 41.3274 32.8899 40.3074 33.5064 39.5947C34.1599 38.8451 34.7641 38.1446 35.7505 38.0709C35.8738 38.0586 36.8109 38.0094 37.4891 38.6607C38.6481 39.7667 37.8836 41.7452 37.8343 41.8804C37.7357 42.1262 37.3781 42.9495 36.478 43.4902C36.256 43.6131 35.5902 43.9941 34.6901 43.908C33.938 43.8343 33.4324 43.4902 33.2475 43.355C32.9639 43.1461 32.4953 42.8143 32.3227 42.2982Z" fill="#EBDE55"/>
<path d="M24.3943 43.9326C23.5682 44.5102 22.6311 44.3504 22.1009 44.2767C20.3377 43.994 19.3512 42.6669 19.1663 42.4211C18.8334 41.9541 18.4511 41.4134 18.4388 40.6884C18.4388 40.3934 18.5128 40.0862 18.6361 39.8036C18.3772 40.2337 18.2169 40.7007 18.2169 41.1553C18.2169 41.8804 18.6114 42.4211 18.9443 42.8881C19.1293 43.1461 20.1034 44.461 21.8789 44.7437C22.4091 44.8297 23.3462 44.9771 24.1724 44.3996C24.2833 44.3258 24.8012 43.9326 25.0602 43.2444C24.7889 43.6377 24.4806 43.8712 24.3943 43.9326Z" fill="#CCBA3A"/>
<path d="M36.6999 43.0477C36.478 43.1706 35.8122 43.5515 34.912 43.4655C34.1599 43.3918 33.6544 43.0477 33.4694 42.9125C33.1735 42.7036 32.7049 42.3718 32.5323 41.8557C32.4213 41.4993 32.4583 41.1429 32.5939 40.7988C32.3104 41.2904 32.1377 41.8065 32.3104 42.3226C32.483 42.8388 32.9392 43.1706 33.2475 43.3795C33.4324 43.5146 33.9379 43.8587 34.6901 43.9325C35.5902 44.0185 36.256 43.6375 36.478 43.5146C37.3904 42.9862 37.7357 42.1506 37.8343 41.9048V41.8925C37.637 42.2489 37.2795 42.7036 36.6999 43.0477Z" fill="#CCBA3A"/>
<g opacity="0.51">
<path d="M21.6693 38.9678C23.2599 39.0784 24.1107 40.6514 24.6039 41.5484C24.8012 41.9048 25.0478 42.3718 25.1588 42.9002C25.3438 41.9785 24.9122 41.1675 24.6039 40.6022C24.1231 39.7051 23.2599 38.1322 21.6693 38.0216C19.9431 37.8987 18.2169 39.5577 18.2292 41.106C18.2292 41.2658 18.2539 41.4256 18.2908 41.573C18.5868 40.1844 20.1281 38.8572 21.6693 38.9678Z" fill="#FFF28B"/>
<path d="M32.3473 42.3347C32.5446 41.6711 33.0871 41.0321 33.5187 40.5406C34.1722 39.7909 34.7764 39.0905 35.7628 39.0167C35.8861 39.0045 36.8232 38.9553 37.5014 39.6066C37.8713 39.963 38.0316 40.4054 38.0932 40.8478C38.1919 40.1596 38.1425 39.2748 37.5014 38.6604C36.8109 38.0091 35.8861 38.0582 35.7628 38.0705C34.7641 38.1442 34.1599 38.8447 33.5187 39.5943C32.9022 40.3071 32.0144 41.3393 32.335 42.2978C32.335 42.3101 32.3473 42.3224 32.3473 42.3347Z" fill="#FFF28B"/>
</g>
<path d="M22.3845 39.2998C22.5449 39.2015 22.9272 39.521 23.1492 39.7791C24.1728 40.9834 23.8521 43.4166 23.0382 43.6992C22.7298 43.8098 22.2859 43.6132 22.1872 43.3551C22.0885 43.0971 22.4092 42.925 22.5818 42.4212C22.6188 42.3106 22.6928 42.0525 22.4955 40.7008C22.3475 39.7299 22.2365 39.3859 22.3845 39.2998Z" fill="#22211E"/>
<path d="M35.9356 39.1888C35.652 39.1397 35.2573 39.6927 35.171 40.2334C35.097 40.6389 35.2697 40.6758 35.282 41.2534C35.3067 42.0767 34.986 42.3839 35.2203 42.8017C35.2327 42.8263 35.4177 43.1458 35.6767 43.1458C36.0343 43.1335 36.2686 42.4699 36.355 42.2487C36.6386 41.45 36.503 40.7495 36.4166 40.3071C36.318 39.7787 36.1946 39.238 35.9356 39.1888Z" fill="#22211E"/>
<path d="M30.5225 44.7435C30.7444 44.6329 30.7074 44.5223 30.9294 44.3871C31.3116 44.1659 31.6692 44.3626 31.7678 44.2028C31.8665 44.0553 31.6569 43.699 31.3733 43.4655C30.7691 42.9616 29.906 43.1214 29.0305 43.2812C28.3893 43.3918 27.7975 43.5146 27.6742 43.9079C27.6249 44.0799 27.6618 44.3134 27.7975 44.4363C28.0194 44.6206 28.303 44.3134 28.8209 44.4117C29.2155 44.4732 29.1908 44.6698 29.684 44.7927C29.8936 44.8295 30.2142 44.9033 30.5225 44.7435Z" fill="#331F11"/>
</g>
<defs>
<filter id="filter0_d_1628_97138" x="0.399994" y="13.2" width="83.2" height="56.8" filterUnits="userSpaceOnUse" color-interpolation-filters="sRGB">
<feFlood flood-opacity="0" result="BackgroundImageFix"/>
<feColorMatrix in="SourceAlpha" type="matrix" values="0 0 0 0 0 0 0 0 0 0 0 0 0 0 0 0 0 0 127 0" result="hardAlpha"/>
<feOffset dy="2"/>
<feGaussianBlur stdDeviation="2"/>
<feComposite in2="hardAlpha" operator="out"/>
<feColorMatrix type="matrix" values="0 0 0 0 0 0 0 0 0 0 0 0 0 0 0 0 0 0 0.25 0"/>
<feBlend mode="normal" in2="BackgroundImageFix" result="effect1_dropShadow_1628_97138"/>
<feBlend mode="normal" in="SourceGraphic" in2="effect1_dropShadow_1628_97138" result="shape"/>
</filter>
</defs>
</svg>
