<svg width="85" height="80" viewBox="0 0 85 80" fill="none" xmlns="http://www.w3.org/2000/svg">
<g filter="url(#filter0_d_1628_97072)">
<path d="M71.274 21.8009C71.1878 21.4735 70.9419 21.212 70.6204 21.1059L62.0125 18.2644C62.0113 18.264 62.0102 18.2637 62.009 18.2633C56.0875 16.2627 49.6133 16.9579 44.2439 20.1188C41.8521 17.1358 37.458 15.0175 32.9335 13.6739C28.054 12.225 22.7492 11.5974 18.9709 11.8574L7.01361 12.61C6.67885 12.631 6.37696 12.8185 6.20967 13.1093C6.04582 13.394 6.03248 13.7406 6.17294 14.0366C6.17533 14.0452 6.18075 14.0648 6.18992 14.1015C6.19097 14.1057 6.1921 14.1103 6.19333 14.1152C6.20318 14.155 6.21896 14.2188 6.2437 14.2956V14.6953C6.2437 16.5671 5.38126 18.3361 3.83666 19.3892C3.46726 19.6411 3.30993 20.1075 3.45131 20.5317L3.61705 21.0289C6.94428 31.3442 9.44135 41.9964 11.1901 52.7364L13.4472 68.1181C13.4912 68.4181 13.669 68.682 13.9306 68.8354C14.1921 68.9889 14.5092 69.0154 14.7926 68.9074C21.6681 66.2881 30.7336 65.1274 38.1677 65.2926L38.1899 65.2928C39.8542 65.2928 41.5394 65.5307 43.2695 65.8601C43.2703 65.8603 43.2711 65.8605 43.272 65.8606L52.2158 67.616C52.2792 67.6284 52.3437 67.6347 52.4084 67.6347H52.492C52.6116 67.6347 52.7301 67.6133 52.8421 67.5714L61.1223 64.4768L61.1233 64.4764C65.709 62.7568 72.2399 61.66 77.2111 63.1593C77.5464 63.2604 77.9102 63.1787 78.1702 62.944L80.5136 60.8273C80.7253 60.7718 80.9155 60.6476 81.0519 60.4705C81.2413 60.2249 81.3059 59.9053 81.227 59.6054L71.274 21.8009Z" stroke="white" stroke-width="2" stroke-linejoin="round" shape-rendering="crispEdges"/>
</g>
<path d="M7.07645 13.608C12.5966 28.7465 16.2767 44.3869 18.1167 60.3618L18.2003 61.4491C25.7278 58.3545 34.0916 57.6018 42.0373 59.1072L54.1648 61.7L43.8773 21.3027C39.779 15.2808 26.3133 12.3534 19.0367 12.8553L7.07645 13.608Z" fill="#F8F4E2"/>
<path d="M7.24376 13.7753V14.6953C7.24376 16.8699 6.2401 18.9608 4.40005 20.2154L4.56733 20.7172C7.91286 31.0884 10.422 41.7941 12.1784 52.5834L14.4367 67.9729L18.3677 61.4491L18.2004 60.5291C16.3603 44.5542 12.6802 28.8302 7.24376 13.7753Z" fill="#CBC7B7"/>
<path d="M11.6766 33.4304C10.2548 27.9939 8.66565 22.641 6.74197 17.4554" stroke="#A7A28A" stroke-width="0.7" stroke-miterlimit="10" stroke-linecap="round" stroke-linejoin="round"/>
<path d="M10.5056 35.3539C9.16737 30.0011 7.4946 24.6482 5.57092 19.379" stroke="#A7A28A" stroke-width="0.7" stroke-miterlimit="10" stroke-linecap="round" stroke-linejoin="round"/>
<path d="M42.2882 59.1072C34.2589 57.5181 26.0624 58.3544 18.4513 61.3654L18.2004 61.7L14.4366 67.9728C21.4623 65.2964 30.6625 64.1255 38.1899 64.2927C39.9463 64.2927 41.7027 64.5437 43.4591 64.8782L52.4921 66.7183L54.1648 61.7L42.2882 59.1072Z" fill="#B5B19F"/>
<path d="M24.0551 61.4491C21.7132 61.9509 19.3713 62.7037 17.1967 63.5401" stroke="#A7A28A" stroke-width="0.7" stroke-miterlimit="10" stroke-linecap="round" stroke-linejoin="round"/>
<path d="M23.2187 63.2054C20.8769 63.7073 18.535 64.46 16.3604 65.2964" stroke="#A7A28A" stroke-width="0.7" stroke-miterlimit="10" stroke-linecap="round" stroke-linejoin="round"/>
<path d="M43.961 21.47C49.2302 18.0409 55.754 17.2045 61.6923 19.2118L70.3071 22.0555L80.26 59.9437L76.0781 59.2746C70.1398 58.3545 64.0342 58.7727 58.1795 60.4455L53.9976 61.7001L43.961 21.47Z" fill="#DFD8B5"/>
<path d="M80.1763 59.86L75.9944 59.1909C70.056 58.2708 64.0341 58.689 58.263 60.3618L54.0811 61.6164L52.4084 66.7183L60.7722 63.6237C65.4559 61.8673 72.2306 60.6963 77.4998 62.2855L80.1763 59.86Z" fill="#ABA691"/>
<path d="M69.7216 54.4234C69.5543 54.4234 69.387 54.3398 69.3034 54.0889L62.1941 30.5865C61.4414 28.0774 61.0232 25.4846 60.7723 22.8918L60.6887 21.4699C60.6887 21.219 60.8559 21.0518 61.1069 21.0518C61.3578 21.0518 61.525 21.219 61.525 21.4699L61.6087 22.8918C61.776 25.4009 62.2778 27.9937 62.9469 30.4192L70.0561 53.9216C70.1398 54.1725 69.9725 54.3398 69.7216 54.4234Z" fill="#373737"/>
<path d="M65.8742 42.5468L62.3614 30.7538C61.6923 28.2447 61.1904 25.7355 61.0231 23.1427L60.9395 21.7209C56.0885 20.0481 50.7356 20.8009 46.3864 23.6446L48.9792 34.183C51.8229 35.4376 54.6666 36.6921 57.5103 37.9467C60.354 39.1177 63.1141 40.7904 65.8742 42.5468Z" fill="#D8B45C"/>
<path d="M69.0524 52.1652C68.9688 52.1652 68.9688 52.1652 68.8851 52.1652C68.6342 52.0816 68.5506 51.8307 68.6342 51.6634L69.3033 49.6561C69.3033 49.5725 69.3869 49.5725 69.3869 49.4888L70.8924 47.9833L70.307 46.0596L69.3033 44.0523C69.2197 43.885 69.2197 43.7178 69.3869 43.5505L71.9797 41.2086L70.1397 40.5395C70.0561 40.5395 70.0561 40.4559 69.9724 40.4559L67.9651 38.7831L67.8815 38.6995L67.1287 37.2776C67.0451 37.1103 67.0451 36.9431 67.2123 36.7758L69.2197 34.7685L67.8815 31.4229L65.205 31.0047C64.9541 31.0047 64.7868 30.7538 64.8705 30.5029C64.8705 30.252 65.1214 30.0847 65.3723 30.1684L68.2996 30.6702C68.4669 30.6702 68.5506 30.7538 68.6342 30.9211L70.1397 34.6848C70.2233 34.8521 70.1397 35.0194 70.0561 35.103L68.0487 37.1103L68.6342 38.1976L70.6415 39.954L72.9834 40.7068C73.1507 40.7904 73.2343 40.8741 73.2343 41.0413C73.2343 41.2086 73.2343 41.3759 73.1507 41.4595L70.307 44.136L71.227 45.976L71.8961 48.067C71.9797 48.2342 71.8961 48.4015 71.8125 48.4852L70.2233 50.0743L69.5542 51.998C69.3033 52.0816 69.2197 52.1652 69.0524 52.1652Z" fill="#373737"/>
<path d="M54.8339 56.6816C54.7503 56.6816 54.6666 56.6816 54.6666 56.598C54.583 56.5144 54.4993 56.4307 54.4993 56.3471L46.2192 23.31C46.1355 23.1427 46.2192 22.9754 46.3864 22.8918C50.8193 20.0481 56.2557 19.4626 61.274 21.1354L68.3833 23.4772C68.5506 23.5609 68.6342 23.6445 68.6342 23.7282L76.7471 54.8416C76.7471 55.0089 76.7471 55.0925 76.6635 55.2598C76.5799 55.4271 76.4126 55.4271 76.3289 55.4271L72.8998 54.8416C68.1324 54.0889 63.0305 54.4234 58.4303 55.7616L54.8339 56.6816C54.8339 56.6816 54.9175 56.6816 54.8339 56.6816ZM47.0555 23.4772L55.0848 55.8453L58.1794 55.0089C62.9468 53.587 68.1324 53.2525 73.067 54.0889L75.9108 54.5907L67.9651 24.0627L61.1068 21.8045C56.3394 20.2153 51.2375 20.8845 47.0555 23.4772Z" fill="#373737"/>
<path d="M66.6269 42.7142C63.6995 40.7905 60.7722 39.1177 57.6776 37.6959C54.8339 36.4413 51.9065 35.1867 49.0628 33.9321L54.6666 56.3472L58.0958 55.3435C61.5249 54.3399 66.0414 53.9217 69.6379 54.089C68.6342 50.3252 67.5469 46.227 66.6269 42.7142Z" fill="#373737"/>
<path d="M63.5323 35.6049C64.9541 35.354 65.7905 33.0958 65.3723 30.503C64.9541 27.9102 63.365 26.0702 61.9432 26.3211C60.5213 26.572 59.6849 28.8302 60.1031 31.423C60.5213 34.0158 62.1104 35.8559 63.5323 35.6049Z" fill="#E2DECC"/>
<path d="M63.2814 36.1067C61.6923 36.1067 60.1868 34.183 59.7686 31.5066C59.5177 30.1683 59.6013 28.9138 60.0195 27.9101C60.4377 26.8228 61.1068 26.0701 61.9432 25.9028C62.7796 25.7355 63.6996 26.1537 64.3687 27.0737C65.0378 27.9101 65.5397 29.081 65.7906 30.4193C66.0415 31.6738 65.9578 33.012 65.5397 34.0157C65.1215 35.103 64.4524 35.8557 63.616 36.023C63.5323 36.023 63.3651 36.1067 63.2814 36.1067ZM62.1941 26.7392C62.1105 26.7392 62.0268 26.7392 62.0268 26.7392C61.4414 26.8228 61.0232 27.4083 60.6886 28.161C60.3541 28.9974 60.2704 30.1683 60.5214 31.4229C60.9395 33.6812 62.2778 35.5212 63.5323 35.2703C64.1178 35.1866 64.536 34.6012 64.8706 33.8484C65.2051 33.012 65.2887 31.8411 65.0378 30.5865C64.7869 29.4156 64.3687 28.4119 63.7833 27.5756C63.1978 26.9901 62.6123 26.7392 62.1941 26.7392Z" fill="#373737"/>
<path d="M64.5361 38.5322L55.7541 37.5286C55.5868 37.5286 55.4195 37.3613 55.5031 37.194C55.5031 37.0268 55.6704 36.9431 55.8377 36.9431L64.6197 37.9468C64.787 37.9468 64.9543 38.1141 64.8706 38.2813C64.8706 38.365 64.7034 38.5322 64.5361 38.5322Z" fill="#373737"/>
<path d="M29.3243 52.3326C31.3316 49.2379 34.4262 47.0634 37.2699 44.8888C39.0263 43.5505 40.6154 42.296 42.4555 41.0414C43.041 40.6232 43.4591 40.2887 44.0446 39.8705C44.881 39.285 46.0519 38.1141 46.5538 37.6959C46.5538 37.6122 46.4701 37.5286 46.4701 37.3613C46.3028 36.6922 46.1356 36.1067 45.9683 35.5213C44.881 31.0048 43.7937 26.4883 42.6228 21.9719C42.5391 21.8882 42.4555 21.8046 42.4555 21.7209L44.9646 31.8412C40.7827 27.4084 30.5788 25.2338 24.8078 25.6519L15.273 26.3211C17.9495 35.6049 19.9568 45.1397 21.0441 54.8417L21.1277 55.6781C23.5532 54.6744 26.146 53.9217 28.7388 53.5871C28.9061 53.1689 28.9897 52.6671 29.3243 52.3326Z" fill="#D8B45C"/>
<path d="M30.6625 53.9217C30.6625 53.9217 30.5789 53.9217 30.4952 53.9217C30.2443 53.8381 30.1607 53.5872 30.2443 53.4199C31.1643 50.5762 36.0154 47.3143 40.2809 44.387C43.1246 42.3796 45.801 40.6232 46.6374 39.3687C46.8047 39.2014 47.0556 39.1178 47.2229 39.285C47.3902 39.4523 47.4738 39.7032 47.3065 39.8705C46.3865 41.2923 43.7937 43.0488 40.6991 45.1397C36.6008 47.8161 31.9171 51.078 31.0807 53.6708C30.9971 53.7545 30.8298 53.9217 30.6625 53.9217Z" fill="#373737"/>
<path d="M24.8915 26.1539C30.6626 25.7357 40.8664 27.9103 45.0483 32.3431L42.5392 22.2229C39.11 17.1209 27.8188 14.6118 21.6296 14.9463L11.593 15.7827C12.9312 19.3791 14.1022 23.1429 15.1058 26.823L24.8915 26.1539Z" fill="#373737"/>
<path d="M39.3608 31.6739C41.2009 31.3393 42.2045 28.9138 41.7864 26.2374C41.3682 23.561 39.4445 21.6373 37.6881 21.8882C35.848 22.2228 34.8444 24.6483 35.2626 27.3247C35.7644 30.0848 37.6044 32.0084 39.3608 31.6739Z" fill="#E2DECC"/>
<path d="M39.0262 32.1757C38.1898 32.1757 37.2698 31.7575 36.6007 31.0048C35.848 30.1684 35.1788 28.9138 34.9279 27.492C34.677 26.0701 34.8443 24.7319 35.3461 23.6446C35.848 22.4737 36.6843 21.7209 37.688 21.6373C38.6917 21.47 39.6953 21.8882 40.6153 22.8082C41.3681 23.6446 42.0372 24.8992 42.2881 26.321C42.539 27.7429 42.3717 29.0811 41.8699 30.1684C41.3681 31.3393 40.5317 32.0921 39.528 32.1757C39.3608 32.1757 39.1935 32.1757 39.0262 32.1757ZM38.1062 22.2228C38.0225 22.2228 37.8553 22.2228 37.7716 22.2228C37.1025 22.39 36.4334 22.8919 36.0152 23.8119C35.597 24.7319 35.4298 25.9865 35.6807 27.1574C35.9316 28.412 36.3498 29.4993 37.1025 30.252C37.7716 30.9211 38.608 31.2557 39.2771 31.1721C39.9462 31.0048 40.6153 30.5029 41.0335 29.5829C41.4517 28.6629 41.619 27.4083 41.3681 26.2374C41.1172 24.9828 40.699 23.8955 39.9462 23.1428C39.4444 22.5573 38.6917 22.2228 38.1062 22.2228Z" fill="#373737"/>
<path d="M51.1538 56.5145C51.1538 56.5145 51.0702 56.5145 51.1538 56.5145L41.1172 54.5072C34.4261 53.169 27.5678 53.8381 21.2949 56.4309C21.2113 56.5146 21.044 56.4309 20.9604 56.4309C20.8767 56.3473 20.7931 56.2636 20.7931 56.0964L20.7095 55.26C19.1203 41.8778 16.0257 28.7466 11.5093 16.0336C11.4256 15.95 11.5093 15.7827 11.5929 15.6991C11.5093 15.6154 11.5929 15.5318 11.7602 15.5318L21.7968 14.8627C28.2369 14.4445 39.5281 17.0373 43.0409 22.2228C43.0409 22.2228 43.1245 22.3065 43.1245 22.3901L51.572 56.0964C51.572 56.2636 51.572 56.3473 51.4884 56.5145C51.4047 56.5145 51.2374 56.5145 51.1538 56.5145ZM34.4262 53.169C36.6844 53.169 39.0263 53.4199 41.2845 53.8381L50.5683 55.6782L42.3718 22.641C39.0263 17.79 27.986 15.2809 21.7968 15.6991L12.3456 16.2845C16.8621 28.8303 19.8731 41.9615 21.4622 55.1763L21.5458 55.5945C25.6441 53.9218 30.077 53.169 34.4262 53.169Z" fill="#373737"/>
<path d="M28.906 54.2562C28.6551 54.1725 28.5714 53.9216 28.6551 53.7543C29.5751 50.4088 34.7607 46.8124 39.1935 43.6341C42.2045 41.4595 45.1318 39.3685 46.0518 37.8631C46.2191 37.6958 46.47 37.6121 46.6373 37.7794C46.8046 37.8631 46.8882 38.1976 46.8046 38.3649C45.8009 39.954 43.0409 41.9613 39.779 44.3032C35.3461 47.3978 30.3278 50.9943 29.4078 54.0052C29.3242 54.1725 29.1569 54.2562 28.906 54.2562Z" fill="#373737"/>
<path d="M22.6332 29.1647C21.2113 29.332 20.6259 28.4956 19.9568 28.8301C18.9531 29.4992 19.204 32.1757 20.124 32.4266C20.7931 32.7611 21.5459 31.2556 22.6332 31.4229C22.8841 31.5065 23.3023 31.6738 24.4732 33.7648C25.5605 35.8557 25.3096 36.023 25.8951 36.6085C26.9824 37.6958 27.986 36.943 29.9933 38.0303C31.5825 38.8667 31.3316 39.7031 32.837 40.2886C33.088 40.3722 34.8444 41.1249 36.4335 40.4558C37.5208 39.954 37.3535 39.3685 38.9426 38.1976C40.2809 37.2776 41.2009 37.1103 41.2009 36.7758C41.1172 36.3576 39.6118 36.1067 38.1899 36.3576C36.8517 36.6085 36.4335 37.1103 35.9317 36.943C35.0953 36.4412 36.0989 34.6012 35.0953 33.4302C34.3425 32.5102 33.088 33.1793 30.077 32.3429C28.4042 31.8411 27.4842 31.5902 26.8151 30.6702C25.9787 29.3319 26.6478 27.9101 25.9787 27.5755C25.3096 27.241 24.5569 28.9138 22.6332 29.1647Z" fill="#8D2543"/>
<path d="M34.928 41.2923C33.9244 41.2923 33.0044 40.9577 32.6698 40.7904C31.8334 40.3722 31.4989 40.0377 31.0807 39.6195C30.7461 39.2849 30.4116 38.9504 29.8261 38.5322C28.9897 38.0304 28.237 37.9467 27.7352 37.8631C27.066 37.7795 26.3969 37.6958 25.7278 37.0267C25.3933 36.6922 25.226 36.4412 25.1424 36.1067C24.9751 35.6885 24.8078 35.1867 24.306 34.0994C23.3023 32.1757 22.8841 32.0084 22.7169 31.9248C22.2987 31.8411 21.9641 32.0921 21.6296 32.4266C21.2114 32.7612 20.7932 33.0957 20.2077 32.9284C19.6222 32.6775 19.2877 32.0921 19.204 31.0048C19.1204 30.1684 19.2877 28.9974 19.9568 28.4956C20.4586 28.1611 20.8768 28.3283 21.3786 28.4956C21.7968 28.6629 22.215 28.8302 22.8005 28.7465C23.6369 28.6629 24.3896 28.0774 24.8078 27.7429C25.3096 27.3247 25.8115 26.9901 26.3969 27.1574C26.9824 27.4083 26.9824 27.9938 26.9824 28.5792C26.9824 29.1647 26.9824 29.7502 27.4842 30.4193C28.0697 31.172 28.9061 31.5066 30.4952 31.9248C31.9171 32.343 32.8371 32.4266 33.6735 32.4266C34.5935 32.5102 35.2626 32.5102 35.7644 33.1793C36.4335 33.8485 36.3499 34.8521 36.3499 35.5212C36.3499 36.0231 36.3499 36.4412 36.5172 36.5249C36.6008 36.6085 36.6844 36.5249 37.1026 36.3576C37.4372 36.1903 37.8554 36.0231 38.6081 35.8558C39.7791 35.6049 41.2009 35.7721 41.7864 36.1903C42.0373 36.3576 42.0373 36.5249 42.1209 36.6922C42.2046 37.194 41.7864 37.3613 41.2846 37.5285C40.8664 37.6958 40.3645 38.0304 39.6954 38.3649C39.0263 38.9504 38.6918 39.2849 38.3572 39.6195C38.0227 40.0377 37.6881 40.2886 37.1026 40.6232C36.0153 41.125 35.5135 41.2923 34.928 41.2923ZM22.3823 31.0884C22.4659 31.0884 22.6332 31.0884 22.7169 31.0884C23.135 31.172 23.6369 31.5902 24.8078 33.6812C25.3933 34.6848 25.5606 35.3539 25.7278 35.6885C25.8951 36.1067 25.8951 36.1903 26.146 36.3576C26.6479 36.8594 27.066 36.9431 27.7352 37.0267C28.4043 37.1103 29.157 37.194 30.1607 37.6958C30.9134 38.1976 31.3316 38.5322 31.6662 38.9504C32.0007 39.3686 32.2516 39.6195 32.9207 39.8704C33.5062 40.1213 34.928 40.5395 36.2663 40.0377C36.7681 39.7868 36.9354 39.5359 37.1863 39.2849C37.5208 38.8668 37.8554 38.4486 38.6918 37.8631C39.3609 37.3613 39.9463 37.1103 40.3645 36.9431C40.4482 36.9431 40.5318 36.8594 40.5318 36.8594C40.03 36.6922 39.1936 36.6085 38.2736 36.7758C37.6881 36.8594 37.3536 37.0267 37.019 37.194C36.6008 37.3613 36.2663 37.5285 35.8481 37.2776C35.179 36.9431 35.179 36.274 35.179 35.5212C35.179 34.8521 35.179 34.183 34.7608 33.6812C34.4262 33.263 34.0917 33.263 33.1716 33.1793C32.4189 33.0957 31.3316 33.0957 29.8261 32.5939C28.237 32.0921 27.066 31.8411 26.3969 30.6702C25.8115 29.9175 25.8115 28.9974 25.8115 28.4956C25.8115 28.1611 25.8115 27.8265 25.7278 27.8265C25.6442 27.7429 25.226 28.0774 25.0587 28.2447C24.4733 28.7465 23.7205 29.2483 22.6332 29.4156C21.8805 29.4993 21.295 29.332 20.7932 29.1647C20.375 28.9974 20.2077 28.9974 20.1241 29.0811C19.7895 29.332 19.5386 30.0011 19.6222 30.8375C19.7059 31.5066 19.9568 31.9248 20.1241 32.0084C20.2913 32.0921 20.5423 31.8411 20.7932 31.5902C21.295 31.5066 21.7968 31.0884 22.3823 31.0884Z" fill="#8D2543"/>
<path d="M24.8915 38.6996C24.5569 38.6159 24.4733 38.4486 24.4733 38.1977C24.6405 37.6123 24.5569 37.3613 24.3896 37.1941C24.306 37.1104 24.1387 37.1104 23.8042 37.1104C23.4696 37.1104 23.1351 37.1104 22.7169 36.9432C21.7968 36.525 21.3787 35.6049 21.0441 34.9358C20.375 33.1794 20.6259 31.5903 20.9605 30.4194C21.0441 30.1685 21.295 30.0848 21.4623 30.1684C21.7132 30.2521 21.7968 30.503 21.7132 30.6703C21.3787 31.5903 21.1277 33.0958 21.7968 34.6013C22.0478 35.2704 22.3823 35.9395 22.9678 36.1904C23.3023 36.274 23.5532 36.274 23.7205 36.274C24.1387 36.274 24.4733 36.274 24.8078 36.6086C25.226 37.0268 25.3097 37.5286 25.0587 38.4486C25.226 38.5323 25.0587 38.6996 24.8915 38.6996Z" fill="#8D2543"/>
<path d="M24.306 55.0926C24.0551 55.0926 23.8878 54.8417 23.8878 54.6744C23.9714 53.2526 24.0551 51.8307 24.0551 50.4089C24.0551 48.4016 24.0551 47.3979 23.8878 46.227C23.5532 44.136 23.4696 42.9651 22.9678 41.9614C22.8841 41.7941 22.8005 41.7105 22.7169 41.5432C22.3823 40.8741 22.0477 40.3723 22.215 39.6195C22.4659 38.7832 23.2187 38.1977 23.8042 37.9468C24.9751 37.5286 25.9788 38.1141 26.6479 38.6159C27.4842 39.4523 27.7352 40.9578 27.2333 41.8778C27.066 42.0451 26.9824 42.2123 26.8151 42.296C26.6479 42.4632 26.5642 42.5469 26.3969 42.7978C26.2297 43.0487 26.146 43.3833 26.146 43.6342C26.0624 44.5542 26.3133 45.3906 26.4806 45.7251V45.8088C26.8151 46.9797 26.7315 47.9834 26.5642 50.2416C26.4806 50.9107 26.3969 52.6671 26.0624 54.0053C25.9787 54.2562 25.8115 54.3399 25.5606 54.3399C25.3096 54.2562 25.226 54.089 25.226 53.8381C25.5606 52.5835 25.6442 50.8271 25.7278 50.158C25.8951 48.067 25.9787 46.9797 25.6442 45.9761V45.8924C25.4769 45.3906 25.226 44.5542 25.3096 43.4669C25.3096 42.9651 25.4769 42.6305 25.6442 42.296C25.8115 41.8778 26.0624 41.7105 26.2297 41.6269C26.3133 41.5432 26.3969 41.4596 26.4806 41.3759C26.8151 40.8741 26.7315 39.7868 25.9787 39.1177C25.4769 38.6159 24.7242 38.365 23.9714 38.5322C23.4696 38.6995 23.0514 39.1177 22.8841 39.5359C22.8005 39.9541 22.9678 40.2886 23.3023 40.8741C23.386 41.0414 23.4696 41.125 23.5532 41.2923C24.1387 42.4632 24.2223 43.5505 24.5569 45.8088C24.7242 47.0633 24.7242 47.9834 24.7242 50.0743C24.7242 51.4962 24.6405 53.0017 24.5569 54.4235C24.7242 55.009 24.5569 55.0926 24.306 55.0926Z" fill="#8D2543"/>
<path d="M23.9713 45.6415C23.804 45.6415 22.5495 45.2233 22.2149 43.9687C21.8804 42.7978 22.6331 41.8777 22.7167 41.7941C22.884 41.6268 23.1349 41.6268 23.3022 41.7105C23.4695 41.8777 23.4695 42.1286 23.3859 42.2959C23.3859 42.2959 22.8004 42.965 23.0513 43.8014C23.3022 44.6378 24.1386 44.8887 24.1386 44.8887C24.3895 44.9724 24.4732 45.2233 24.3895 45.3905C24.3895 45.6415 24.2222 45.6415 23.9713 45.6415Z" fill="#8D2543"/>
<path d="M26.3969 50.3252C26.3133 50.3252 26.146 50.2416 26.0624 50.1579C25.8951 49.9907 25.8951 49.7397 26.0624 49.5725C26.6478 49.0706 27.1497 48.7361 27.9024 48.4015C28.4043 48.1506 28.8224 47.9833 29.4079 47.8161C29.6588 47.7324 29.8261 47.8997 29.9097 48.1506C29.9934 48.4015 29.8261 48.5688 29.5752 48.6525C29.0734 48.8197 28.6552 48.987 28.237 49.1543C27.5679 49.4888 27.1497 49.8234 26.6478 50.1579C26.5642 50.3252 26.4806 50.3252 26.3969 50.3252Z" fill="#8D2543"/>
<path d="M26.6478 47.6488C26.4806 47.6488 26.3133 47.4815 26.2296 47.3142C26.146 47.0633 26.3133 46.896 26.5642 46.8124L28.6552 46.3106C28.9061 46.2269 29.0733 46.3942 29.157 46.6451C29.2406 46.896 29.0733 47.0633 28.8224 47.147L26.6478 47.6488Z" fill="#8D2543"/>
<path d="M31.0806 50.2416C30.997 50.2416 30.9133 50.2416 30.8297 50.158C29.9097 49.4889 29.2406 48.6525 28.8224 47.7325C28.4878 46.8961 28.4878 46.227 28.6551 44.3869L28.7387 43.216C28.906 40.205 28.8224 39.7032 28.4878 39.2014C27.986 38.4486 27.066 38.5323 25.9787 38.6995C25.5605 38.7832 25.3096 38.8668 25.0587 38.7832C24.8077 38.7832 24.6405 38.6159 24.6405 38.365C24.6405 38.1141 24.8077 37.9468 25.0587 37.9468C25.2259 37.9468 25.5605 37.8631 25.7278 37.8631C26.7314 37.6959 28.2369 37.3613 29.0733 38.6995C29.4915 39.3686 29.6588 40.0377 29.4079 43.216V44.3033C29.2406 46.1433 29.2406 46.6452 29.4915 47.3979C29.826 48.1507 30.3279 48.9034 31.1643 49.4052C31.3315 49.5725 31.4152 49.8234 31.2479 49.9907C31.3315 50.158 31.2479 50.2416 31.0806 50.2416Z" fill="#8D2543"/>
<path d="M40.6155 49.7398C42.4556 49.4052 43.2919 45.9761 42.6228 41.9614C41.9537 37.9468 39.9464 35.0194 38.1064 35.2704C36.2663 35.6049 35.4299 39.0341 36.0991 43.0487C36.7682 47.0634 38.7755 50.0743 40.6155 49.7398Z" fill="#E2DECC"/>
<path d="M40.2809 50.1579C38.2736 50.1579 36.3499 47.147 35.5972 43.1323C35.3462 41.2086 35.3462 39.2013 35.6808 37.6958C36.099 36.0231 36.8517 35.103 37.939 34.9358C39.9464 34.6012 42.1209 37.6122 42.8737 41.8777C43.5428 46.1433 42.5391 49.7397 40.6155 50.0743C40.5318 50.1579 40.4482 50.1579 40.2809 50.1579ZM38.3572 35.7721C38.2736 35.7721 38.1899 35.7721 38.1899 35.7721C37.5208 35.9394 36.9354 36.6922 36.5172 37.9467C36.099 39.3686 36.099 41.2086 36.4335 43.0487C37.1026 47.147 39.11 49.5725 40.4482 49.3215C41.87 49.0706 42.7901 46.0597 42.1209 41.9614C41.5355 38.1977 39.6954 35.7721 38.3572 35.7721Z" fill="#373737"/>
<defs>
<filter id="filter0_d_1628_97072" x="0.399841" y="10.8" width="83.8601" height="63.1729" filterUnits="userSpaceOnUse" color-interpolation-filters="sRGB">
<feFlood flood-opacity="0" result="BackgroundImageFix"/>
<feColorMatrix in="SourceAlpha" type="matrix" values="0 0 0 0 0 0 0 0 0 0 0 0 0 0 0 0 0 0 127 0" result="hardAlpha"/>
<feOffset dy="2"/>
<feGaussianBlur stdDeviation="1"/>
<feComposite in2="hardAlpha" operator="out"/>
<feColorMatrix type="matrix" values="0 0 0 0 0 0 0 0 0 0 0 0 0 0 0 0 0 0 0.17 0"/>
<feBlend mode="normal" in2="BackgroundImageFix" result="effect1_dropShadow_1628_97072"/>
<feBlend mode="normal" in="SourceGraphic" in2="effect1_dropShadow_1628_97072" result="shape"/>
</filter>
</defs>
</svg>
