<svg width="80" height="80" viewBox="0 0 80 80" fill="none" xmlns="http://www.w3.org/2000/svg">
<g filter="url(#filter0_d_1628_97048)">
<ellipse cx="39.6" cy="40.1751" rx="30" ry="30.5752" fill="#D9D9D9"/>
<path d="M39.6 71.7503C56.7386 71.7503 70.6 57.5956 70.6 40.1751C70.6 22.7547 56.7386 8.59998 39.6 8.59998C22.4613 8.59998 8.59998 22.7547 8.59998 40.1751C8.59998 57.5956 22.4613 71.7503 39.6 71.7503Z" stroke="white" stroke-width="2"/>
</g>
<path d="M39.4209 69.4913C55.8905 69.4913 69.2418 56.0842 69.2418 39.5457C69.2418 23.0071 55.8905 9.59998 39.4209 9.59998C22.9512 9.59998 9.59998 23.0071 9.59998 39.5457C9.59998 56.0842 22.9512 69.4913 39.4209 69.4913Z" fill="#E0A550"/>
<path d="M39.4209 68.9518C23.3015 68.9518 10.1373 56.0922 9.59998 40.0852C9.59998 40.4449 9.59998 40.8046 9.59998 41.1643C9.59998 57.7109 22.9433 71.1999 39.4209 71.1999C55.988 71.1999 69.3313 57.7109 69.3313 41.1643C69.3313 40.8046 69.3313 40.4449 69.3313 40.0852C68.7045 56.0922 55.6298 68.9518 39.4209 68.9518Z" fill="#BB673C"/>
<path d="M39.4209 63.9158C52.8241 63.9158 63.6895 53.0049 63.6895 39.5456C63.6895 26.0863 52.8241 15.1754 39.4209 15.1754C26.0177 15.1754 15.1522 26.0863 15.1522 39.5456C15.1522 53.0049 26.0177 63.9158 39.4209 63.9158Z" fill="#D7B35C"/>
<path d="M39.4211 16.6142C52.6748 16.6142 63.3315 27.2256 63.6897 40.4448C63.6897 40.265 63.6897 40.0851 63.6897 39.9053C63.6897 25.8767 52.8539 14.4559 39.4211 14.4559C25.9882 14.4559 15.1524 25.8767 15.1524 39.9053C15.1524 40.0851 15.1524 40.265 15.1524 40.4448C15.5106 27.2256 26.2569 16.6142 39.4211 16.6142Z" fill="#BB673C"/>
<path d="M53.8413 38.692L39.4671 24.2577L25.0929 38.692L39.4671 53.1264L53.8413 38.692Z" fill="#E0A550"/>
<path d="M50.8018 38.6921L39.4037 27.2463L28.0057 38.6921L39.4037 50.1378L50.8018 38.6921Z" fill="white"/>
<path d="M39.4209 29.384L49.8089 39.8155L50.8835 38.7364L39.4209 27.2257L28.0477 38.7364L29.1224 39.8155L39.4209 29.384Z" fill="#BB673C"/>
<path d="M39.4209 53.1245L25.0925 38.7362V41.0743L39.4209 55.4626L53.8388 41.0743V38.7362L39.4209 53.1245Z" fill="#BB673C"/>
<path d="M39.7253 22.728C40.5326 22.728 41.1869 22.0709 41.1869 21.2603C41.1869 20.4497 40.5326 19.7926 39.7253 19.7926C38.9181 19.7926 38.2637 20.4497 38.2637 21.2603C38.2637 22.0709 38.9181 22.728 39.7253 22.728Z" fill="#BB673C"/>
<path d="M39.7253 61.7858C40.6671 61.7858 41.4306 61.0191 41.4306 60.0734C41.4306 59.1277 40.6671 58.3611 39.7253 58.3611C38.7836 58.3611 38.0201 59.1277 38.0201 60.0734C38.0201 61.0191 38.7836 61.7858 39.7253 61.7858Z" fill="#BB673C"/>
<path d="M59.1321 41.7268C60.0739 41.7268 60.8373 40.9602 60.8373 40.0145C60.8373 39.0688 60.0739 38.3021 59.1321 38.3021C58.1904 38.3021 57.4269 39.0688 57.4269 40.0145C57.4269 40.9602 58.1904 41.7268 59.1321 41.7268Z" fill="#BB673C"/>
<path d="M20.2372 41.7268C21.179 41.7268 21.9425 40.9602 21.9425 40.0145C21.9425 39.0688 21.179 38.3021 20.2372 38.3021C19.2955 38.3021 18.532 39.0688 18.532 40.0145C18.532 40.9602 19.2955 41.7268 20.2372 41.7268Z" fill="#BB673C"/>
<defs>
<filter id="filter0_d_1628_97048" x="5.59998" y="6.59998" width="68" height="69.1504" filterUnits="userSpaceOnUse" color-interpolation-filters="sRGB">
<feFlood flood-opacity="0" result="BackgroundImageFix"/>
<feColorMatrix in="SourceAlpha" type="matrix" values="0 0 0 0 0 0 0 0 0 0 0 0 0 0 0 0 0 0 127 0" result="hardAlpha"/>
<feOffset dy="1"/>
<feGaussianBlur stdDeviation="1"/>
<feComposite in2="hardAlpha" operator="out"/>
<feColorMatrix type="matrix" values="0 0 0 0 0 0 0 0 0 0 0 0 0 0 0 0 0 0 0.25 0"/>
<feBlend mode="normal" in2="BackgroundImageFix" result="effect1_dropShadow_1628_97048"/>
<feBlend mode="normal" in="SourceGraphic" in2="effect1_dropShadow_1628_97048" result="shape"/>
</filter>
</defs>
</svg>
