<svg width="20" height="21" viewBox="0 0 20 21" fill="none" xmlns="http://www.w3.org/2000/svg">
<path fill-rule="evenodd" clip-rule="evenodd" d="M11.4719 2.11648C10.7394 2.36137 10.0838 2.95884 9.82589 3.61657L9.71412 3.90152L5.36398 3.89962C2.55728 3.89848 1.67773 3.9211 1.52116 3.96344C1.09652 4.07834 0.876635 4.55102 1.07818 4.9155C1.25308 5.23188 0.455871 5.22891 5.26674 5.22891C9.34939 5.22891 9.75544 5.23816 9.75544 5.33094C9.75544 5.54199 10.1832 6.19821 10.5034 6.4784C11.6915 7.51805 13.4684 7.36316 14.4368 6.13559C14.5645 5.97379 14.7195 5.70354 14.7813 5.53515L14.8936 5.22891H16.6822C18.1495 5.22891 18.5052 5.21173 18.6621 5.13321C19.1869 4.8705 19.0691 4.12284 18.4778 3.96388C18.3407 3.92706 17.5059 3.89854 16.5594 3.89835L14.8837 3.89797L14.8075 3.65206C14.6173 3.03749 13.7986 2.29983 13.0765 2.09227C12.6253 1.9626 11.8995 1.9735 11.4719 2.11648ZM13.0244 3.50268C13.7319 3.92649 13.8304 4.9714 13.215 5.52691C12.6843 6.00605 11.7684 5.95287 11.3014 5.41581C11.0574 5.13511 10.9903 4.94726 10.9903 4.54506C10.9901 3.53881 12.119 2.96036 13.0244 3.50268ZM6.65413 7.51196C5.80694 7.74259 5.07899 8.42783 4.78583 9.27082C4.75041 9.3726 4.60903 9.38173 3.07037 9.38173H1.39354L1.20214 9.56698C0.93262 9.82785 0.93262 10.2032 1.20214 10.464L1.39354 10.6493H3.07037C4.60929 10.6493 4.75034 10.6584 4.78511 10.7602C4.91018 11.1266 5.19397 11.5643 5.48693 11.8426C6.5339 12.8369 8.11611 12.8566 9.18541 11.8885C9.49834 11.6052 9.91611 10.955 9.91611 10.7513C9.91611 10.6585 10.3408 10.6493 14.6358 10.6493H18.6054L18.7968 10.464C19.0663 10.2032 19.0663 9.82785 18.7968 9.56698L18.6054 9.38173H14.6358C10.3408 9.38173 9.91611 9.37254 9.91611 9.27969C9.91611 9.076 9.49834 8.42586 9.18541 8.14257C8.51378 7.53452 7.49948 7.28183 6.65413 7.51196ZM8.06039 8.91248C8.15848 8.98334 8.32886 9.14913 8.439 9.28083C8.62411 9.50221 8.63924 9.5576 8.63924 10.0155C8.63924 10.4734 8.62411 10.5288 8.439 10.7502C8.11644 11.136 7.92818 11.2404 7.50112 11.2703C7.02259 11.3037 6.72818 11.214 6.44688 10.9489C5.77387 10.3147 5.9616 9.20795 6.80578 8.83332C7.09913 8.70314 7.835 8.7496 8.06039 8.91248ZM11.4579 12.9034C10.6457 13.0668 9.91311 13.6379 9.54858 14.3919L9.35018 14.8021H5.06414C1.36933 14.8021 1.50171 14.8153 1.33683 14.8978C1.10182 15.0154 1.01074 15.171 1.01074 15.4548C1.01074 15.743 1.21877 15.9873 1.53386 16.0695C1.69894 16.1125 2.50123 16.1343 5.21199 16.1317L9.38593 16.1275L9.49495 16.4055C9.74489 17.0427 10.2118 17.5119 10.9121 17.8294C11.2531 17.9841 11.3683 18.0026 11.9818 18.0017C12.6209 18.0007 12.6996 17.9863 13.0998 17.7978C13.6011 17.5616 14.1113 17.0743 14.3651 16.5894C14.4588 16.4105 14.5355 16.2274 14.5355 16.1827C14.5355 16.118 14.8941 16.1056 16.2871 16.122C17.2505 16.1334 18.1688 16.1238 18.3277 16.1007C18.8557 16.0241 19.1515 15.5327 18.9208 15.1155C18.7596 14.824 18.5922 14.8021 16.5185 14.8021H14.5662L14.4528 14.5011C14.0325 13.3868 12.6697 12.6597 11.4579 12.9034ZM12.541 14.2875C13.5027 14.7103 13.5491 16.0702 12.6193 16.5795C11.6311 17.1208 10.4113 16.2348 10.6758 15.1679C10.871 14.3801 11.778 13.952 12.541 14.2875Z" fill="#65854E"/>
</svg>
