<svg width="54" height="35" viewBox="0 0 54 35" fill="none" xmlns="http://www.w3.org/2000/svg">
<path d="M3.47404 34.6153C3.08427 34.6153 2.78605 34.5921 2.5796 34.5466C2.09806 34.4545 1.55954 34.2713 0.96309 33.9958L0.550442 33.6862C0.183805 33.3875 0 32.9515 0 32.3785C0 32.0799 0.0343265 31.7703 0.103223 31.4492C0.309669 30.8066 0.562127 30.2102 0.859867 29.6595C1.50209 28.4203 2.28186 27.2503 3.1987 26.1489C3.97847 25.1853 4.57444 24.4737 4.98733 24.015L5.77854 23.1889L6.29441 22.6382C6.66154 22.2477 7.2575 21.6864 8.08304 20.9517L9.3558 19.8504C9.4247 19.7817 9.88312 19.4263 10.7318 18.7834L12.3483 17.6132L13.2425 16.9939C13.3338 16.9481 13.4027 16.9024 13.4489 16.8561C13.4027 16.7874 13.3338 16.6785 13.2425 16.5292C13.1507 16.3803 13.0587 16.2712 12.9674 16.2022L12.8987 16.1333C12.807 15.9733 12.6692 15.7952 12.4858 15.6001C12.302 15.4052 12.1533 15.2388 12.0389 15.1009C11.8551 14.8488 11.6717 14.6534 11.4884 14.5158L11.3166 14.3784C11.179 14.2408 11.0295 14.0802 10.8693 13.8963C10.7087 13.7129 10.5253 13.5297 10.3191 13.3458L9.28715 12.3475L8.42728 11.4184L8.22084 11.2118C7.92261 10.9137 7.5903 10.501 7.22318 9.97265C6.92544 9.44526 6.73043 8.97462 6.63865 8.56172C6.61601 8.47012 6.59288 8.35514 6.56976 8.21751C6.54711 8.08012 6.53543 7.91958 6.53543 7.73542C6.58168 7.27672 6.65034 6.85261 6.74188 6.46212C6.81077 6.16396 6.98265 5.76226 7.25775 5.25752L7.80819 4.46582C8.10593 4.00712 8.44992 3.59422 8.83993 3.22687C9.13767 2.92894 9.45903 2.64198 9.80302 2.36671C9.82566 2.34381 9.85463 2.31507 9.8892 2.28048C9.92353 2.24589 9.95201 2.21739 9.97514 2.19424C10.3418 1.87342 10.8576 1.51801 11.523 1.12752C11.775 0.989883 12.0099 0.869301 12.228 0.766258C12.4457 0.662971 12.6348 0.57698 12.7955 0.508041C13.0244 0.370407 13.2651 0.290019 13.5178 0.26712C13.6554 0.244466 13.9188 0.186976 14.309 0.0951384C14.6068 0.00378827 14.9627 -0.0195974 15.3754 0.0261995C15.7418 0.0724836 16.0171 0.11828 16.2009 0.163834C16.7513 0.279057 17.2098 0.47345 17.5769 0.748719C18.0122 1.09293 18.2529 1.55236 18.2992 2.1253V2.9516C18.2074 3.82393 17.9433 4.67239 17.508 5.4982L17.0953 6.25555C16.8889 6.53082 16.774 6.68039 16.7513 6.7028C16.5907 6.90937 16.3957 6.96686 16.1666 6.87503H15.9601C15.845 6.87503 15.742 6.84044 15.6507 6.77174C15.5358 6.657 15.5132 6.54275 15.5818 6.42753C15.6276 6.33618 15.6731 6.27845 15.7194 6.25555C15.8569 6.04898 16.04 5.71646 16.2696 5.25728C16.5447 4.61514 16.728 4.01832 16.82 3.46754C16.8426 3.26073 16.8543 2.9287 16.8543 2.46927C16.8312 2.1482 16.728 1.87293 16.5449 1.64322C16.3384 1.36795 16.0977 1.23032 15.8226 1.23032C15.685 1.23032 15.4786 1.2537 15.2035 1.29926C14.7219 1.43665 14.1028 1.67781 13.3462 2.02202L12.4174 2.57256C12.0961 2.80203 11.8553 2.98546 11.6951 3.12334L11.1792 3.57083C11.0643 3.66267 10.9265 3.8003 10.7666 3.98373C10.6059 4.16765 10.4572 4.31649 10.3196 4.43123L10.1821 4.56886L9.49408 5.5323C9.12696 6.03728 8.85186 6.58806 8.66854 7.1844C8.59965 7.45967 8.56532 7.72373 8.56532 7.97586C8.56532 8.34321 8.63422 8.722 8.77176 9.11177L8.87499 9.24916C8.94364 9.38679 9.01254 9.50762 9.08119 9.61066C9.15009 9.7137 9.20705 9.81163 9.25331 9.90298C9.27595 9.97168 9.40206 10.1212 9.63163 10.3505L9.8724 10.6944L9.97563 10.798C10.3423 11.1193 10.6059 11.3716 10.7668 11.5548L11.2827 12.0713L11.6267 12.3809L11.8332 12.5875L12.7273 13.4476C13.0024 13.7231 13.1858 13.9297 13.2775 14.0673C13.4377 14.2739 13.6215 14.4578 13.828 14.6179C14.0568 14.8476 14.1946 14.9967 14.2409 15.0656L14.516 15.3752L14.9632 15.9262C14.9858 15.9262 15.0664 15.8914 15.204 15.8227L18.2308 14.0676L19.2625 13.4479C19.3314 13.4254 19.5603 13.299 19.9505 13.0693C20.0881 13.0006 20.2256 12.966 20.3632 12.966C20.6383 12.966 20.7758 13.0693 20.7758 13.2759C20.7758 13.4598 20.6383 13.6318 20.3632 13.7918C20.0881 13.9295 19.83 14.0732 19.5892 14.2223C19.3485 14.3716 19.1362 14.4919 18.9529 14.5835L17.2675 15.5816L15.5477 16.6488L16.1322 17.5779C16.3387 17.8992 16.5563 18.2548 16.7859 18.6448C16.969 18.9435 17.0722 19.1384 17.0953 19.2297C17.164 19.3449 17.313 19.666 17.5423 20.1934C17.5881 20.2855 17.6166 20.3656 17.6283 20.4343C17.6397 20.503 17.6455 20.5607 17.6455 20.6063C17.7368 20.8129 17.7943 21.0657 17.8177 21.3634C17.8403 21.6618 17.8634 21.8796 17.8866 22.0175C17.9092 22.0862 17.9209 22.2121 17.9209 22.396C17.9209 22.6028 17.9092 22.7629 17.8866 22.8779C17.8403 24.0484 17.5881 25.1153 17.1297 26.0788C16.9921 26.3998 16.774 26.7672 16.4762 27.1801C16.3156 27.4556 16.1549 27.6734 15.9947 27.8342L15.6507 28.3162C15.5589 28.4536 15.4326 28.6142 15.2724 28.7981C15.1117 28.9815 14.9854 29.1306 14.8941 29.2456C14.5958 29.5898 14.2518 29.8997 13.8623 30.1747L13.7591 30.278C13.5984 30.4614 13.3981 30.6448 13.1573 30.8287C12.9165 31.0122 12.7385 31.1496 12.6241 31.2416C12.5552 31.2874 12.2916 31.4594 11.8329 31.7578L11.5578 31.9647C11.4889 32.0333 11.4427 32.0677 11.4203 32.0677C11.2138 32.159 11.0188 32.2857 10.8357 32.4465C10.2853 32.7673 9.96394 32.9393 9.87265 32.9627C9.7351 33.0085 9.59755 33.0772 9.46 33.1693C9.32245 33.2606 9.1849 33.3295 9.04711 33.3758C8.95533 33.4216 8.75472 33.5135 8.4453 33.6511C8.13563 33.7887 7.84325 33.8801 7.56815 33.9264L7.29305 34.0299C7.13286 34.0986 6.91472 34.1673 6.63963 34.2365C6.36453 34.3057 6.14688 34.3624 5.98596 34.4085L5.47009 34.4771L4.64455 34.5807C4.53013 34.6031 4.34681 34.615 4.09411 34.615H3.47404V34.6153ZM3.61159 33.5829C3.97871 33.5142 4.20804 33.4677 4.29958 33.4453C4.52891 33.399 4.9306 33.2847 5.50344 33.1013L6.19143 32.8945C6.69611 32.665 7.08563 32.5042 7.36097 32.4126C7.52165 32.3439 7.76242 32.2173 8.08329 32.0341L8.39296 31.8619C8.53051 31.7929 8.6907 31.7069 8.8745 31.6036C9.05758 31.5003 9.25282 31.38 9.45927 31.2424C9.57369 31.1737 9.73437 31.0816 9.94081 30.9669C10.147 30.8519 10.3072 30.7376 10.4224 30.6229L11.4887 29.8312L12.2799 29.1771C12.6925 28.81 13.1512 28.317 13.6559 27.6973C13.8161 27.5133 14.0342 27.2381 14.3093 26.8712C14.3551 26.8023 14.5269 26.5385 14.8252 26.0795C15.0085 25.7811 15.2035 25.3916 15.4099 24.9095C15.7539 23.9685 15.8915 23.0737 15.8226 22.2248C15.8226 21.6513 15.7539 21.181 15.6161 20.8136L15.5475 20.5383C15.5244 20.4009 15.4727 20.2346 15.3926 20.0392C15.3118 19.8446 15.249 19.6779 15.2035 19.5401C15.1804 19.4943 15.146 19.4368 15.1003 19.3681C15.054 19.2994 15.0314 19.2304 15.0314 19.1615C15.0314 19.1157 14.997 19.0582 14.9281 18.9895C14.8364 18.8748 14.7733 18.7715 14.739 18.6797C14.7044 18.5883 14.6642 18.5077 14.6185 18.439C14.3889 18.0721 14.2058 17.7966 14.068 17.6127L13.7929 17.7503L13.1393 18.2322C12.5659 18.5766 11.7516 19.1615 10.6972 19.9876C9.91744 20.5612 9.13767 21.2038 8.35839 21.9149C7.76242 22.4192 7.32664 22.8097 7.0513 23.0852L6.12278 24.0835L5.64099 24.5996C5.25123 25.035 4.88435 25.4712 4.54035 25.9073C3.92126 26.6415 3.38274 27.364 2.9236 28.0753C2.39628 28.8553 2.01796 29.5094 1.78839 30.0373C1.46752 30.6568 1.26107 31.2879 1.16929 31.9303C1.12352 32.2058 1.11233 32.4005 1.13497 32.5154C1.13497 32.951 1.34141 33.2609 1.75406 33.4445C2.05229 33.5593 2.31619 33.6165 2.54527 33.6165C2.88927 33.663 3.2452 33.6516 3.61159 33.5829Z" fill="#757575"/>
<path d="M18.8487 20.6763C18.551 20.1718 18.3903 19.6439 18.3672 19.0929C18.3672 18.6573 18.4134 18.29 18.5047 17.9916C18.5279 17.9 18.551 17.785 18.5734 17.6474C18.5965 17.5097 18.6423 17.3492 18.7109 17.1653C18.7572 17.0052 18.8142 16.7987 18.8831 16.5461C18.952 16.2939 19.0206 16.0871 19.0895 15.9266C19.1813 15.6055 19.2733 15.3069 19.3646 15.0316C19.4564 14.7561 19.5365 14.5152 19.6054 14.3088C19.7429 13.8043 19.9718 13.2419 20.2934 12.6221L20.5341 12.1749C20.6943 11.8538 21.0157 11.6928 21.4972 11.6928C21.8636 11.6928 22.1163 11.7961 22.2539 12.0024C22.2996 12.0945 22.3225 12.2321 22.3225 12.4156C22.3225 12.6448 22.2539 12.9434 22.1161 13.3103C21.9785 13.6777 21.8865 13.9417 21.841 14.102C21.7721 14.2628 21.7146 14.4116 21.6691 14.5493C21.6229 14.6869 21.5773 14.8019 21.5316 14.8935C21.4166 15.215 21.3022 15.5816 21.1876 15.9948L20.9811 16.7175L20.7747 17.5779C20.706 17.7845 20.5909 18.2091 20.4307 18.8515C20.362 19.1501 20.3275 19.4829 20.3275 19.8495C20.3275 20.0792 20.3386 20.2512 20.362 20.366C20.362 20.5499 20.4078 20.6987 20.4996 20.8132C20.5909 20.8592 20.7284 20.8592 20.9122 20.8132C21.2562 20.6532 21.554 20.4809 21.8064 20.297C22.2193 19.9988 22.7464 19.4595 23.3886 18.6793C23.7552 18.2437 24.3227 17.3887 25.0913 16.1154C25.8594 14.8421 26.3468 14.0104 26.5532 13.6202C26.6445 13.3449 26.8283 13.2073 27.1034 13.2073C27.2634 13.2073 27.4012 13.2648 27.5161 13.3795C27.6305 13.4945 27.6536 13.6436 27.5847 13.8267C27.5161 14.0794 27.1258 14.8077 26.4154 16.0123C25.7043 17.2169 25.1996 18.0257 24.9019 18.4388L24.0766 19.4712C23.4575 20.2973 22.7807 20.9284 22.0472 21.3642C21.5425 21.6168 21.1067 21.7428 20.7401 21.7428C20.5794 21.7428 20.465 21.7316 20.3961 21.7084C19.686 21.64 19.1701 21.2955 18.8487 20.6763ZM22.0131 9.4909C21.8293 9.35326 21.738 9.17008 21.738 8.94012C21.7606 8.87142 21.7723 8.76789 21.7723 8.6305C21.8412 8.33258 21.9902 8.1718 22.2195 8.14866C22.4484 8.12601 22.6721 8.15426 22.8903 8.23465C23.1079 8.31553 23.2513 8.41248 23.3202 8.52722C23.366 8.6193 23.3891 8.74548 23.3891 8.90577C23.3891 9.11259 23.3428 9.30162 23.2515 9.47385C23.1598 9.64583 23.0108 9.73206 22.8043 9.73206C22.483 9.68578 22.2195 9.60588 22.0131 9.4909Z" fill="#757575"/>
<path d="M29.8893 23.7742C29.8893 23.7742 29.7688 23.7165 29.5282 23.602C29.2872 23.4868 29.1095 23.3033 28.9951 23.0515C28.9031 22.8446 28.8344 22.6152 28.7889 22.3631C28.6735 21.8586 28.6165 21.3882 28.6165 20.9519C28.5934 20.5853 28.6282 20.0113 28.72 19.2311L28.7546 18.8871L28.5824 19.0935C28.376 19.3921 28.0892 19.7076 27.7226 20.0401C27.3554 20.3731 27.0117 20.5967 26.6908 20.7114C26.5533 20.7572 26.4389 20.7799 26.3468 20.7799C26.1404 20.7799 25.9459 20.7231 25.7621 20.6079L25.3492 20.4016C24.9594 20.1492 24.7646 19.7132 24.7646 19.0935C24.7646 18.6579 24.891 17.9809 25.143 17.063C25.3494 16.237 25.6362 15.4572 26.0028 14.7228C26.2322 14.172 26.4274 13.7708 26.5876 13.5182C26.7941 13.1282 26.9886 12.8073 27.1724 12.5545C27.5164 12.0502 27.9636 11.7172 28.5135 11.5562C28.7202 11.4875 28.9262 11.4532 29.1329 11.4532C29.4306 11.4532 29.74 11.5562 30.0614 11.7628C30.084 11.7857 30.2447 11.9121 30.5432 12.1413L30.6805 12.0037C30.7263 11.8661 30.772 11.763 30.818 11.6941C30.9093 11.4651 31.0934 11.2931 31.3685 11.1779C31.4598 11.1321 31.5404 11.1321 31.609 11.1779C31.7926 11.2466 32.0677 11.3733 32.4348 11.5565C32.595 11.6485 32.6524 11.7859 32.6069 11.9694C32.6069 12.0383 32.595 12.1362 32.5721 12.2619C32.549 12.3886 32.5261 12.4858 32.5034 12.5545C32.3659 13.1513 32.1709 13.8624 31.9187 14.6884C31.5973 15.7897 31.3797 16.6275 31.2653 17.2007C31.0815 17.9354 30.9558 18.4859 30.8867 18.8528C30.8409 19.1056 30.7949 19.4842 30.7494 19.9884L30.5429 21.8815V21.9847C30.5653 22.0079 30.6116 21.9847 30.6803 21.916C30.7491 21.7784 30.8407 21.6293 30.9556 21.4686C31.07 21.3085 31.1844 21.1246 31.2993 20.9178C31.666 20.2296 32.0097 19.5066 32.3311 18.7495L32.8472 17.6138L33.7071 15.6521L34.6353 13.5871C34.6811 13.4724 34.7559 13.3805 34.8591 13.3116C34.9623 13.2429 35.0709 13.2083 35.1858 13.2083C35.3233 13.2083 35.4322 13.26 35.513 13.3632C35.5928 13.4665 35.6101 13.599 35.5644 13.7588C35.4268 14.0804 35.335 14.3218 35.2893 14.4819C34.2575 16.9371 33.7526 18.1417 33.776 18.0957C33.2024 19.4033 32.8472 20.2069 32.7094 20.5049C32.4567 21.1017 32.0784 21.7672 31.5744 22.5009C31.0698 23.2351 30.6459 23.6366 30.3017 23.7055C30.0268 23.7511 29.8893 23.7742 29.8893 23.7742ZM26.9657 19.1967L27.5848 18.6116C28.0198 18.1761 28.4444 17.6367 28.8573 16.9941C29.1553 16.5583 29.3615 16.1797 29.4766 15.8582C29.5913 15.5371 29.7172 15.0784 29.855 14.4816C29.9007 14.2526 29.9238 14.0916 29.9238 13.9998C29.9238 13.6787 29.7973 13.2427 29.5453 12.6916L29.4766 12.6573L29.3391 12.7606C29.064 13.0821 28.777 13.5642 28.4795 14.2063C28.4106 14.344 28.2268 14.7345 27.9288 15.3764C27.7223 15.7895 27.5276 16.2716 27.3442 16.8221C27.1147 17.6024 26.954 18.1873 26.8627 18.5775C26.8164 18.9217 26.8052 19.1624 26.8284 19.3003L26.9657 19.1967Z" fill="#757575"/>
<path d="M35.9079 28.1793C35.5639 27.9264 35.3455 27.6166 35.2542 27.2502C35.0018 26.4468 34.8759 25.6551 34.8759 24.8753C34.8759 24.2327 34.9217 23.6361 35.0135 23.0856C35.059 22.6262 35.1734 22.0186 35.3572 21.2615C35.6092 20.0913 35.8731 19.1052 36.1484 18.3018C36.377 17.5676 36.6755 16.8105 37.0426 16.0304C37.1341 15.8236 37.2259 15.6463 37.318 15.497C37.4092 15.3481 37.4898 15.2163 37.5587 15.1011C37.5811 15.0553 37.6103 15.0039 37.6444 14.9462C37.6792 14.8892 37.7189 14.8258 37.7649 14.7569L37.6276 14.6882L35.6325 13.9311C35.1968 13.7708 34.7043 13.5645 34.1538 13.3116C33.7185 13.0826 33.3626 12.8529 33.0873 12.6232C32.2162 11.935 31.8145 11.0403 31.8837 9.93873C31.9068 9.66322 31.9757 9.3653 32.0901 9.04375C32.3197 8.44766 32.606 7.94243 32.95 7.52953C33.2251 7.20846 33.5233 6.96729 33.8444 6.80676C34.1195 6.62309 34.4409 6.53125 34.8073 6.53125C35.1279 6.53125 35.4378 6.60604 35.736 6.75488C36.0338 6.90445 36.2633 7.08203 36.4238 7.28836C36.7215 7.67885 36.8822 8.11441 36.9055 8.59601C36.974 9.51438 36.8481 10.4432 36.5272 11.3838C36.4352 11.6824 36.3432 11.9574 36.2516 12.2098C36.1599 12.4627 36.0798 12.6917 36.0111 12.8982C35.9877 12.9214 35.9765 12.9499 35.9765 12.9845C35.9765 13.0188 35.9646 13.0478 35.942 13.0705L36.1827 13.2081L38.3497 13.9652C38.6703 14.1028 38.9113 14.1947 39.072 14.2405C39.324 14.2865 39.5648 14.4931 39.7946 14.8599C39.8403 14.952 39.8632 15.021 39.8632 15.0668C39.8632 15.1586 39.8287 15.2619 39.76 15.3764C39.6911 15.5372 39.5993 15.6982 39.4847 15.8585C39.2322 16.2492 38.9688 16.742 38.6937 17.3386C38.5099 17.7744 38.2577 18.4514 37.937 19.369L37.5587 20.7115C37.4209 21.262 37.3292 21.6749 37.2834 21.9504C37.2603 22.0654 37.157 22.7302 36.9737 23.9462C36.9279 24.2444 36.9053 24.6919 36.9053 25.2887C36.9053 25.4722 36.9165 25.621 36.9396 25.736H36.974C37.0197 25.6902 37.0429 25.6556 37.0429 25.6329L37.3182 24.6006C37.547 23.6824 37.9027 22.65 38.3845 21.5029C38.8429 20.3558 39.1984 19.4954 39.4508 18.9217C39.4966 18.807 39.5594 18.6694 39.6397 18.5086C39.7198 18.3486 39.806 18.1644 39.8978 17.9578C40.0811 17.637 40.2072 17.3958 40.2761 17.2351C40.505 16.7995 40.855 16.2085 41.3256 15.4626C41.7953 14.7172 42.1909 14.115 42.5122 13.6558L42.6495 13.4836C42.7642 13.3462 42.8903 13.3116 43.0281 13.3806C43.0507 13.3806 43.1313 13.4035 43.2689 13.449C43.2913 13.518 43.3317 13.5988 43.3891 13.6902C43.4461 13.782 43.4863 13.8741 43.5094 13.9654L43.4062 14.1374C43.0622 14.6658 42.3744 15.847 41.3424 17.6825C41.1357 18.0499 40.9695 18.3707 40.8436 18.6462C40.717 18.9217 40.6079 19.1512 40.5167 19.3344L40.104 20.2981L39.4506 21.9502C38.9688 23.1429 38.6248 24.2215 38.4188 25.1852C38.2813 25.7126 38.1316 26.4125 37.9716 27.2845C37.9027 27.5827 37.7995 27.8697 37.6622 28.1449C37.4781 28.4891 37.2147 28.627 36.871 28.5578C36.4807 28.5118 36.1599 28.3859 35.9079 28.1793ZM35.4266 11.1428C35.6097 10.5468 35.7243 10.0415 35.7703 9.62839C35.7932 9.46834 35.8049 9.24983 35.8049 8.97456C35.8049 8.6764 35.7932 8.45837 35.7703 8.3205C35.7243 7.93049 35.5865 7.62088 35.3577 7.3914C34.9674 7.4601 34.6697 7.59798 34.4635 7.80431L34.016 8.38943C33.5579 9.03205 33.3171 9.68563 33.2937 10.3511C33.2479 11.1545 33.5347 11.774 34.1538 12.2096C34.1998 12.2559 34.3832 12.3706 34.7043 12.5538L34.8761 12.6225C35.0592 12.233 35.2425 11.7397 35.4266 11.1428Z" fill="#757575"/>
<path d="M42.6148 26.3898C42.6148 26.3898 42.5914 26.3898 42.5459 26.3898C42.2484 26.3667 42.0132 26.2746 41.8409 26.1146C41.669 25.9535 41.5142 25.7241 41.3769 25.4261C41.1935 24.9667 41.0901 24.508 41.0672 24.0496C41.0448 23.8888 41.0329 23.6479 41.0329 23.3268C41.01 23.2116 40.9983 23.0281 40.9983 22.776C40.9983 22.5005 41.0214 22.0876 41.067 21.5371C41.159 20.6194 41.2508 19.9312 41.3423 19.4718L41.4455 18.4738C41.5607 17.694 41.6751 17.0512 41.7893 16.5464C41.8124 16.2022 41.8701 15.8183 41.9614 15.3935C42.0532 14.9691 42.1218 14.6656 42.1678 14.4814L42.4086 13.1048C42.6603 11.7743 42.8439 10.8676 42.9588 10.3858L43.0966 9.80088L43.7841 7.35756L43.853 7.1164L44.1283 6.29035H43.9565C43.3598 6.40557 42.8558 6.52007 42.4427 6.63456L41.6863 6.80678C40.9983 6.99046 40.4944 7.15075 40.1728 7.28863L39.588 7.4952C39.3591 7.56389 39.1641 7.54684 39.0035 7.44356C38.8433 7.34003 38.7627 7.20848 38.7627 7.04771C38.7627 6.81872 38.9234 6.6348 39.2442 6.49717C39.7949 6.26794 40.2073 6.10716 40.4827 6.01508C40.7578 5.92373 41.2284 5.79706 41.8927 5.63628C42.9474 5.36102 43.7846 5.17759 44.4037 5.0855L44.5067 5.05116C44.5756 4.91352 44.6213 4.78758 44.6445 4.6726C44.6671 4.55787 44.6902 4.46579 44.7131 4.39709C44.7818 4.19052 44.8679 3.93254 44.9712 3.62268C45.0744 3.31282 45.1946 2.97471 45.3322 2.60736C45.5155 2.05658 45.6643 1.65537 45.7797 1.40275L46.0545 0.679991C46.3067 0.129211 46.639 -0.386978 47.0524 -0.86882C47.1208 -0.937515 47.1951 -1.00036 47.2759 -1.05785C47.3558 -1.11461 47.4305 -1.17844 47.4992 -1.24713C47.6367 -1.33873 47.8083 -1.38477 48.015 -1.38477C48.359 -1.38477 48.6341 -1.30413 48.8406 -1.14409C49.0005 -1.00645 49.104 -0.81133 49.15 -0.55896C49.1958 -0.146301 49.2189 0.152353 49.2189 0.335784C49.2189 0.795214 49.1614 1.3114 49.0468 1.88459C49.0005 2.25194 48.955 2.55035 48.9092 2.77934L48.5309 4.3625C48.9433 4.3167 49.2532 4.27115 49.4594 4.22511C49.5283 4.22511 49.6773 4.20245 49.9069 4.15617C50.9152 4.01878 51.6833 3.93815 52.2114 3.91549C52.44 3.89259 52.7728 3.8809 53.2088 3.8809C53.4608 3.8809 53.656 3.94424 53.7936 4.06993C53.9309 4.19661 53.9998 4.33984 53.9998 4.50038C53.9998 4.77564 53.8391 4.92522 53.5182 4.94787C53.1056 4.99391 52.532 5.03971 51.7987 5.08526L50.5257 5.22289L48.1526 5.53251L47.7743 6.73711C47.728 6.80605 47.6822 6.9091 47.6367 7.04673C47.4989 7.41408 47.2693 7.96486 46.9485 8.69883C46.5361 9.54778 46.1115 10.3051 45.676 10.9702C45.4232 11.4522 45.1255 11.9112 44.7815 12.3467C44.6897 12.4844 44.6208 12.6452 44.5751 12.8288C44.4378 13.6549 44.3226 14.2744 44.2313 14.6873C44.1851 14.848 44.1393 15.1348 44.0935 15.5477L43.853 16.9934C43.6005 18.2555 43.3941 19.4713 43.2337 20.6416C43.1879 20.8711 43.1419 21.2153 43.0966 21.674L42.9588 22.9475C42.913 23.4064 42.8902 24.0834 42.8902 24.9782C42.8441 25.0469 42.8441 25.1041 42.8902 25.1501L42.9588 25.2191C43.211 25.0125 43.4175 24.7716 43.5781 24.4963C44.0821 23.6927 44.4952 22.9475 44.8161 22.2591C45.2979 21.1351 45.7448 19.9992 46.1577 18.8518C46.3411 18.3476 46.6103 17.5671 46.966 16.5116C47.3214 15.4565 47.6024 14.5616 47.8086 13.8269C47.8775 13.6437 47.9688 13.506 48.0842 13.414C48.1983 13.3226 48.3128 13.2766 48.4279 13.2766C48.5655 13.2766 48.674 13.3399 48.7549 13.4656C48.835 13.5923 48.8518 13.7579 48.8065 13.9647L48.3938 15.4446C48.0267 16.8212 47.8088 17.6014 47.7399 17.7849C47.3275 18.9549 46.8114 20.3317 46.1926 21.9149C46.0085 22.2817 45.7799 22.8325 45.5043 23.5667C45.1606 24.2091 44.8509 24.737 44.5758 25.1499C44.392 25.4481 44.1856 25.7119 43.957 25.9416C43.8881 26.0329 43.7159 26.1706 43.4408 26.3545C43.3259 26.4234 43.1942 26.4578 43.0452 26.4578C42.896 26.4578 42.7986 26.4578 42.7528 26.4578C42.6601 26.4122 42.6148 26.3898 42.6148 26.3898ZM45.7446 8.61308C45.8822 8.34975 46.0423 8.02259 46.2262 7.63235C46.295 7.49496 46.3637 7.32858 46.4328 7.13345C46.5017 6.93857 46.5704 6.7493 46.639 6.56562C46.6848 6.42799 46.7878 6.15272 46.9485 5.73957L46.3639 5.84286C46.2722 6.07209 46.2147 6.24431 46.1923 6.35905L45.7105 8.14878L45.4697 9.11246C45.5153 9.04352 45.6071 8.87739 45.7446 8.61308ZM47.327 4.53497C47.5556 3.68651 47.7278 2.99785 47.8429 2.46972C47.9573 1.94233 48.0029 1.51798 47.9802 1.19618C47.9342 1.21957 47.8882 1.28802 47.8429 1.40275C47.7278 1.72431 47.4755 2.45852 47.086 3.60539L46.7766 4.63801L47.327 4.53497Z" fill="#757575"/>
</svg>
