<svg width="66" height="41" viewBox="0 0 66 41" fill="none" xmlns="http://www.w3.org/2000/svg">
<g clip-path="url(#clip0_1650_56301)">
<g filter="url(#filter0_d_1650_56301)">
<path d="M2.06011 20.5446C1.58359 18.8834 2.60103 17.1638 4.28551 16.7774C8.11296 15.8994 14.5871 14.3776 18.474 13.2627C24.257 11.6039 32.3594 8.53757 38.2687 6.84251C42.5488 5.61481 51.1066 3.66979 55.5003 2.69058C57.0437 2.3466 58.581 3.26732 59.017 4.7873L63.2025 19.3788C63.6793 21.041 62.6597 22.7611 60.9728 23.1418C56.3333 24.1889 47.7545 26.1571 44.1089 27.2028C38.9886 28.6716 32.5249 31.4973 24.3751 33.835C18.927 35.3978 13.0079 36.6614 9.68218 37.3275C8.17133 37.6301 6.69804 36.7134 6.27319 35.2323L2.06011 20.5446Z" fill="#969BDC"/>
<path d="M58.5364 4.92516L62.7219 19.5166C63.1194 20.9024 62.2695 22.3366 60.8628 22.654C56.2292 23.6998 47.6337 25.6716 43.9711 26.7222C41.6894 27.3767 39.1452 28.2978 36.3294 29.3172C35.9603 29.4509 35.5866 29.5862 35.2082 29.7228C31.9354 30.9044 28.2951 32.1904 24.2373 33.3544C18.8087 34.9116 12.9051 36.1721 9.58399 36.8372C8.33358 37.0876 7.10834 36.3305 6.75381 35.0945L2.54073 20.4068C2.14348 19.0219 2.99151 17.5873 4.39731 17.2648C8.22269 16.3872 14.7099 14.8626 18.6119 13.7433C21.4995 12.915 24.9582 11.7388 28.42 10.5616L28.485 10.5396C31.9754 9.35262 35.4659 8.16664 38.4066 7.32313C42.6691 6.10044 51.2108 4.15884 55.609 3.17861C56.8924 2.89259 58.1728 3.65753 58.5364 4.92516Z" stroke="white"/>
</g>
<path d="M11.074 21.1702L9.6855 21.5685C9.77534 21.7678 9.97123 22.3368 10.0375 22.5679C10.1899 23.0993 10.5908 24.5348 10.9686 25.8519C11.3696 27.2498 11.8806 28.8413 12.0529 29.4421C12.1689 29.8465 12.0646 29.9764 11.8835 30.0283C11.6219 30.1034 11.0595 29.9271 10.9535 29.5574C10.811 29.0606 11.276 28.252 12.0688 27.5994C12.7509 27.0162 13.5766 26.5542 14.4319 26.3089C15.3072 26.0578 16.0402 26.3352 16.2688 27.1324C16.5074 27.9643 15.9893 28.6255 15.2207 29.0211C14.9018 29.2001 14.4591 29.3271 14.0164 29.454L14.9 30.8261C15.2993 30.6616 15.7421 30.497 16.1718 30.2487C17.6423 29.3393 17.9712 28.1321 17.5768 26.7572C17.1195 25.1629 15.6269 24.5907 14.0774 25.0352C13.3127 25.2545 12.3495 25.7309 11.5601 26.3574C10.3239 27.3247 9.40427 28.8639 9.72573 29.9846C10.077 31.2092 11.7439 31.7814 12.7199 31.5015C13.3839 31.311 13.7139 30.7912 13.3063 29.3701C13.1141 28.7 12.4804 26.7186 12.1192 25.4593C11.811 24.3849 11.4833 23.1285 11.2718 22.2013C11.199 21.9096 11.0967 21.4013 11.074 21.1702ZM14.3028 21.607L14.0708 22.8864C14.7941 23.054 16.3506 23.5453 16.9661 23.8689L17.2418 22.5145C16.5726 22.2313 15.19 21.8151 14.3028 21.607ZM8.30725 24.0145L8.73843 25.4038C9.09378 25.3518 9.48949 25.2508 10.1536 25.0604C11.039 24.8064 12.5992 24.1338 13.65 23.5072L13.2089 22.0833C12.272 22.7272 10.7653 23.3969 9.71894 23.6971C9.35672 23.801 8.92408 23.9251 8.30725 24.0145Z" fill="white"/>
<path d="M19.4395 19.5083L19.7709 20.6637L26.6328 18.6954L26.3014 17.54L19.4395 19.5083ZM20.0373 21.1749L20.3588 22.2956L26.1944 20.6217L25.873 19.501L20.0373 21.1749ZM19.3271 23.2167L19.6619 24.3836L25.4774 22.7154L25.1427 21.5486L19.3271 23.2167ZM18.984 18.3761C19.0656 20.1032 18.7285 21.8129 17.9742 22.9796C18.3424 23.0865 19.0217 23.3668 19.3328 23.5402C20.0138 22.232 20.3918 20.323 20.3446 18.3359L18.984 18.3761ZM23.1396 23.4485C22.8245 25.5771 21.6656 27.535 20.0562 28.9094C20.3975 29.0741 20.996 29.4901 21.2599 29.727C22.8096 28.1822 24.0395 26.0163 24.4427 23.5499L23.1396 23.4485ZM24.7402 21.664C25.7744 25.1935 26.7541 27.9635 28.4176 27.4988C29.189 27.2651 29.2347 26.5892 28.911 25.1191C28.5998 24.9833 28.1986 24.7233 27.8643 24.469C28.1227 25.4077 28.2614 26.0432 28.1004 26.0893C27.5168 26.2567 26.7564 24.0991 25.9879 21.3061L24.7402 21.664ZM20.0664 25.718C21.8273 26.2382 24.1028 27.186 25.2428 28.0094L25.9038 26.6694C24.6732 25.872 22.3673 25.008 20.6699 24.5571L20.0664 25.718Z" fill="white"/>
<path d="M31.6822 16.6718L32.1164 18.1477C33.4139 17.9256 35.2451 17.4003 36.4328 16.9096L36.0053 15.4192C34.9718 15.8782 32.9761 16.5132 31.6822 16.6718ZM33.9022 21.3742L32.722 21.5877C32.7703 22.2115 32.8392 22.6794 32.9717 23.1415C33.3098 24.32 34.3504 24.7967 36.0809 24.3003C37.2179 23.9742 38.0097 23.6596 38.6206 23.3218L38.143 21.7707C37.3306 22.2413 36.6126 22.5473 35.7171 22.8042C34.6908 23.0986 34.209 22.8992 34.0598 22.3793C33.9737 22.0789 33.9344 21.7901 33.9022 21.3742ZM29.9107 16.3422L28.4656 16.6191C28.5616 16.9917 28.6372 17.4452 28.6865 17.7687C28.8343 18.7016 29.0892 20.7291 29.5896 22.4737C30.0403 24.0449 30.6358 25.3996 31.0624 26.1275L32.1962 25.7147C32.1398 25.5559 32.0834 25.3595 32.0369 25.2353C32.0038 25.1197 31.9611 24.8569 31.9415 24.6749C31.8665 24.0338 31.8406 22.6908 31.854 21.6366L31.0678 21.2494C31.0296 21.6855 30.9813 22.1245 30.943 22.5606C30.8466 22.3382 30.7537 22.0522 30.6874 21.8212C30.356 20.6658 30.0453 18.2542 29.9675 17.4512C29.9481 17.2317 29.9098 16.605 29.9107 16.3422Z" fill="white"/>
<path d="M39.2388 13.3289L39.6431 14.7384L42.4905 13.9216L42.0862 12.5121L39.2388 13.3289ZM41.4926 12.6824C42.1686 15.0393 44.0927 20.0766 48.685 21.6227C48.7969 21.2155 49.1042 20.4646 49.313 20.1297C44.8611 18.6933 43.3698 14.5196 42.7402 12.3245L41.4926 12.6824ZM41.7857 15.3367C42.1206 18.5541 41.5561 21.1418 39.8045 22.9697C40.1893 23.1344 40.9185 23.5504 41.226 23.7873C42.9113 21.7284 43.537 18.8606 43.257 15.2272L41.7857 15.3367Z" fill="white"/>
<path d="M50.5953 9.94627L49.2003 10.2839C49.2797 10.5987 49.3821 11.0695 49.4644 11.5085C49.6582 12.7534 49.935 14.212 50.2465 15.298C50.4686 16.072 50.7311 16.7595 50.9207 17.1927L52.1284 16.7338C51.9257 16.2167 51.8096 15.8499 51.7369 15.5207C51.343 13.9956 51.7995 11.639 52.9868 11.2984C53.8219 11.0589 54.6301 11.9024 55.1404 13.6816C55.9424 16.4775 54.6181 17.7827 52.487 18.8191L53.6361 19.9399C56.14 18.609 57.4366 16.5616 56.4987 13.292C55.7697 10.7502 54.229 9.47914 52.8305 9.88031C51.7036 10.2035 51.0998 11.4396 50.8721 12.4677C50.7468 11.8034 50.6168 10.5528 50.5953 9.94627Z" fill="white"/>
</g>
<defs>
<filter id="filter0_d_1650_56301" x="-0.0574951" y="1.61865" width="65.3775" height="38.7665" filterUnits="userSpaceOnUse" color-interpolation-filters="sRGB">
<feFlood flood-opacity="0" result="BackgroundImageFix"/>
<feColorMatrix in="SourceAlpha" type="matrix" values="0 0 0 0 0 0 0 0 0 0 0 0 0 0 0 0 0 0 127 0" result="hardAlpha"/>
<feOffset dy="1"/>
<feGaussianBlur stdDeviation="1"/>
<feComposite in2="hardAlpha" operator="out"/>
<feColorMatrix type="matrix" values="0 0 0 0 0 0 0 0 0 0 0 0 0 0 0 0 0 0 0.25 0"/>
<feBlend mode="normal" in2="BackgroundImageFix" result="effect1_dropShadow_1650_56301"/>
<feBlend mode="normal" in="SourceGraphic" in2="effect1_dropShadow_1650_56301" result="shape"/>
</filter>
<clipPath id="clip0_1650_56301">
<rect width="61" height="25" fill="white" transform="translate(0 16.8193) rotate(-16.0052)"/>
</clipPath>
</defs>
</svg>
