<svg width="39" height="49" viewBox="0 0 39 49" fill="none" xmlns="http://www.w3.org/2000/svg">
<g filter="url(#filter0_d_1650_56386)">
<path d="M35.2695 29.7888L34.7734 29.851C35.2695 29.7888 35.2696 29.789 35.2696 29.7891L35.2696 29.7895L35.2697 29.7903L35.2699 29.7921L35.2705 29.7967L35.2719 29.8095C35.2729 29.8198 35.2742 29.8333 35.2756 29.85C35.2783 29.8835 35.2812 29.9298 35.2831 29.9882C35.287 30.105 35.2868 30.2702 35.2722 30.4779C35.243 30.8923 35.1565 31.4753 34.9311 32.179C34.8754 32.3678 34.8216 32.5501 34.7697 32.7265C34.0835 35.0561 33.7069 36.3349 33.1344 37.4241L33.1279 37.4365L33.1277 37.4364C33.0969 37.4913 33.0657 37.5469 33.0341 37.6033C32.3023 38.9094 31.3473 40.614 29.3686 42.108C28.7835 42.5731 26.7832 43.9485 23.8462 44.3357C23.0585 44.4475 21.4658 44.4999 19.8951 44.4999C18.321 44.4999 16.7032 44.4472 15.8662 44.336L15.8628 44.3356C12.7022 43.8935 10.5416 42.4031 9.92749 41.958C7.69306 40.3434 6.63433 38.3911 5.83076 36.8963L5.8296 36.8941C5.35725 36.005 4.98958 35.0282 4.54713 33.5425L4.50186 33.5425L4.40114 33.1745C4.3149 32.8594 4.22035 32.5523 4.11714 32.2172C4.024 31.9147 3.92381 31.5894 3.81631 31.2146C3.59022 30.4533 3.51761 29.8264 3.50299 29.3821C3.49568 29.1598 3.50288 28.9835 3.51257 28.859C3.51741 28.7967 3.52287 28.7474 3.52746 28.7118C3.52975 28.694 3.53182 28.6796 3.53348 28.6688L3.53565 28.6551L3.53646 28.6503L3.53679 28.6484L3.53694 28.6476L3.53701 28.6472C3.53702 28.6471 3.53704 28.647 3.58279 28.6551V28.6549L3.53707 28.6468L3.58279 28.3887V27.7853L3.67806 27.8506L3.70405 27.7039L4.23242 28.2304L4.36528 28.3215L4.36529 28.3215L4.36533 28.3215L4.36539 28.3215L4.36548 28.3216L4.36681 28.3225L4.37316 28.3268L4.40041 28.3452C4.42496 28.3616 4.46217 28.3863 4.51142 28.4185C4.60994 28.4829 4.75655 28.5771 4.94628 28.6944C5.02789 28.7449 5.11744 28.7996 5.21455 28.8581C4.75083 27.4544 4.93411 26.1935 5.18946 24.5647C5.38192 23.1974 5.81862 21.4451 6.45363 19.846C7.08097 18.2663 7.93682 16.7452 9.0142 15.9399C9.23873 15.7721 9.69035 15.4331 9.84992 14.9163L9.85293 14.9065L9.85635 14.8969C9.97018 14.5755 9.93799 14.2471 9.86825 13.9575C9.84212 13.849 9.81487 13.7605 9.78818 13.6739C9.77807 13.641 9.76803 13.6084 9.75817 13.5751C9.74405 13.5274 9.72133 13.4494 9.71182 13.373C9.70732 13.3369 9.69973 13.2592 9.71939 13.1685C9.74122 13.0678 9.81069 12.9011 9.99792 12.8078L10.1032 12.7553H10.1992C10.329 12.7298 10.4461 12.7552 10.5191 12.7808C10.629 12.8192 10.7194 12.8824 10.7841 12.9344C10.9181 13.0419 11.059 13.1979 11.2009 13.3783C11.3759 13.6006 11.5772 13.892 11.7989 14.2489C12.729 12.6068 14.0179 11.0252 15.3927 9.84414L15.3938 9.84321C15.4209 9.82008 15.4491 9.79602 15.4784 9.77105C15.8604 9.44571 16.4233 8.96635 16.9295 8.38555C17.4813 7.75258 17.9092 7.06148 17.9977 6.38594C18.0613 5.82934 17.9034 5.38574 17.7306 5.02936C17.6867 4.93893 17.6429 4.85601 17.5995 4.77399L17.599 4.77306L17.5963 4.76792C17.556 4.69159 17.5114 4.60729 17.4761 4.52974C17.4429 4.45684 17.3964 4.34545 17.3812 4.2215C17.3639 4.08168 17.3823 3.87011 17.554 3.69903C17.7608 3.49288 18.0151 3.49798 18.1032 3.49975C18.1099 3.49988 18.1157 3.5 18.1204 3.5C18.3963 3.5 18.7537 3.60698 19.1207 3.7535C19.5073 3.90783 19.968 4.1326 20.4738 4.4208C21.4858 4.99749 22.7014 5.84145 23.8935 6.92053C26.2686 9.07044 28.609 12.2086 28.9728 16.0793C28.9729 16.0798 28.9729 16.0804 28.973 16.0809L28.4752 16.1276C28.5151 16.5257 28.555 17.0429 28.5503 17.59L35.2695 29.7888ZM35.2695 29.7888L35.1643 28.9502L34.4802 29.446L34.4802 29.446L34.4801 29.4461L34.4801 29.4461L34.48 29.4462L34.4796 29.4464L34.4758 29.4492L34.4581 29.4617C34.4419 29.4732 34.4167 29.4907 34.3828 29.5139C34.315 29.5603 34.2124 29.629 34.0767 29.7159C34.0347 29.7428 33.9896 29.7715 33.9413 29.8017C34.0282 29.4566 34.1192 29.0459 34.1988 28.5786C34.4464 27.1257 34.5844 25.1225 34.1438 22.8432C33.7963 20.9659 32.7086 18.9719 32.1458 17.9401C32.0742 17.8088 32.0111 17.6931 31.9591 17.5952L31.9591 17.5952L31.9566 17.5906C31.4419 16.6458 30.9905 15.9355 30.6484 15.4623C30.4786 15.2276 30.3289 15.0416 30.2065 14.9125C30.1476 14.8505 30.0801 14.7855 30.0091 14.7349C29.9752 14.7107 29.9186 14.6738 29.8457 14.6476C29.8061 14.6334 29.7183 14.6068 29.6093 14.617H29.596C29.4435 14.617 29.2843 14.6848 29.1792 14.8264C29.0961 14.9384 29.0807 15.0525 29.0764 15.0998C29.0676 15.1971 29.0854 15.2867 29.0925 15.3218C29.104 15.379 29.1253 15.4604 29.1437 15.531C29.1514 15.5604 29.1586 15.5879 29.1644 15.611L29.1778 15.6644L29.202 15.7125C29.2024 15.7134 29.2035 15.7164 29.2054 15.7223C29.2086 15.7321 29.2106 15.7392 29.2144 15.7526C29.2163 15.7596 29.2188 15.7683 29.2222 15.7801C29.2293 15.805 29.2435 15.8543 29.2662 15.9062C29.2697 15.9143 29.2737 15.923 29.2781 15.9321C29.3202 16.2103 29.3424 16.5073 29.2746 16.7898C29.2362 16.9056 29.1545 17.0328 29.0456 17.1585L35.2695 29.7888ZM30.0709 15.1135C30.071 15.1134 30.0714 15.1157 30.072 15.12C30.0712 15.1156 30.0709 15.1136 30.0709 15.1135ZM10.145 13.7044C10.145 13.7044 10.1456 13.7048 10.1469 13.7057C10.1457 13.7049 10.145 13.7045 10.145 13.7044Z" fill="#E16620" stroke="white"/>
<path d="M34.9857 29.8857C34.9857 29.8857 34.393 30.3118 33.3152 30.8977C33.3152 30.7379 34.7163 27.3824 33.8541 22.9616C33.4769 20.9376 32.1836 18.7539 31.6987 17.8484C30.6748 15.9843 29.9204 15.0788 29.8127 15.1321C29.7049 15.1853 30.2437 16.0375 29.9204 16.943C29.7049 17.6354 28.7349 18.2213 28.681 18.168C28.7349 17.4223 28.681 16.6767 28.6272 16.144C27.8728 8.3145 18.6583 3.46763 18.0116 4.05352C17.7961 4.26657 18.766 5.0655 18.6044 6.45032C18.3888 8.10145 16.5567 9.59279 15.8023 10.2319C14.1857 11.5635 12.7847 13.4277 11.8686 15.3451C11.0064 13.907 10.4137 13.2146 10.3059 13.2679C10.1982 13.3211 10.737 14.1733 10.4137 15.0788C10.1982 15.7179 9.60541 16.0908 9.38986 16.2506C7.44997 17.6887 6.10282 21.8964 5.72562 24.5595C5.45619 26.4237 5.29453 27.6487 5.94116 29.14C6.04893 29.4063 6.21059 29.6727 6.37225 29.939C6.37225 29.9922 6.37225 30.0455 6.37225 30.0455C4.97121 29.2998 4.10904 28.7139 4.10904 28.7139C4.10904 28.7139 3.94738 29.6194 4.37847 31.0575C5.18676 33.9869 5.61785 35.425 6.26448 36.65C7.07277 38.1414 8.0966 40.0055 10.252 41.5501C10.8448 41.9762 12.9463 43.4143 16.0178 43.8404C17.6344 44.0535 22.4303 44.0535 23.9391 43.8404C26.795 43.4676 28.7349 42.136 29.2738 41.7099C31.2676 40.2186 32.1836 38.5142 32.938 37.1826C33.5308 36.0641 33.908 34.7326 34.7163 32.0162C35.0935 30.7379 34.9857 29.8857 34.9857 29.8857Z" fill="url(#paint0_linear_1650_56386)"/>
<path d="M12.0304 41.2305C12.5693 41.6033 14.3475 42.8816 17.0957 43.2545C18.4967 43.4143 22.6998 43.4143 24.047 43.2545C25.9869 42.9882 27.4418 42.2425 28.2501 41.7099C28.5734 41.2305 28.8428 40.6979 29.1123 40.2718C29.5433 39.4729 29.8128 38.4609 30.4055 36.4902C30.675 35.5315 30.6211 34.9456 30.6211 34.9456C30.6211 34.9456 30.0283 35.3184 29.1123 35.851C29.1123 35.7978 29.1123 35.7978 29.1123 35.7445C29.22 35.5847 29.3278 35.3717 29.3817 35.2119C29.8128 34.1999 29.705 33.401 29.4895 32.1227C29.22 30.3118 28.3579 27.4889 27.0107 26.5301C26.849 26.4236 26.4718 26.1573 26.3102 25.6779C26.0946 25.0388 26.4718 24.5062 26.418 24.4529C26.3102 24.3996 25.933 24.879 25.3402 25.8377C24.7475 24.5594 23.7775 23.2811 22.6998 22.4289C22.2149 22.0028 20.9755 20.9909 20.8138 19.8724C20.706 18.9669 21.3527 18.381 21.191 18.2745C20.7599 17.9016 14.563 21.1506 14.0781 26.4769C14.0242 26.8497 14.0242 27.3291 14.0242 27.8084C14.0242 27.8084 13.3237 27.4356 13.162 26.9562C12.9465 26.3171 13.3237 25.7845 13.2698 25.7312C13.162 25.6779 12.677 26.2638 11.9765 27.5421C11.6532 28.1813 10.791 29.6726 10.5216 31.0042C9.92885 33.9868 10.8449 36.2239 10.8449 36.3304C10.1444 35.9576 9.71331 35.638 9.71331 35.638C9.71331 35.638 9.60553 36.1706 9.87496 37.0761C10.3061 38.6207 10.5755 39.4729 10.8988 40.1653C11.2221 40.6446 11.5993 40.9642 12.0304 41.2305Z" fill="#EF8215"/>
<path d="M30.8904 19.3396C30.9443 19.9255 30.9981 20.6179 30.9443 21.4701C30.9981 21.5234 32.0759 20.8842 32.2914 20.1386C32.3992 19.819 32.3992 19.4462 32.3453 19.1798C32.0759 18.6472 31.8064 18.1679 31.6448 17.8483C30.6209 15.9841 29.8665 15.0787 29.7588 15.1319C29.7049 15.1319 29.7588 15.2917 29.8127 15.5048C30.3515 16.7298 30.7287 18.0081 30.8904 19.3396Z" fill="#EF7720"/>
<path d="M4.91738 33.0281C5.34847 33.2411 5.83344 33.5607 6.53396 33.9336C6.53396 33.8803 6.53396 33.827 6.53396 33.827C6.3723 33.5607 6.21064 33.2944 6.10287 33.0281C5.6179 31.9096 5.56401 30.9509 5.67178 29.7791C4.64795 29.1932 4.0552 28.8204 4.0552 28.8204C4.0552 28.8204 3.89355 29.7258 4.32463 31.1639C4.54018 31.8031 4.70184 32.4422 4.91738 33.0281Z" fill="#EF7720"/>
<path d="M5.8334 28.181C6.26449 25.3581 7.71941 20.9374 9.87485 19.446C10.0904 19.2862 10.737 18.8602 11.0065 18.1145C11.3298 17.1558 10.737 16.3036 10.8448 16.197C10.9526 16.1438 11.6531 16.8362 12.5692 18.3808C13.5391 16.4101 15.1557 14.4394 16.88 13.0546C17.6883 12.4154 19.736 10.8176 19.9515 9.11316C20.1132 7.67508 19.0894 6.82288 19.3049 6.60983C19.736 6.237 23.8852 8.10118 27.1184 11.6165C24.3163 6.50331 18.4966 3.62715 18.0116 4.05324C17.7422 4.26629 18.7122 5.06523 18.5505 6.45005C18.335 8.10118 16.5028 9.59252 15.7484 10.2317C14.1318 11.5632 12.7308 13.4274 11.8147 15.3448C10.9526 13.9068 10.3598 13.2144 10.2521 13.2676C10.1443 13.3209 10.6831 14.1731 10.3598 15.0785C10.1443 15.7709 9.55154 16.197 9.33599 16.3568C7.3961 17.7949 6.04895 22.0026 5.67175 24.6657C5.40232 26.3701 5.24066 27.5419 5.72563 28.8735C5.77952 28.6071 5.77952 28.3941 5.8334 28.181Z" fill="#EF7720"/>
<path d="M14.1319 40.0054C15.4711 40.0054 16.5568 38.9323 16.5568 37.6086C16.5568 36.2849 15.4711 35.2118 14.1319 35.2118C12.7927 35.2118 11.707 36.2849 11.707 37.6086C11.707 38.9323 12.7927 40.0054 14.1319 40.0054Z" fill="#F3F5F2"/>
<path d="M26.0946 40.0054C27.4338 40.0054 28.5195 38.9323 28.5195 37.6086C28.5195 36.2849 27.4338 35.2118 26.0946 35.2118C24.7554 35.2118 23.6697 36.2849 23.6697 37.6086C23.6697 38.9323 24.7554 40.0054 26.0946 40.0054Z" fill="#F3F5F2"/>
<path d="M14.8324 39.5795C15.6061 39.5795 16.2334 38.9594 16.2334 38.1946C16.2334 37.4298 15.6061 36.8098 14.8324 36.8098C14.0586 36.8098 13.4313 37.4298 13.4313 38.1946C13.4313 38.9594 14.0586 39.5795 14.8324 39.5795Z" fill="#451116"/>
<path d="M25.3941 39.5795C26.1678 39.5795 26.7951 38.9594 26.7951 38.1946C26.7951 37.4298 26.1678 36.8098 25.3941 36.8098C24.6203 36.8098 23.993 37.4298 23.993 38.1946C23.993 38.9594 24.6203 39.5795 25.3941 39.5795Z" fill="#451116"/>
<path d="M21.9453 39.7924C21.8376 39.7924 21.7837 39.7391 21.6759 39.7391C21.5142 39.7391 21.3526 39.7924 21.2448 39.8989C20.6521 40.325 19.6821 40.325 19.0894 39.8989C18.9816 39.7924 18.8199 39.7391 18.6583 39.7391C18.5505 39.7391 18.4427 39.7391 18.3889 39.7924C17.9039 39.8989 17.5806 40.325 17.5806 40.8576C17.5806 41.2837 17.85 41.6566 18.2272 41.8696C18.2811 41.8696 18.2811 41.9229 18.335 41.9229C18.8738 42.1359 19.5205 42.2425 20.1671 42.2425C20.8676 42.2425 21.5142 42.1359 21.9992 41.9229C22.0531 41.9229 22.107 41.8696 22.107 41.8696C22.4842 41.7098 22.7536 41.337 22.7536 40.8576C22.7536 40.3783 22.4303 39.9522 21.9453 39.7924Z" fill="#DA3831"/>
<path d="M22.1069 41.337C22.053 41.337 22.053 41.2837 21.9991 41.2837C21.4602 41.0707 20.8136 40.9642 20.167 40.9642C19.4664 40.9642 18.8198 41.0707 18.3348 41.2837C18.281 41.2837 18.2271 41.337 18.2271 41.337C18.1193 41.3903 18.0115 41.4968 17.9037 41.6033C18.0115 41.7098 18.1193 41.8164 18.2271 41.8696C18.2809 41.8696 18.281 41.9229 18.3348 41.9229C18.8737 42.1359 19.5203 42.2425 20.167 42.2425C20.8675 42.2425 21.5141 42.1359 21.9991 41.9229C22.053 41.9229 22.1069 41.8696 22.1069 41.8696C22.2146 41.8164 22.3224 41.7098 22.4302 41.6033C22.3763 41.4968 22.2685 41.3903 22.1069 41.337Z" fill="#E16620"/>
<path d="M19.305 41.0705C19.305 41.0705 19.1972 40.5911 19.305 40.5379C19.5204 40.4313 20.1128 41.0705 20.1128 41.0705H19.305Z" fill="#E16620"/>
<path d="M20.9749 41.0705C20.9749 41.0705 21.0827 40.5911 20.9749 40.5379C20.7595 40.4313 20.1671 41.0705 20.1671 41.0705H20.9749Z" fill="#E16620"/>
</g>
<path d="M9.93 30H11.622L12.678 28.224C12.726 28.14 12.786 28.032 12.846 27.9H12.87L13.05 28.224L14.106 30H15.81L13.782 26.904L15.75 23.88H14.022L13.074 25.548C13.014 25.656 12.942 25.788 12.87 25.932H12.846L12.654 25.548L11.706 23.88H9.978L11.946 26.904L9.93 30ZM16.7887 30H18.2647L20.5327 26.736C20.8087 26.304 20.9647 26.064 20.9887 26.004H21.0127C20.9887 26.316 20.9767 26.568 20.9767 26.736V30H22.4287V23.88H20.9527L18.6847 27.156C18.4087 27.576 18.2527 27.816 18.2287 27.888H18.2047C18.2287 27.696 18.2407 27.456 18.2407 27.156V23.88H16.7887V30ZM25.494 30H27.006V25.176H29.034V23.88H23.478V25.176H25.494V30Z" fill="white"/>
<defs>
<filter id="filter0_d_1650_56386" x="0" y="0.998352" width="38.7853" height="48.0016" filterUnits="userSpaceOnUse" color-interpolation-filters="sRGB">
<feFlood flood-opacity="0" result="BackgroundImageFix"/>
<feColorMatrix in="SourceAlpha" type="matrix" values="0 0 0 0 0 0 0 0 0 0 0 0 0 0 0 0 0 0 127 0" result="hardAlpha"/>
<feOffset dy="1"/>
<feGaussianBlur stdDeviation="1.5"/>
<feComposite in2="hardAlpha" operator="out"/>
<feColorMatrix type="matrix" values="0 0 0 0 0 0 0 0 0 0 0 0 0 0 0 0 0 0 0.25 0"/>
<feBlend mode="normal" in2="BackgroundImageFix" result="effect1_dropShadow_1650_56386"/>
<feBlend mode="normal" in="SourceGraphic" in2="effect1_dropShadow_1650_56386" result="shape"/>
</filter>
<linearGradient id="paint0_linear_1650_56386" x1="19.5231" y1="13.2833" x2="19.5231" y2="43.8735" gradientUnits="userSpaceOnUse">
<stop stop-color="#E65C3C"/>
<stop offset="0.277" stop-color="#DF563C"/>
<stop offset="0.6574" stop-color="#CC473A"/>
<stop offset="1" stop-color="#B53637"/>
</linearGradient>
</defs>
</svg>
