<svg width="24" height="24" viewBox="0 0 24 24" fill="none" xmlns="http://www.w3.org/2000/svg">
<path d="M12.0171 4.2312C5.40439 4.2312 0.0336914 9.75647 0.0336914 16.5595C0.0336914 16.7321 0.0336914 16.9393 0.0336914 17.112C3.15541 20.1854 7.35127 22.0502 11.9835 22.0502C16.6157 22.0502 20.8452 20.1854 23.9333 17.112C23.9333 16.9393 23.9333 16.7321 23.9333 16.5595C23.9669 9.75647 18.5962 4.2312 12.0171 4.2312Z" fill="#B9DD9F"/>
<path d="M4.7665 12.6575C7.39896 12.6575 9.53299 10.462 9.53299 7.75378C9.53299 5.04555 7.39896 2.8501 4.7665 2.8501C2.13403 2.8501 0 5.04555 0 7.75378C0 10.462 2.13403 12.6575 4.7665 12.6575Z" fill="#82AF5D"/>
<path d="M19.2339 13.1406C21.8664 13.1406 24.0004 10.9452 24.0004 8.23693C24.0004 5.5287 21.8664 3.33325 19.2339 3.33325C16.6014 3.33325 14.4674 5.5287 14.4674 8.23693C14.4674 10.9452 16.6014 13.1406 19.2339 13.1406Z" fill="#82AF5D"/>
<path d="M4.73257 10.8619C6.40103 10.8619 7.75359 9.47045 7.75359 7.75396C7.75359 6.03748 6.40103 4.646 4.73257 4.646C3.0641 4.646 1.71155 6.03748 1.71155 7.75396C1.71155 9.47045 3.0641 10.8619 4.73257 10.8619Z" fill="white"/>
<path d="M19.2671 10.8619C20.9355 10.8619 22.2881 9.47045 22.2881 7.75396C22.2881 6.03748 20.9355 4.646 19.2671 4.646C17.5986 4.646 16.246 6.03748 16.246 7.75396C16.246 9.47045 17.5986 10.8619 19.2671 10.8619Z" fill="white"/>
<path d="M5.57231 8.68555C5.37091 8.68555 5.23664 8.54742 5.23664 8.34022C5.23664 7.85676 4.8674 7.44237 4.3639 7.44237C3.89396 7.44237 3.49116 7.82223 3.49116 8.34022C3.49116 8.54742 3.35689 8.68555 3.15549 8.68555C2.95409 8.68555 2.81982 8.54742 2.81982 8.34022C2.81982 7.4769 3.49116 6.75171 4.3639 6.75171C5.23664 6.75171 5.90798 7.44237 5.90798 8.34022C5.90798 8.54742 5.74014 8.68555 5.57231 8.68555Z" fill="#525C6B"/>
<path d="M20.8449 8.68555C20.6435 8.68555 20.5093 8.54742 20.5093 8.34022C20.5093 7.85676 20.14 7.44237 19.6365 7.44237C19.1666 7.44237 18.7638 7.82223 18.7638 8.34022C18.7638 8.54742 18.6295 8.68555 18.4281 8.68555C18.2267 8.68555 18.0925 8.54742 18.0925 8.34022C18.0925 7.4769 18.7638 6.75171 19.6365 6.75171C20.5093 6.75171 21.1806 7.44237 21.1806 8.34022C21.1806 8.54742 21.0128 8.68555 20.8449 8.68555Z" fill="#525C6B"/>
<path d="M10.8089 11.794C11.3124 11.794 11.7488 11.5522 12.0173 11.1724C12.2858 11.5522 12.7222 11.794 13.2257 11.794C14.0649 11.794 14.7698 11.1033 14.7698 10.2054C14.7698 9.99824 14.6355 9.86011 14.4341 9.86011C14.2327 9.86011 14.0985 9.99824 14.0985 10.2054C14.0985 10.6889 13.7292 11.1033 13.2257 11.1033C12.7222 11.1033 12.3866 10.7234 12.3866 10.2054C12.3866 9.99824 12.2187 9.86011 12.0173 9.86011C11.8159 9.86011 11.6816 9.99824 11.6816 10.2054C11.6816 10.6889 11.3124 11.1033 10.8089 11.1033C10.3054 11.1033 9.93617 10.7234 9.93617 10.2054C9.93617 9.99824 9.8019 9.86011 9.6005 9.86011C9.3991 9.86011 9.26483 9.99824 9.26483 10.2054C9.26483 11.1033 9.93617 11.794 10.8089 11.794Z" fill="#525C6B"/>
<path d="M11.0097 7.13157C11.0097 7.33877 10.909 7.4769 10.8083 7.4769C10.6741 7.4769 10.5734 7.33877 10.5734 7.13157C10.5734 6.92437 10.6741 6.75171 10.7748 6.75171C10.9426 6.78624 11.0097 6.92437 11.0097 7.13157Z" fill="#3B3B3B"/>
<path d="M12.9904 7.13244C12.9904 6.92524 13.0575 6.78711 13.1918 6.78711C13.326 6.78711 13.4267 6.92524 13.4267 7.13244C13.4267 7.33964 13.326 7.5123 13.2253 7.5123C13.0911 7.5123 12.9904 7.33964 12.9904 7.13244Z" fill="#3B3B3B"/>
</svg>
