<svg width="24" height="24" viewBox="0 0 24 24" fill="none" xmlns="http://www.w3.org/2000/svg">
<g clip-path="url(#clip0_1630_12670)">
<path d="M12.0136 10.3001L0.599304 10.1626L1.71622 19.5378C1.85243 20.72 2.83313 21.5998 4.00453 21.5998H19.9954C21.1668 21.5998 22.1475 20.72 22.2838 19.5378L23.4007 10.1626L12.0136 10.3001ZM4.30418 18.7955C4.30418 19.0704 4.08625 19.2904 3.81383 19.2904C3.54142 19.2904 3.35072 19.0704 3.35072 18.7955V13.6817C3.35072 13.4068 3.56866 13.1869 3.84107 13.1869C4.11349 13.1869 4.33143 13.4068 4.33143 13.6817V18.7955H4.30418ZM6.64698 18.7955C6.64698 19.0704 6.42904 19.2904 6.15663 19.2904C5.88421 19.2904 5.69351 19.0704 5.69351 18.7955V13.6817C5.69351 13.4068 5.91145 13.1869 6.18387 13.1869C6.45628 13.1869 6.67422 13.4068 6.67422 13.6817V18.7955H6.64698ZM8.98977 18.7955C8.98977 19.0704 8.77184 19.2904 8.49942 19.2904C8.227 19.2904 8.00907 19.0704 8.00907 18.7955V13.6817C8.00907 13.4068 8.227 13.1869 8.49942 13.1869C8.77184 13.1869 8.98977 13.4068 8.98977 13.6817V18.7955ZM11.3053 18.7955C11.3053 19.0704 11.0874 19.2904 10.815 19.2904C10.5426 19.2904 10.3519 19.0704 10.3519 18.7955V13.6817C10.3519 13.4068 10.5698 13.1869 10.8422 13.1869C11.1146 13.1869 11.3326 13.4068 11.3326 13.6817V18.7955H11.3053ZM13.6481 18.7955C13.6481 19.0704 13.4302 19.2904 13.1578 19.2904C12.8853 19.2904 12.6674 19.0704 12.6674 18.7955V13.6817C12.6674 13.4068 12.8853 13.1869 13.1578 13.1869C13.4302 13.1869 13.6481 13.4068 13.6481 13.6817V18.7955ZM15.9909 18.7955C15.9909 19.0704 15.773 19.2904 15.5006 19.2904C15.2281 19.2904 15.0102 19.0704 15.0102 18.7955V13.6817C15.0102 13.4068 15.2281 13.1869 15.5006 13.1869C15.773 13.1869 15.9909 13.4068 15.9909 13.6817V18.7955ZM18.3065 18.7955C18.3065 19.0704 18.0885 19.2904 17.8161 19.2904C17.5437 19.2904 17.353 19.0704 17.353 18.7955V13.6817C17.353 13.4068 17.5709 13.1869 17.8433 13.1869C18.1158 13.1869 18.3337 13.4068 18.3337 13.6817V18.7955H18.3065ZM20.6492 18.7955C20.6492 19.0704 20.4313 19.2904 20.1589 19.2904C19.8865 19.2904 19.6685 19.0704 19.6685 18.7955V13.6817C19.6685 13.4068 19.8865 13.1869 20.1589 13.1869C20.4313 13.1869 20.6492 13.4068 20.6492 13.6817V18.7955Z" fill="#B9DD9F"/>
<path d="M22.8558 11.7574H1.14415C0.517594 11.7574 0 11.2351 0 10.6027V9.75042C0 9.11808 0.517594 8.5957 1.14415 8.5957H22.8286C23.4552 8.5957 23.9728 9.11808 23.9728 9.75042V10.6027C24 11.2351 23.4824 11.7574 22.8558 11.7574Z" fill="#82AF5D"/>
<path d="M5.61181 10.85L5.23043 10.6026C4.95801 10.4102 4.87629 10.0527 5.03974 9.77781L10.2157 1.47485C10.4064 1.19991 10.7605 1.11743 11.0329 1.28239L11.4416 1.55733C11.714 1.74978 11.7957 2.10719 11.6322 2.38212L6.45631 10.6576C6.26562 10.9325 5.91147 11.015 5.61181 10.85Z" fill="#525C6B"/>
<path d="M18.3882 10.85L18.7696 10.6026C19.042 10.4102 19.1237 10.0527 18.9603 9.77781L13.7844 1.47485C13.5937 1.19991 13.2395 1.11743 12.9671 1.28239L12.5857 1.52983C12.3133 1.72228 12.2316 2.0797 12.395 2.35463L17.571 10.6301C17.7344 10.9325 18.1158 11.015 18.3882 10.85Z" fill="#525C6B"/>
</g>
<defs>
<clipPath id="clip0_1630_12670">
<rect width="24" height="20.4" fill="white" transform="translate(0 1.19995)"/>
</clipPath>
</defs>
</svg>
