<svg width="20" height="20" viewBox="0 0 20 20" fill="none" xmlns="http://www.w3.org/2000/svg">
<path d="M5 3C5 4.10457 4.10457 5 3 5C1.89543 5 1 4.10457 1 3C1 1.89543 1.89543 1 3 1C4.10457 1 5 1.89543 5 3Z" fill="white"/>
<path d="M5 10C5 11.1046 4.10457 12 3 12C1.89543 12 1 11.1046 1 10C1 8.89543 1.89543 8 3 8C4.10457 8 5 8.89543 5 10Z" fill="white"/>
<path d="M5 17C5 18.1046 4.10457 19 3 19C1.89543 19 1 18.1046 1 17C1 15.8954 1.89543 15 3 15C4.10457 15 5 15.8954 5 17Z" fill="white"/>
<path d="M12 3C12 4.10457 11.1046 5 10 5C8.89543 5 8 4.10457 8 3C8 1.89543 8.89543 1 10 1C11.1046 1 12 1.89543 12 3Z" fill="white"/>
<path d="M12 10C12 11.1046 11.1046 12 10 12C8.89543 12 8 11.1046 8 10C8 8.89543 8.89543 8 10 8C11.1046 8 12 8.89543 12 10Z" fill="white"/>
<path d="M12 17C12 18.1046 11.1046 19 10 19C8.89543 19 8 18.1046 8 17C8 15.8954 8.89543 15 10 15C11.1046 15 12 15.8954 12 17Z" fill="white"/>
<path d="M19 3C19 4.10457 18.1046 5 17 5C15.8954 5 15 4.10457 15 3C15 1.89543 15.8954 1 17 1C18.1046 1 19 1.89543 19 3Z" fill="white"/>
<path d="M19 10C19 11.1046 18.1046 12 17 12C15.8954 12 15 11.1046 15 10C15 8.89543 15.8954 8 17 8C18.1046 8 19 8.89543 19 10Z" fill="white"/>
<path d="M19 17C19 18.1046 18.1046 19 17 19C15.8954 19 15 18.1046 15 17C15 15.8954 15.8954 15 17 15C18.1046 15 19 15.8954 19 17Z" fill="white"/>
</svg>
