<svg width="24" height="24" viewBox="0 0 24 24" fill="none" xmlns="http://www.w3.org/2000/svg">
<path d="M12.0171 4.23114C5.40439 4.23114 0.0336914 9.75641 0.0336914 16.5594C0.0336914 16.7321 0.0336914 16.9393 0.0336914 17.1119C3.15541 20.1854 7.35127 22.0501 11.9835 22.0501C16.6157 22.0501 20.8452 20.1854 23.9333 17.1119C23.9333 16.9393 23.9333 16.7321 23.9333 16.5594C23.9669 9.75641 18.5962 4.23114 12.0171 4.23114Z" fill="#B9DD9F"/>
<path d="M4.7665 12.6574C7.39896 12.6574 9.53299 10.4619 9.53299 7.75369C9.53299 5.04546 7.39896 2.85001 4.7665 2.85001C2.13403 2.85001 0 5.04546 0 7.75369C0 10.4619 2.13403 12.6574 4.7665 12.6574Z" fill="#82AF5D"/>
<path d="M19.2338 13.1405C21.8662 13.1405 24.0003 10.9451 24.0003 8.23684C24.0003 5.52861 21.8662 3.33316 19.2338 3.33316C16.6013 3.33316 14.4673 5.52861 14.4673 8.23684C14.4673 10.9451 16.6013 13.1405 19.2338 13.1405Z" fill="#82AF5D"/>
<path d="M4.73244 10.8619C6.40091 10.8619 7.75346 9.47038 7.75346 7.7539C7.75346 6.03742 6.40091 4.64594 4.73244 4.64594C3.06398 4.64594 1.71143 6.03742 1.71143 7.7539C1.71143 9.47038 3.06398 10.8619 4.73244 10.8619Z" fill="white"/>
<path d="M19.2671 10.8619C20.9356 10.8619 22.2881 9.47045 22.2881 7.75396C22.2881 6.03748 20.9356 4.646 19.2671 4.646C17.5986 4.646 16.2461 6.03748 16.2461 7.75396C16.2461 9.47045 17.5986 10.8619 19.2671 10.8619Z" fill="white"/>
<path d="M5.57231 8.68555C5.37091 8.68555 5.23664 8.54742 5.23664 8.34022C5.23664 7.85676 4.8674 7.44237 4.3639 7.44237C3.89396 7.44237 3.49116 7.82223 3.49116 8.34022C3.49116 8.54742 3.35689 8.68555 3.15549 8.68555C2.95409 8.68555 2.81982 8.54742 2.81982 8.34022C2.81982 7.4769 3.49116 6.75171 4.3639 6.75171C5.23664 6.75171 5.90798 7.44237 5.90798 8.34022C5.90798 8.54742 5.74014 8.68555 5.57231 8.68555Z" fill="#525C6B"/>
<path d="M20.8448 8.68561C20.6434 8.68561 20.5091 8.54748 20.5091 8.34029C20.5091 7.85682 20.1399 7.44243 19.6364 7.44243C19.1664 7.44243 18.7636 7.82229 18.7636 8.34029C18.7636 8.54748 18.6294 8.68561 18.428 8.68561C18.2266 8.68561 18.0923 8.54748 18.0923 8.34029C18.0923 7.47696 18.7636 6.75177 19.6364 6.75177C20.5091 6.75177 21.1804 7.44243 21.1804 8.34029C21.1804 8.54748 21.0126 8.68561 20.8448 8.68561Z" fill="#525C6B"/>
<path d="M10.8087 11.794C11.3122 11.794 11.7486 11.5523 12.0171 11.1724C12.2857 11.5523 12.722 11.794 13.2255 11.794C14.0647 11.794 14.7696 11.1033 14.7696 10.2055C14.7696 9.99827 14.6353 9.86014 14.4339 9.86014C14.2325 9.86014 14.0983 9.99827 14.0983 10.2055C14.0983 10.6889 13.729 11.1033 13.2255 11.1033C12.722 11.1033 12.3864 10.7235 12.3864 10.2055C12.3864 9.99827 12.2185 9.86014 12.0171 9.86014C11.8157 9.86014 11.6815 9.99827 11.6815 10.2055C11.6815 10.6889 11.3122 11.1033 10.8087 11.1033C10.3052 11.1033 9.93599 10.7235 9.93599 10.2055C9.93599 9.99827 9.80172 9.86014 9.60032 9.86014C9.39892 9.86014 9.26465 9.99827 9.26465 10.2055C9.26465 11.1033 9.93599 11.794 10.8087 11.794Z" fill="#525C6B"/>
<path d="M11.0096 7.13157C11.0096 7.33877 10.9089 7.4769 10.8082 7.4769C10.6739 7.4769 10.5732 7.33877 10.5732 7.13157C10.5732 6.92437 10.6739 6.75171 10.7746 6.75171C10.9425 6.78624 11.0096 6.92437 11.0096 7.13157Z" fill="#3B3B3B"/>
<path d="M12.9902 7.13244C12.9902 6.92524 13.0574 6.78711 13.1916 6.78711C13.3259 6.78711 13.4266 6.92524 13.4266 7.13244C13.4266 7.33964 13.3259 7.5123 13.2252 7.5123C13.0909 7.5123 12.9902 7.33964 12.9902 7.13244Z" fill="#3B3B3B"/>
<path d="M15.7919 16.6856C15.7919 15.5709 14.9171 14.6653 13.8404 14.6653C13.1539 14.6653 12.5528 15.0322 12.2028 15.5849C11.8529 15.0322 11.2517 14.6653 10.5653 14.6653C9.48861 14.6653 8.61377 15.5709 8.61377 16.6856C8.61377 16.8482 8.63171 17.0014 8.66761 17.1547C9.03549 19.3004 12.2028 21.3115 12.2028 21.3115C12.2028 21.3115 15.3702 19.3004 15.7381 17.1593C15.774 17.0061 15.7919 16.8482 15.7919 16.6856Z" fill="#F87670"/>
</svg>
