<svg width="17" height="17" viewBox="0 0 17 17" fill="none" xmlns="http://www.w3.org/2000/svg">
<path d="M12.4653 10.9631L11.7338 10.2686L11.3984 10.6941C12.595 9.29883 13.2132 7.39534 12.8742 5.37226C12.4055 2.60173 10.0921 0.389295 7.29996 0.0504531C3.0819 -0.467775 -0.468049 3.08009 0.0504827 7.29568C0.389523 10.0861 2.60326 12.3982 5.37541 12.8666C7.39968 13.2055 9.30429 12.5876 10.7003 11.3917L10.2718 11.729L10.9696 12.458L15.2076 16.6935C15.6164 17.1021 16.2845 17.1021 16.6934 16.6935C17.1022 16.2849 17.1022 15.6172 16.6934 15.2086L12.4653 10.9631ZM6.48227 10.9631C3.9993 10.9631 1.99498 8.95999 1.99498 6.47847C1.99498 3.99696 3.9993 1.99381 6.48227 1.99381C8.96525 1.99381 10.9696 3.99696 10.9696 6.47847C10.9696 8.95999 8.96525 10.9631 6.48227 10.9631Z" fill="#757575"/>
</svg>
