<svg width="12" height="12" viewBox="0 0 12 12" fill="none" xmlns="http://www.w3.org/2000/svg">
<path d="M3.3208 7.17786L3.7597 6.76115L3.96099 7.01641C3.24302 6.17927 2.87207 5.03718 3.0755 3.82333C3.3567 2.16101 4.74477 0.833552 6.42003 0.630247C8.95086 0.319311 11.0808 2.44803 10.7697 4.97738C10.5663 6.65166 9.23805 8.03892 7.57476 8.31995C6.3602 8.52326 5.21743 8.15253 4.3798 7.43498L4.63694 7.6374L4.21826 8.07479L1.67546 10.6161C1.43015 10.8613 1.02929 10.8613 0.783983 10.6161C0.538678 10.3709 0.538678 9.97031 0.783983 9.72515L3.3208 7.17786ZM6.91064 7.17786C8.40042 7.17786 9.60302 5.97597 9.60302 4.48706C9.60302 2.99815 8.40042 1.79626 6.91064 1.79626C5.42086 1.79626 4.21826 2.99815 4.21826 4.48706C4.21826 5.97597 5.42086 7.17786 6.91064 7.17786Z" fill="#8A9094"/>
<path d="M7.2 3.29998C7.2 3.13429 7.06569 2.99998 6.9 2.99998C6.73432 2.99998 6.6 3.13429 6.6 3.29998V5.69998C6.6 5.86566 6.73432 5.99998 6.9 5.99998C7.06569 5.99998 7.2 5.86566 7.2 5.69998V3.29998Z" fill="#8A9094"/>
<path d="M8.1 4.79998C8.26569 4.79998 8.4 4.66566 8.4 4.49998C8.4 4.33429 8.26569 4.19998 8.1 4.19998H5.7C5.53432 4.19998 5.4 4.33429 5.4 4.49998C5.4 4.66566 5.53432 4.79998 5.7 4.79998H8.1Z" fill="#8A9094"/>
</svg>
