<svg width="30" height="17" viewBox="0 0 30 17" fill="none" xmlns="http://www.w3.org/2000/svg">
<path fill-rule="evenodd" clip-rule="evenodd" d="M12.5708 0.00953286C12.0002 0.0508449 11.2769 0.160815 10.9874 0.250276C10.4904 0.403896 9.87107 0.951763 9.9856 1.13647C10.0067 1.17042 10.1219 1.21635 10.2418 1.23849C10.7796 1.338 11.2333 1.64203 11.4367 2.0392C11.7843 2.71813 11.9406 4.84158 11.7536 6.34482C11.63 7.33848 11.5778 7.56882 11.3946 7.92912C10.903 8.8956 9.77413 8.11318 8.53 5.94386C8.08723 5.1719 6.84123 2.69423 6.56319 2.03306C6.22716 1.23399 6.12078 1.08686 5.73872 0.893155L5.41623 0.729659L2.98251 0.747073C0.784763 0.762791 0.530366 0.774536 0.358715 0.86797C0.0866063 1.01616 -0.0296261 1.21845 0.0063813 1.48151C0.0449104 1.76334 0.967967 3.80767 1.64818 5.11773C2.97248 7.66827 4.0941 9.52036 5.29314 11.1363C7.05662 13.5131 7.83688 14.2842 9.6386 15.4313C10.4799 15.9668 11.0871 16.2665 11.8378 16.5164C12.8691 16.8598 13.3181 16.9259 14.8579 16.961C16.3904 16.996 16.8306 16.9519 17.1554 16.7312C17.4228 16.5494 17.5055 16.2986 17.5554 15.5188C17.6047 14.7492 17.7555 14.0892 17.9629 13.7368C18.1458 13.4257 18.5434 13.0665 18.7139 13.0581C19.3092 13.0289 19.6425 13.2753 20.8859 14.6641C22.0517 15.9663 22.4826 16.3495 23.1267 16.6568C23.417 16.7953 23.7733 16.9357 23.9184 16.9689C24.2702 17.0493 29.0199 16.9589 29.3266 16.866C29.6302 16.7739 29.9572 16.4542 29.9647 16.2423C29.9851 15.6622 29.9003 15.4008 29.4931 14.788C28.9578 13.9825 28.4979 13.4681 26.9323 11.9238C25.2697 10.2838 25.1536 10.1312 25.1512 9.58259C25.1492 9.12202 25.3653 8.76815 26.8249 6.8415C28.8839 4.12367 29.7083 2.81092 29.9375 1.8854C30.072 1.34262 29.9955 1.08072 29.6485 0.895959L29.4016 0.764485L26.4401 0.784119C24.3466 0.797967 23.4363 0.823678 23.3341 0.871768C23.1354 0.965319 22.9247 1.30645 22.6606 1.96236C21.9572 3.70933 20.5089 6.22609 19.5545 7.35998C19.1747 7.81126 18.5845 8.27311 18.3875 8.27311C18.1127 8.27311 17.886 8.09623 17.7142 7.74768L17.5555 7.42583L17.5716 4.39206C17.5889 1.12957 17.5815 1.03322 17.2785 0.602451C16.98 0.17817 16.2523 0.0326723 14.3008 0.00713709C13.5106 -0.00326396 12.7321 -0.00215371 12.5708 0.00953286Z" fill="#9BBF81"/>
</svg>
