<svg width="24" height="24" viewBox="0 0 24 24" fill="none" xmlns="http://www.w3.org/2000/svg">
<path d="M2.40039 4.69575C2.40039 4.09064 2.8609 3.6001 3.42896 3.6001H20.5718C21.1399 3.6001 21.6004 4.09064 21.6004 4.69575C21.6004 5.30086 21.1399 5.7914 20.5718 5.7914H3.42896C2.8609 5.7914 2.40039 5.30086 2.40039 4.69575Z" fill="#333333"/>
<path d="M2.40039 12.0001C2.40039 11.395 2.8609 10.9044 3.42896 10.9044H20.5718C21.1399 10.9044 21.6004 11.395 21.6004 12.0001C21.6004 12.6052 21.1399 13.0957 20.5718 13.0957H3.42896C2.8609 13.0957 2.40039 12.6052 2.40039 12.0001Z" fill="#333333"/>
<path d="M2.40039 19.3044C2.40039 18.6993 2.8609 18.2088 3.42896 18.2088H20.5718C21.1399 18.2088 21.6004 18.6993 21.6004 19.3044C21.6004 19.9096 21.1399 20.4001 20.5718 20.4001H3.42896C2.8609 20.4001 2.40039 19.9096 2.40039 19.3044Z" fill="#333333"/>
</svg>
