<svg width="32" height="24" viewBox="0 0 32 24" fill="none" xmlns="http://www.w3.org/2000/svg">
<path d="M31.031 23.6742V23.7366H31.0882C31.1015 23.7366 31.112 23.7337 31.1196 23.7288C31.1272 23.7239 31.131 23.7155 31.131 23.7052C31.131 23.6948 31.1272 23.687 31.1196 23.6821C31.112 23.6767 31.1015 23.6742 31.0882 23.6742H31.031ZM31.0891 23.6306C31.1187 23.6306 31.1415 23.6372 31.1577 23.6506C31.1739 23.6639 31.1825 23.6821 31.1825 23.7052C31.1825 23.7245 31.1758 23.7403 31.1625 23.753C31.1501 23.7651 31.132 23.773 31.1082 23.7761L31.1844 23.8639H31.1244L31.0539 23.7766H31.031V23.8639H30.9814V23.6306H31.0891ZM31.0739 23.9447C31.1015 23.9447 31.1263 23.9391 31.1492 23.9288C31.173 23.9185 31.194 23.9046 31.2111 23.887C31.2283 23.8695 31.2425 23.8488 31.253 23.8246C31.2626 23.8009 31.2683 23.7755 31.2683 23.7482C31.2683 23.7209 31.2626 23.6955 31.253 23.6718C31.2425 23.6482 31.2283 23.6269 31.2111 23.6093C31.194 23.5918 31.173 23.5779 31.1492 23.5675C31.1263 23.5578 31.1015 23.553 31.0739 23.553C31.0472 23.553 31.0205 23.5578 30.9976 23.5675C30.9728 23.5779 30.9519 23.5918 30.9347 23.6093C30.9176 23.6269 30.9033 23.6482 30.8938 23.6718C30.8833 23.6955 30.8785 23.7209 30.8785 23.7482C30.8785 23.7755 30.8833 23.8009 30.8938 23.8246C30.9033 23.8488 30.9176 23.8695 30.9347 23.887C30.9519 23.9046 30.9728 23.9185 30.9976 23.9288C31.0205 23.9391 31.0472 23.9447 31.0739 23.9447ZM31.0739 23.4966C31.1101 23.4966 31.1425 23.5032 31.1739 23.5166C31.2044 23.5293 31.2311 23.5476 31.2549 23.5705C31.2778 23.593 31.2959 23.6197 31.3093 23.6506C31.3226 23.6809 31.3293 23.7137 31.3293 23.7482C31.3293 23.7827 31.3226 23.8154 31.3093 23.8458C31.2959 23.8761 31.2778 23.9028 31.2549 23.9258C31.2311 23.9483 31.2044 23.9665 31.1739 23.9797C31.1425 23.9931 31.1101 23.9997 31.0739 23.9997C31.0376 23.9997 31.0043 23.9931 30.9729 23.9797C30.9414 23.9665 30.9147 23.9483 30.8918 23.9258C30.869 23.9028 30.8509 23.8761 30.8375 23.8458C30.8242 23.8154 30.8175 23.7827 30.8175 23.7482C30.8175 23.7137 30.8242 23.6809 30.8375 23.6506C30.8509 23.6197 30.869 23.593 30.8918 23.5705C30.9147 23.5476 30.9414 23.5293 30.9729 23.5166C31.0043 23.5032 31.0376 23.4966 31.0739 23.4966ZM7.55142 22.5975C7.55142 22.1525 7.84209 21.7869 8.31667 21.7869C8.76934 21.7869 9.0762 22.1368 9.0762 22.5975C9.0762 23.0583 8.76934 23.408 8.31667 23.408C7.84209 23.408 7.55142 23.0425 7.55142 22.5975ZM9.5927 22.5975V21.3316H9.04474V21.639C8.87035 21.4111 8.60637 21.2679 8.24805 21.2679C7.54094 21.2679 6.9863 21.8245 6.9863 22.5975C6.9863 23.3711 7.54094 23.927 8.24805 23.927C8.60637 23.927 8.87035 23.784 9.04474 23.556V23.8634H9.5927V22.5975ZM28.1177 22.5975C28.1177 22.1525 28.4084 21.7869 28.883 21.7869C29.3375 21.7869 29.6425 22.1368 29.6425 22.5975C29.6425 23.0583 29.3375 23.408 28.883 23.408C28.4084 23.408 28.1177 23.0425 28.1177 22.5975ZM30.16 22.5975V20.3149H29.611V21.639C29.4376 21.4111 29.1736 21.2679 28.8153 21.2679C28.1082 21.2679 27.5535 21.8245 27.5535 22.5975C27.5535 23.3711 28.1082 23.927 28.8153 23.927C29.1736 23.927 29.4376 23.784 29.611 23.556V23.8634H30.16V22.5975ZM16.397 21.7608C16.7505 21.7608 16.9774 21.9833 17.0355 22.375H15.7271C15.7861 22.0094 16.0072 21.7608 16.397 21.7608ZM16.4084 21.2679C15.6689 21.2679 15.1524 21.8082 15.1524 22.5975C15.1524 23.4026 15.6908 23.927 16.4456 23.927C16.8249 23.927 17.1727 23.8318 17.4786 23.5723L17.2099 23.1644C16.9983 23.3335 16.7296 23.4293 16.4761 23.4293C16.1235 23.4293 15.8014 23.265 15.7223 22.8091H17.5949C17.5997 22.7406 17.6054 22.6715 17.6054 22.5975C17.5997 21.8082 17.1146 21.2679 16.4084 21.2679ZM23.0278 22.5975C23.0278 22.1525 23.3185 21.7869 23.7931 21.7869C24.2467 21.7869 24.5526 22.1368 24.5526 22.5975C24.5526 23.0583 24.2467 23.408 23.7931 23.408C23.3185 23.408 23.0278 23.0425 23.0278 22.5975ZM25.0691 22.5975V21.3316H24.5212V21.639C24.3468 21.4111 24.0828 21.2679 23.7245 21.2679C23.0174 21.2679 22.4637 21.8245 22.4637 22.5975C22.4637 23.3711 23.0174 23.927 23.7245 23.927C24.0828 23.927 24.3468 23.784 24.5212 23.556V23.8634H25.0691V22.5975ZM19.9316 22.5975C19.9316 23.3656 20.4643 23.927 21.2772 23.927C21.6565 23.927 21.91 23.8421 22.1835 23.6251L21.9205 23.1801C21.7146 23.3287 21.4983 23.408 21.261 23.408C20.8226 23.4026 20.5015 23.085 20.5015 22.5975C20.5015 22.1101 20.8226 21.7923 21.261 21.7869C21.4983 21.7869 21.7146 21.8663 21.9205 22.0149L22.1835 21.5698C21.91 21.3528 21.6565 21.2679 21.2772 21.2679C20.4643 21.2679 19.9316 21.8293 19.9316 22.5975ZM26.9999 21.2679C26.6835 21.2679 26.4776 21.4165 26.3356 21.639V21.3316H25.7915V23.8634H26.3404V22.4441C26.3404 22.0252 26.5196 21.7923 26.8788 21.7923C26.9894 21.7923 27.1057 21.8082 27.2219 21.856L27.3906 21.3371C27.2696 21.2892 27.1114 21.2679 26.9999 21.2679ZM12.3039 21.5329C12.04 21.3583 11.6769 21.2679 11.2757 21.2679C10.6372 21.2679 10.2255 21.5754 10.2255 22.0785C10.2255 22.4914 10.5324 22.746 11.0956 22.8255L11.3548 22.8625C11.6559 22.9049 11.7979 22.9842 11.7979 23.1274C11.7979 23.3232 11.5968 23.4347 11.2223 23.4347C10.843 23.4347 10.5686 23.3129 10.3837 23.1698L10.1254 23.5984C10.4266 23.821 10.8059 23.927 11.2175 23.927C11.9456 23.927 12.3678 23.5827 12.3678 23.1007C12.3678 22.6557 12.0352 22.4228 11.4863 22.3435L11.228 22.3059C10.9907 22.2744 10.8011 22.2271 10.8011 22.0573C10.8011 21.8718 10.9803 21.7608 11.2804 21.7608C11.6026 21.7608 11.9142 21.8827 12.0667 21.9779L12.3039 21.5329ZM19.3779 21.2679C19.0615 21.2679 18.8557 21.4165 18.7137 21.639V21.3316H18.1705V23.8634H18.7185V22.4441C18.7185 22.0252 18.8976 21.7923 19.2559 21.7923C19.3674 21.7923 19.4837 21.8082 19.599 21.856L19.7687 21.3371C19.6467 21.2892 19.4885 21.2679 19.3779 21.2679ZM14.6988 21.3316H13.803V20.5635H13.2483V21.3316H12.7366V21.8349H13.2483V22.9898C13.2483 23.5772 13.4752 23.927 14.1241 23.927C14.3614 23.927 14.6359 23.8531 14.8093 23.7312L14.6511 23.2596C14.4882 23.3548 14.3081 23.4026 14.1661 23.4026C13.8916 23.4026 13.803 23.2329 13.803 22.9788V21.8349H14.6988V21.3316ZM6.50219 23.8634V22.2744C6.50219 21.676 6.12195 21.2735 5.51013 21.2679C5.18803 21.2625 4.8564 21.3631 4.62387 21.7184C4.44947 21.4377 4.17596 21.2679 3.79096 21.2679C3.52126 21.2679 3.25824 21.3474 3.0524 21.6439V21.3316H2.50348V23.8634H3.05716V22.4599C3.05716 22.0203 3.29922 21.7869 3.6747 21.7869C4.03874 21.7869 4.22266 22.0252 4.22266 22.4544V23.8634H4.77729V22.4599C4.77729 22.0203 5.02984 21.7869 5.39388 21.7869C5.7684 21.7869 5.94755 22.0252 5.94755 22.4544V23.8634H6.50219Z" fill="#231F20"/>
<path d="M20.454 17.0357H12.145V2.0415H20.454V17.0357Z" fill="#FF5F00"/>
<path d="M12.6778 9.53643C12.6778 6.49479 14.0958 3.7854 16.3039 2.03936C14.6895 0.762562 12.6511 0.000488281 10.4354 0.000488281C5.19115 0.000488281 0.940857 4.2698 0.940857 9.53643C0.940857 14.8031 5.19115 19.0723 10.4354 19.0723C12.6511 19.0723 14.6895 18.3102 16.3039 17.0334C14.0958 15.2875 12.6778 12.5781 12.6778 9.53643Z" fill="#EB001B"/>
<path d="M31.6593 9.53639C31.6593 14.803 27.409 19.0723 22.1648 19.0723C19.9491 19.0723 17.9107 18.3103 16.2953 17.0335C18.5044 15.2874 19.9224 12.578 19.9224 9.53639C19.9224 6.49479 18.5044 3.7854 16.2953 2.03935C17.9107 0.762562 19.9491 0.000488281 22.1648 0.000488281C27.409 0.000488281 31.6593 4.2698 31.6593 9.53639Z" fill="#F79E1B"/>
</svg>
