<svg width="56" height="16" viewBox="0 0 56 16" fill="none" xmlns="http://www.w3.org/2000/svg">
<path fill-rule="evenodd" clip-rule="evenodd" d="M15.0343 3.03925e-07V0.00698307C15.0274 0.00698307 12.855 4.04751e-07 12.2757 2.10306C11.7446 4.03144 10.2481 9.35552 10.2067 9.50219H9.79293C9.79293 9.50219 8.26189 4.0594 7.72396 2.09608C7.14465 -0.0069829 4.96534 3.03925e-07 4.96534 3.03925e-07H-0.000183105V16H4.96534V6.49781H5.17224H5.37913L8.27568 16H11.724L14.6205 6.50483H15.0343V16H19.9998V3.03925e-07H15.0343Z" fill="#4DB45E"/>
<path fill-rule="evenodd" clip-rule="evenodd" d="M33.6279 0C33.6279 0 32.1472 0.132756 31.4524 1.67686L27.8734 9.50219H27.4524V0H22.3997V16H27.1717C27.1717 16 28.7226 15.8602 29.4172 14.3232L32.926 6.49781H33.3471V16H38.3997V0H33.6279Z" fill="#4DB45E"/>
<path fill-rule="evenodd" clip-rule="evenodd" d="M39.9998 7.19922V15.9992H44.8965V10.8599H50.2012C52.5135 10.8599 54.4721 9.33226 55.1998 7.19922H39.9998Z" fill="#4DB45E"/>
<path fill-rule="evenodd" clip-rule="evenodd" d="M50.4964 0H39.2C39.7644 2.96851 42.0718 5.35144 45.0563 6.12772C45.7337 6.30473 46.4464 6.40002 47.1802 6.40002H55.8871C55.9647 6.04601 55.9999 5.68509 55.9999 5.3107C55.9999 2.37618 53.5374 0 50.4964 0Z" fill="url(#paint0_linear_1679_55914)"/>
<defs>
<linearGradient id="paint0_linear_1679_55914" x1="39.2014" y1="3.2" x2="55.9999" y2="3.2" gradientUnits="userSpaceOnUse">
<stop offset="1" stop-color="#4DB4E6"/>
</linearGradient>
</defs>
</svg>
