<svg width="11" height="10" viewBox="0 0 11 10" fill="none" xmlns="http://www.w3.org/2000/svg">
<path fill-rule="evenodd" clip-rule="evenodd" d="M5.05889 0.51119C4.01885 0.640415 3.07184 1.09494 2.33417 1.81892C1.698 2.44329 1.27215 3.20908 1.06454 4.10207C0.978487 4.47221 0.978487 5.52405 1.06454 5.89419C1.27623 6.80469 1.7442 7.62867 2.40122 8.24774C3.31441 9.10815 4.53442 9.5564 5.79406 9.49431C6.9779 9.43594 7.95983 9.00624 8.8109 8.17403C9.45557 7.54367 9.8541 6.8404 10.0646 5.96169C10.1292 5.69202 10.1445 5.51402 10.1461 5.01617C10.1486 4.17462 10.039 3.69546 9.68464 3.00048L9.53981 2.71642L9.99823 2.25822C10.487 1.76967 10.5359 1.68417 10.4834 1.4096C10.4518 1.2444 10.2589 1.04847 10.0745 0.994251C9.80885 0.916146 9.66049 0.985484 9.25501 1.37724C9.05982 1.56581 8.87974 1.73695 8.85482 1.75762C8.82159 1.78515 8.75785 1.74925 8.61589 1.62313C8.07466 1.14227 7.24734 0.73461 6.49247 0.576777C6.22395 0.520642 5.31683 0.479118 5.05889 0.51119ZM6.39105 1.72995C6.81194 1.83475 7.22823 2.0182 7.5342 2.23379C7.76993 2.39985 7.98721 2.60383 7.96012 2.63359C7.95148 2.64308 7.39151 3.19616 6.7157 3.86267L5.48694 5.07447L5.0432 4.64336C4.79912 4.40627 4.5607 4.19291 4.5134 4.16928C4.29546 4.06033 3.95533 4.14876 3.79863 4.35511C3.7007 4.48401 3.67361 4.77385 3.74665 4.91097C3.81741 5.04391 5.05742 6.27505 5.21622 6.37008C5.3552 6.45327 5.56476 6.46164 5.73091 6.39068C5.79693 6.36246 6.46652 5.73261 7.24583 4.96566C8.01397 4.20969 8.65232 3.59116 8.66434 3.59116C8.69724 3.59116 8.77156 3.75873 8.87236 4.06015C8.997 4.43282 9.02968 5.20885 8.93922 5.64707C8.67364 6.93341 7.69046 7.94278 6.38708 8.26729C5.8982 8.38901 5.24724 8.38861 4.75597 8.26631C4.07196 8.096 3.56088 7.79346 3.04743 7.25488C2.45096 6.62918 2.15553 5.88168 2.15553 4.99813C2.15553 4.07924 2.45408 3.35129 3.10492 2.68323C3.59668 2.17849 4.06708 1.90572 4.74644 1.73147C5.2232 1.60917 5.90334 1.60856 6.39105 1.72995Z" fill="#9AC07E"/>
</svg>
