<svg width="21" height="20" viewBox="0 0 21 20" fill="none" xmlns="http://www.w3.org/2000/svg">
<path fill-rule="evenodd" clip-rule="evenodd" d="M0.696831 0.073218C0.516868 0.157413 0.351901 0.323928 0.293459 0.480285C0.166217 0.820622 0.329057 1.26188 0.642757 1.42691C0.698068 1.45597 1.32423 1.58783 2.03423 1.71989C2.74427 1.85195 3.33263 1.96736 3.34179 1.97634C3.35091 1.98537 3.85072 4.51103 4.45245 7.58894C5.05419 10.6669 5.57425 13.2598 5.60815 13.3509C5.6887 13.5675 5.8973 13.7384 6.14444 13.7902C6.27694 13.818 8.0544 13.8279 11.6547 13.8208L16.9693 13.8103L17.1336 13.7216C17.4486 13.5515 17.41 13.6839 18.3815 9.43448C19.365 5.13224 19.3459 5.24675 19.1284 4.97037C19.0652 4.89001 18.9368 4.78468 18.8432 4.73635L18.673 4.64844H12.0381H5.40318L5.06416 2.90007C4.8777 1.93848 4.69132 1.07794 4.64997 0.987762C4.56188 0.795656 4.38713 0.64934 4.17346 0.588743C3.93711 0.521738 1.08532 -0.000975376 0.961443 1.3671e-06C0.900953 0.000470204 0.781866 0.033406 0.696831 0.073218ZM17.5674 6.221C17.5668 6.24788 17.2563 7.6236 16.8773 9.2782L16.1882 12.2866L11.5471 12.2965L6.90601 12.3064L6.8643 12.1011C6.84138 11.9882 6.57932 10.6476 6.28201 9.12192C5.98466 7.59625 5.73226 6.30843 5.72109 6.26007L5.7008 6.17216H11.6346C16.3565 6.17216 17.5682 6.18212 17.5674 6.221ZM6.75368 15.0418C5.35475 15.4123 4.56308 16.9085 5.03448 18.291C5.64205 20.0727 7.88019 20.5765 9.17998 19.224C9.60739 18.7793 9.83235 18.2519 9.86644 17.6146C9.95754 15.9117 8.38313 14.6104 6.75368 15.0418ZM14.1917 15.0248C13.7078 15.1432 13.1906 15.475 12.8527 15.8839C12.6639 16.1123 12.4171 16.6157 12.3465 16.9163C12.3188 17.0345 12.2964 17.2982 12.2969 17.5024C12.2983 18.188 12.541 18.759 13.0458 19.2652C13.8171 20.0387 14.914 20.2166 15.8917 19.727C16.8284 19.258 17.3691 18.2545 17.2554 17.1962C17.1901 16.5887 16.9848 16.169 16.5255 15.7038C16.1591 15.3327 15.8137 15.1302 15.3653 15.0237C15.0557 14.9501 14.4946 14.9507 14.1917 15.0248ZM7.8861 16.6117C8.21155 16.822 8.36705 17.1045 8.3684 17.4882C8.37146 18.3538 7.32422 18.8064 6.71066 18.2045C6.50267 18.0004 6.43012 17.8449 6.40697 17.5531C6.37272 17.122 6.57681 16.7603 6.95819 16.576C7.22581 16.4466 7.65616 16.4632 7.8861 16.6117ZM15.1922 16.5597C15.6496 16.7697 15.8827 17.3347 15.7162 17.8298C15.6453 18.0404 15.4207 18.279 15.1913 18.3872C14.6643 18.6358 14.0264 18.3476 13.8386 17.7761C13.6802 17.2941 13.9296 16.7552 14.4083 16.5449C14.59 16.4652 15.0033 16.4729 15.1922 16.5597Z" fill="white"/>
</svg>
