<svg width="63" height="47" viewBox="0 0 63 47" fill="none" xmlns="http://www.w3.org/2000/svg">
<g filter="url(#filter0_d_2003_56723)">
<path fill-rule="evenodd" clip-rule="evenodd" d="M48.9331 2.99195L8.44414 26.3683C8.02445 26.6106 7.68552 26.9928 7.56726 27.4341L4.70455 37.0146C4.37935 38.2282 5.10629 39.4873 6.31997 39.8125L16.0482 42.1236C16.4895 42.2418 16.99 42.1394 17.4097 41.8971L57.8987 18.5208C58.878 17.9554 59.2032 16.7417 58.6378 15.7624L51.6915 3.73106C51.1261 2.75176 49.9124 2.42656 48.9331 2.99195ZM10.6785 37.6692C9.76915 38.1942 8.55546 37.869 8.03045 36.9597C7.50544 36.0503 7.83065 34.8366 8.73999 34.3116C9.64934 33.7866 10.863 34.1118 11.388 35.0212C11.8835 36.0409 11.5878 37.1442 10.6785 37.6692Z" fill="#4B8DF0"/>
<path d="M4.31761 36.8989L4.31745 36.8989L4.31446 36.91C3.93153 38.3392 4.78632 39.8197 6.21545 40.2026L6.21541 40.2028L6.22663 40.2055L15.9496 42.5152C16.5161 42.665 17.1242 42.5283 17.6116 42.2469L58.1006 18.8705C59.2731 18.1936 59.6645 16.7329 58.9876 15.5605L52.0412 3.52913C51.3643 2.35668 49.9037 1.96529 48.7312 2.6422L8.24222 26.0185C7.7548 26.2999 7.33236 26.7582 7.17876 27.3237L4.31761 36.8989ZM10.4766 37.3195C9.76038 37.733 8.79369 37.4739 8.3802 36.7577C7.96671 36.0416 8.22574 35.0749 8.94192 34.6614C9.65403 34.2502 10.6138 34.504 11.0312 35.2109C11.4366 36.0597 11.1765 36.9154 10.4766 37.3195Z" stroke="white" stroke-width="0.807709"/>
</g>
<path d="M16.5004 35.4183L17.6003 34.7833L16.5703 32.9993L18.4582 31.9093L19.4882 33.6933L20.5881 33.0583L18.0381 28.6416L16.9382 29.2766L17.9232 30.9827L16.0353 32.0727L15.0503 30.3666L13.9504 31.0016L16.5004 35.4183ZM20.2258 30.323C20.6158 30.9985 21.1697 31.4177 21.8873 31.5807C22.605 31.7438 23.3016 31.6303 23.9857 31.2353C24.6612 30.8453 25.1165 30.2938 25.3341 29.5907C25.5518 28.8877 25.4656 28.1985 25.0756 27.523C24.6906 26.8561 24.1281 26.4419 23.4104 26.2789C22.6928 26.1158 21.9826 26.2257 21.3071 26.6157C20.6316 27.0057 20.19 27.5608 19.9723 28.2639C19.7547 28.9669 19.8408 29.6561 20.2258 30.323ZM21.343 29.678C21.113 29.2796 21.0443 28.8805 21.1541 28.4707C21.2552 28.0659 21.492 27.756 21.8557 27.546C22.2194 27.336 22.5976 27.2909 23.0074 27.4007C23.4172 27.5105 23.7371 27.7646 23.9671 28.163C24.2021 28.57 24.2622 28.9741 24.161 29.3789C24.0512 29.7887 23.8094 30.09 23.4457 30.3C23.0733 30.515 22.6916 30.5737 22.2904 30.4589C21.8893 30.3441 21.578 30.085 21.343 29.678ZM27.2581 29.2074L29.3539 27.9974C29.8388 27.7174 30.1772 27.3835 30.3553 26.992C30.5334 26.6005 30.5043 26.19 30.2593 25.7657C30.1243 25.5318 29.935 25.364 29.6951 25.2485C29.4466 25.1379 29.186 25.1267 28.8949 25.2024L28.8899 25.1938C29.0218 25.0022 29.0853 24.7923 29.0892 24.5591C29.0932 24.3258 29.0301 24.0967 28.9101 23.8888C28.7001 23.5251 28.4016 23.328 28.0181 23.2838C27.6346 23.2396 27.2109 23.3457 26.7606 23.6057L24.7081 24.7907L27.2581 29.2074ZM26.8579 25.9743L26.2229 24.8745L26.9244 24.4695C27.3401 24.2295 27.6566 24.2777 27.8566 24.6241C27.9566 24.7973 27.9897 24.9745 27.9457 25.1384C27.9018 25.3024 27.7759 25.4443 27.5767 25.5593L26.8579 25.9743ZM27.9379 27.8449L27.2529 26.6585L28.0583 26.1935C28.2835 26.0635 28.5004 26.0191 28.6903 26.048C28.8715 26.0819 29.0258 26.1892 29.1308 26.371C29.2358 26.5529 29.2515 26.7401 29.1903 26.914C29.129 27.088 28.9772 27.2449 28.7433 27.3799L27.9379 27.8449ZM31.918 26.517L32.9833 25.902L33.26 22.6014C33.2792 22.1746 33.2918 21.9364 33.2841 21.8831L33.3015 21.8731C33.4141 22.1083 33.5105 22.2951 33.5805 22.4164L34.9405 24.772L35.9884 24.167L33.4384 19.7502L32.3732 20.3652L32.1014 23.6745C32.0772 24.0926 32.0646 24.3308 32.0773 24.3928L32.06 24.4028C31.9973 24.2542 31.9059 24.076 31.7809 23.8595L30.4159 21.4952L29.368 22.1002L31.918 26.517ZM37.17 23.4847L38.2699 22.8497L37.2399 21.0657L39.1278 19.9757L40.1578 21.7597L41.2577 21.1247L38.7077 16.708L37.6078 17.343L38.5928 19.0491L36.7049 20.1391L35.7199 18.433L34.62 19.068L37.17 23.4847ZM42.4389 20.4427L43.5388 19.8077L42.5038 18.0151L43.0753 17.6851L45.2708 18.8077L46.5439 18.0727L43.6427 16.6878L43.6327 16.6705L43.8207 13.756L42.5996 14.461L42.5007 16.7698L41.9638 17.0798L40.9888 15.391L39.8889 16.026L42.4389 20.4427ZM46.1069 16.6969C46.3369 17.0953 46.6604 17.3357 47.0775 17.4182C47.4947 17.5007 47.9111 17.4219 48.3268 17.1819C48.6212 17.0119 48.8497 16.7877 49.0158 16.4954C49.1733 16.2082 49.2625 15.9027 49.2611 15.5802L49.2784 15.5702L49.4374 15.9056L49.6524 16.278L50.6743 15.688L49.0793 12.9254C48.7593 12.3711 48.3498 12.0418 47.8494 11.915C47.3403 11.7932 46.7999 11.8974 46.2284 12.2274C45.9079 12.4124 45.6225 12.658 45.3621 12.9469C45.093 13.2408 44.9168 13.5157 44.8113 13.773L45.6733 14.326C45.929 13.8089 46.2511 13.4267 46.6581 13.1917C47.2123 12.8717 47.6395 12.9715 47.9395 13.4911L47.9745 13.5517L47.784 13.6617C47.4895 13.8317 47.2274 14.0177 46.9876 14.2024C46.7528 14.3957 46.5156 14.6249 46.2985 14.8889C46.0814 15.1528 45.9462 15.4387 45.898 15.7552C45.8548 16.0803 45.9269 16.3852 46.1069 16.6969ZM47.143 15.9717C46.873 15.504 47.2317 14.9852 48.2276 14.4102L48.4181 14.3002L48.4881 14.4214C48.6581 14.7159 48.7129 15.0307 48.6623 15.3832C48.6118 15.7357 48.4393 15.9969 48.1449 16.1669C47.937 16.2869 47.7425 16.3299 47.5513 16.2787C47.365 16.2361 47.233 16.1275 47.143 15.9717Z" fill="white"/>
<defs>
<filter id="filter0_d_2003_56723" x="1.3959" y="0.291411" width="60.7502" height="45.9202" filterUnits="userSpaceOnUse" color-interpolation-filters="sRGB">
<feFlood flood-opacity="0" result="BackgroundImageFix"/>
<feColorMatrix in="SourceAlpha" type="matrix" values="0 0 0 0 0 0 0 0 0 0 0 0 0 0 0 0 0 0 127 0" result="hardAlpha"/>
<feOffset dy="0.807709"/>
<feGaussianBlur stdDeviation="1.21156"/>
<feComposite in2="hardAlpha" operator="out"/>
<feColorMatrix type="matrix" values="0 0 0 0 0 0 0 0 0 0 0 0 0 0 0 0 0 0 0.25 0"/>
<feBlend mode="normal" in2="BackgroundImageFix" result="effect1_dropShadow_2003_56723"/>
<feBlend mode="normal" in="SourceGraphic" in2="effect1_dropShadow_2003_56723" result="shape"/>
</filter>
</defs>
</svg>
