<svg width="42" height="34" viewBox="0 0 42 34" fill="none" xmlns="http://www.w3.org/2000/svg">
<g clip-path="url(#clip0_1650_56140)">
<g filter="url(#filter0_d_1650_56140)">
<path d="M2.40537 13.4903C1.94411 11.7688 3.07486 10.0253 4.82988 9.71542C7.0246 9.32785 9.83026 8.79434 11.6437 8.30844C14.9975 7.40978 19.624 5.42353 23.0511 4.50524C25.2325 3.92075 29.3682 3.20858 32.0867 2.76806C33.5926 2.52404 35.0279 3.46642 35.4227 4.93993L39.4068 19.8087C39.8685 21.532 38.7344 23.2762 36.9748 23.5706C34.185 24.0373 30.3659 24.7121 28.5928 25.1872C25.6232 25.9829 21.9696 27.9394 17.2431 29.2059C14.5378 29.9308 11.6011 30.3974 9.58415 30.664C8.14022 30.8548 6.80893 29.9246 6.43196 28.5177L2.40537 13.4903Z" fill="#DD6858"/>
<path d="M34.9397 5.06934L38.9238 19.9381C39.3084 21.3734 38.3639 22.8313 36.8923 23.0774C34.1106 23.5428 30.2648 24.2216 28.4634 24.7043C27.1195 25.0644 25.6423 25.6554 24.0337 26.2991C23.822 26.3838 23.6081 26.4694 23.3918 26.5555C21.5195 27.3012 19.4471 28.0977 17.1137 28.7229C14.4389 29.4396 11.5267 29.9029 9.51864 30.1683C8.33455 30.3248 7.22983 29.5636 6.91492 28.3883L2.88833 13.3609C2.50431 11.9277 3.44554 10.4676 4.91683 10.2078C7.1104 9.82043 9.936 9.28365 11.7731 8.7914C13.4615 8.33899 15.4604 7.61724 17.4428 6.90143L17.4897 6.88448C19.4998 6.15869 21.4916 5.44074 23.1805 4.9882C25.3327 4.41152 29.4419 3.70316 32.1667 3.26162C33.4156 3.05924 34.6103 3.84011 34.9397 5.06934Z" stroke="white"/>
</g>
<path d="M14.6188 13.8443L14.9414 15.048L19.7291 13.7652L19.4066 12.5615L14.6188 13.8443ZM14.2345 13.9473L15.3634 18.1602C15.7904 19.754 16.271 21.8113 15.667 23.4663C15.9854 23.5124 16.619 23.7249 16.8954 23.8778C17.5544 22.0766 17.0431 19.5975 16.5713 17.8366L15.4424 13.6237L14.2345 13.9473ZM18.8684 15.692L18.9251 15.9038C19.3802 18.8758 18.7547 21.2413 17.1009 22.5804C17.4301 22.755 17.8969 23.1794 18.1513 23.4696C20.0069 21.742 20.7073 19.2608 20.1261 15.5103L19.3097 15.538L19.099 15.6302L18.8684 15.692ZM17.1867 17.0147L16.1732 17.5371C17.5597 20.1639 19.2562 22.0148 21.6362 22.5955C21.7333 22.2111 21.9832 21.6066 22.206 21.2961C20.0205 20.9141 18.3499 19.2474 17.1867 17.0147ZM15.7168 16.5365L16.0274 17.6956L19.4974 16.7658L19.1868 15.6067L15.7168 16.5365ZM12.3683 22.0925C12.3577 22.9315 12.1305 23.8405 11.7298 24.4974C12.0681 24.574 12.6688 24.7953 12.9532 24.9341C13.341 24.1851 13.6112 23.0854 13.6539 22.0586L12.3683 22.0925ZM13.8185 22.1459C14.2654 22.5398 14.8039 23.1003 15.0682 23.4715L15.993 22.6622C15.7068 22.2969 15.1831 21.7922 14.7203 21.4264L13.8185 22.1459ZM11.8793 17.72L13.0543 17.4052L13.3291 18.4306L12.1541 18.7454L11.8793 17.72ZM12.4169 19.7262L13.5919 19.4114L13.8726 20.459L12.6976 20.7739L12.4169 19.7262ZM11.3388 15.7027L12.5138 15.3879L12.7885 16.4133L11.6136 16.7281L11.3388 15.7027ZM9.89111 14.9558L11.8173 22.1445L15.3752 21.1912L13.449 14.0025L9.89111 14.9558Z" fill="white"/>
<path d="M20.753 12.5352L21.0785 13.75L30.7968 11.146L30.4713 9.93116L20.753 12.5352ZM22.3268 14.192L22.6404 15.3622L30.3052 13.3085L29.9916 12.1382L22.3268 14.192ZM21.8893 16.1608L22.5284 18.5459L23.7912 18.2075L23.4716 17.0149L30.3128 15.1818L30.6324 16.3744L31.9611 16.0184L31.322 13.6333L21.8893 16.1608ZM24.635 10.5513L25.5638 14.0175L26.9364 13.6497L26.0076 10.1835L24.635 10.5513ZM27.5863 16.2947L28.294 18.9361C28.6166 20.1398 29.0366 20.4334 30.3213 20.0892C30.5739 20.0215 31.4634 19.7832 31.7379 19.7096C32.7811 19.4301 33.011 18.9265 32.7207 17.2722C32.3484 17.2883 31.7317 17.2266 31.4004 17.0884C31.6751 18.2452 31.646 18.4441 31.2836 18.5412C31.075 18.5971 30.3612 18.7884 30.1745 18.8384C29.7902 18.9414 29.7123 18.9145 29.6168 18.5578L28.915 15.9387L27.5863 16.2947ZM24.871 17.0103C25.2051 18.7843 25.2073 19.8468 22.7122 21.0768C23.0614 21.2819 23.5312 21.7175 23.7475 22.0417C26.5812 20.4941 26.6821 18.938 26.2436 16.6425L24.871 17.0103Z" fill="white"/>
</g>
<defs>
<filter id="filter0_d_1650_56140" x="0.302002" y="1.72961" width="41.2081" height="31.9591" filterUnits="userSpaceOnUse" color-interpolation-filters="sRGB">
<feFlood flood-opacity="0" result="BackgroundImageFix"/>
<feColorMatrix in="SourceAlpha" type="matrix" values="0 0 0 0 0 0 0 0 0 0 0 0 0 0 0 0 0 0 127 0" result="hardAlpha"/>
<feOffset dy="1"/>
<feGaussianBlur stdDeviation="1"/>
<feComposite in2="hardAlpha" operator="out"/>
<feColorMatrix type="matrix" values="0 0 0 0 0 0 0 0 0 0 0 0 0 0 0 0 0 0 0.25 0"/>
<feBlend mode="normal" in2="BackgroundImageFix" result="effect1_dropShadow_1650_56140"/>
<feBlend mode="normal" in="SourceGraphic" in2="effect1_dropShadow_1650_56140" result="shape"/>
</filter>
<clipPath id="clip0_1650_56140">
<rect width="36" height="25" fill="white" transform="translate(0.378174 9.58496) rotate(-15)"/>
</clipPath>
</defs>
</svg>
