<svg width="73" height="48" viewBox="0 0 73 48" fill="none" xmlns="http://www.w3.org/2000/svg">
<g filter="url(#filter0_d_1644_56156)">
<path fill-rule="evenodd" clip-rule="evenodd" d="M51.4857 3.4823L17.0422 23.3683C16.6225 23.6106 16.2836 23.9928 16.1653 24.4341L13.3026 34.0145C12.9774 35.2282 13.7044 36.4873 14.9181 36.8125L24.6463 39.1236C25.0876 39.2418 25.5881 39.1394 26.0078 38.8971L60.4513 19.0111C61.4306 18.4457 61.7558 17.232 61.1904 16.2528L54.2441 4.22141C53.6787 3.24211 52.465 2.9169 51.4857 3.4823ZM19.2766 34.6692C18.3672 35.1942 17.1535 34.869 16.6285 33.9597C16.1035 33.0503 16.4287 31.8366 17.3381 31.3116C18.2474 30.7866 19.4611 31.1118 19.9861 32.0212C20.4816 33.0408 20.1859 34.1442 19.2766 34.6692Z" fill="#D64F3B"/>
<path d="M12.9157 33.8989L12.9155 33.8989L12.9125 33.91C12.5296 35.3391 13.3844 36.8197 14.8135 37.2026L14.8135 37.2028L14.8247 37.2054L24.5477 39.5152C25.1142 39.6649 25.7223 39.5282 26.2097 39.2468L60.6532 19.3609C61.8257 18.684 62.2171 17.2233 61.5401 16.0508L54.5938 4.01948C53.9169 2.84702 52.4562 2.45563 51.2838 3.13255L16.8403 23.0185C16.3529 23.2999 15.9305 23.7582 15.7769 24.3237L12.9157 33.8989ZM19.0747 34.3194C18.3585 34.7329 17.3918 34.4739 16.9783 33.7577C16.5648 33.0415 16.8238 32.0749 17.54 31.6614C18.2521 31.2502 19.2119 31.504 19.6293 32.2109C20.0347 33.0597 19.7746 33.9153 19.0747 34.3194Z" stroke="white" stroke-width="0.807709"/>
</g>
<path d="M23.5551 30.3649C23.9351 31.0231 24.4716 31.4523 25.1683 31.639C25.8649 31.8257 26.5702 31.7072 27.289 31.2922C27.6354 31.0922 27.9381 30.8366 28.1922 30.5167C28.4463 30.1968 28.6148 29.8686 28.6926 29.5234L27.8183 28.989C27.6486 29.595 27.3205 30.0269 26.8442 30.3019C26.4285 30.5419 26.0244 30.602 25.6183 30.4785C25.2035 30.36 24.8922 30.101 24.6672 29.7112C24.4472 29.3302 24.3785 28.9311 24.4796 28.5263C24.5721 28.1265 24.8212 27.7979 25.2196 27.5679C25.6613 27.3129 26.1373 27.2575 26.6377 27.3842L26.6964 26.3458C26.3635 26.2493 26.0174 26.2297 25.6493 26.2922C25.2775 26.3682 24.9307 26.4876 24.619 26.6676C23.9002 27.0826 23.4499 27.6428 23.2683 28.3481C23.0866 29.0535 23.1851 29.724 23.5551 30.3649ZM29.8431 29.679L30.9429 29.044L29.9079 27.2513L30.4795 26.9213L32.675 28.044L33.948 27.309L31.0469 25.924L31.0369 25.9067L31.2248 22.9923L30.0037 23.6973L29.9049 26.006L29.3679 26.316L28.3929 24.6273L27.2931 25.2623L29.8431 29.679ZM34.5961 26.9349L35.6613 26.3199L35.9381 23.0193C35.9573 22.5925 35.9698 22.3543 35.9622 22.301L35.9795 22.291C36.0922 22.5262 36.1885 22.713 36.2585 22.8343L37.6185 25.1899L38.6664 24.5849L36.1164 20.1681L35.0512 20.7831L34.7794 24.0924C34.7552 24.5105 34.7426 24.7487 34.7553 24.8107L34.738 24.8207C34.6753 24.6721 34.584 24.4939 34.459 24.2774L33.094 21.9131L32.0461 22.5181L34.5961 26.9349ZM40.5072 22.3443C40.5222 21.5504 40.2341 20.6313 39.6341 19.5921L39.5141 19.3843L40.614 18.7493L42.144 21.3993L40.5072 22.3443ZM38.8617 23.2943L39.9717 25.2169L40.9936 24.6269L40.3936 23.5876L43.3901 21.8576L43.9901 22.8969L44.986 22.3219L43.876 20.3993L43.2438 20.7643L41.2038 17.2309L37.9562 19.1059L38.4862 20.0239C39.1612 21.193 39.467 22.1827 39.4073 22.9793L38.8617 23.2943ZM45.1846 20.8216L46.2844 20.1866L45.2494 18.3939L45.821 18.0639L48.0165 19.1866L49.2895 18.4516L46.3884 17.0666L46.3784 17.0493L46.5663 14.1349L45.3452 14.8399L45.2464 17.1486L44.7094 17.4586L43.7344 15.7699L42.6346 16.4049L45.1846 20.8216ZM48.8525 17.0758C49.0825 17.4741 49.4061 17.7146 49.8232 17.7971C50.2404 17.8795 50.6568 17.8008 51.0725 17.5608C51.3669 17.3908 51.5954 17.1665 51.7615 16.8743C51.919 16.5871 52.0082 16.2815 52.0068 15.959L52.0241 15.949L52.1831 16.2845L52.3981 16.6569L53.42 16.0669L51.825 13.3042C51.505 12.75 51.0955 12.4206 50.595 12.2939C50.0859 12.1721 49.5456 12.2762 48.974 12.6062C48.6536 12.7912 48.3682 13.0368 48.1077 13.3258C47.8387 13.6197 47.6625 13.8946 47.557 14.1518L48.419 14.7049C48.6747 14.1878 48.9967 13.8055 49.4038 13.5705C49.958 13.2505 50.3852 13.3503 50.6852 13.87L50.7202 13.9306L50.5296 14.0406C50.2352 14.2106 49.9731 14.3966 49.7332 14.5812C49.4984 14.7745 49.2613 15.0038 49.0442 15.2677C48.8271 15.5316 48.6919 15.8175 48.6437 16.134C48.6005 16.4592 48.6725 16.764 48.8525 17.0758ZM49.8887 16.3505C49.6187 15.8829 49.9774 15.364 50.9733 14.789L51.1638 14.679L51.2338 14.8003C51.4038 15.0947 51.4586 15.4095 51.408 15.762C51.3575 16.1145 51.185 16.3757 50.8906 16.5457C50.6827 16.6657 50.4882 16.7088 50.2969 16.6575C50.1107 16.615 49.9787 16.5064 49.8887 16.3505Z" fill="white"/>
<defs>
<filter id="filter0_d_1644_56156" x="9.99399" y="0.781798" width="54.7047" height="42.4298" filterUnits="userSpaceOnUse" color-interpolation-filters="sRGB">
<feFlood flood-opacity="0" result="BackgroundImageFix"/>
<feColorMatrix in="SourceAlpha" type="matrix" values="0 0 0 0 0 0 0 0 0 0 0 0 0 0 0 0 0 0 127 0" result="hardAlpha"/>
<feOffset dy="0.807709"/>
<feGaussianBlur stdDeviation="1.21156"/>
<feComposite in2="hardAlpha" operator="out"/>
<feColorMatrix type="matrix" values="0 0 0 0 0 0 0 0 0 0 0 0 0 0 0 0 0 0 0.25 0"/>
<feBlend mode="normal" in2="BackgroundImageFix" result="effect1_dropShadow_1644_56156"/>
<feBlend mode="normal" in="SourceGraphic" in2="effect1_dropShadow_1644_56156" result="shape"/>
</filter>
</defs>
</svg>
