<svg xmlns="http://www.w3.org/2000/svg">
    <symbol id="plus" viewBox="0 0 14 14">
        <path d="M7.99997 2.38464C7.99997 1.83236 7.55225 1.38464 6.99997 1.38464C6.44768 1.38464 5.99997 1.83236 5.99997 2.38464L7.99997 2.38464ZM5.99997 11.6154C5.99997 12.1677 6.44768 12.6154 6.99997 12.6154C7.55225 12.6154 7.99997 12.1677 7.99997 11.6154H5.99997ZM11.6154 8.00003C12.1676 8.00003 12.6154 7.55231 12.6154 7.00003C12.6154 6.44774 12.1676 6.00003 11.6154 6.00003V8.00003ZM2.38458 6.00003C1.8323 6.00003 1.38458 6.44774 1.38458 7.00003C1.38458 7.55231 1.8323 8.00003 2.38458 8.00003V6.00003ZM5.99997 2.38464L5.99997 7.00003L7.99997 7.00003L7.99997 2.38464L5.99997 2.38464ZM5.99997 7.00003L5.99997 11.6154H7.99997L7.99997 7.00003L5.99997 7.00003ZM11.6154 6.00003L6.99997 6.00003V8.00003H11.6154V6.00003ZM6.99997 6.00003H2.38458V8.00003H6.99997V6.00003Z"/>
    </symbol>
    <symbol id="minus" viewBox="0 0 14 14">
        <path d="M6.99997 7.00006V8.00006H6.99997L6.99997 7.00006ZM11.6154 8.00006C12.1676 8.00006 12.6154 7.55235 12.6154 7.00006C12.6154 6.44778 12.1676 6.00006 11.6154 6.00006V8.00006ZM2.38458 6.00006C1.8323 6.00006 1.38458 6.44778 1.38458 7.00006C1.38458 7.55235 1.8323 8.00006 2.38458 8.00006V6.00006ZM11.6154 6.00006L6.99997 6.00006L6.99997 8.00006L11.6154 8.00006V6.00006ZM6.99997 6.00006H2.38458V8.00006H6.99997V6.00006Z"/>
    </symbol>
    <symbol id="close" viewBox="0 0 16 16">
        <path d="M3 3L13 13M13 3L3 13"  stroke-width="2" stroke-linecap="round"/>
    </symbol>
    <symbol id="exit" viewBox="0 0 20 20">
        <path fill-rule="evenodd" clip-rule="evenodd" d="M2.53353 0.0493153C1.94514 0.177791 1.53675 0.373125 1.10804 0.731126C0.651647 1.11225 0.29 1.65827 0.10949 2.23879L0 2.59089V10.0044V17.418L0.10949 17.7701C0.42451 18.7833 1.21965 19.5765 2.23529 19.8908L2.58824 20H7.05882H11.5294L11.8824 19.8908C12.8986 19.5763 13.6964 18.78 14.007 17.7701C14.1148 17.4194 14.1153 17.4131 14.1164 16.2443C14.1176 15.0762 14.1172 15.07 14.0246 14.9214C13.9734 14.8392 13.86 14.7248 13.7725 14.6671C13.6401 14.5796 13.57 14.5621 13.3529 14.5621C13.1358 14.5621 13.0658 14.5796 12.9333 14.6671C12.8459 14.7248 12.7325 14.8392 12.6813 14.9214C12.5909 15.0665 12.5876 15.101 12.5665 16.1465C12.5463 17.1437 12.5382 17.2388 12.4558 17.4474C12.2851 17.8792 11.9381 18.2109 11.496 18.3648C11.3065 18.4308 11.0328 18.4351 7.03922 18.4351H2.78431L2.55875 18.3443C2.1229 18.1687 1.7929 17.8244 1.6391 17.3847C1.57227 17.1937 1.56863 16.8121 1.56863 10.0044C1.56863 3.1968 1.57227 2.81521 1.6391 2.62418C1.7929 2.18449 2.1229 1.84015 2.55875 1.66461L2.78431 1.57373H7.03922C11.0328 1.57373 11.3065 1.57803 11.496 1.64403C11.9381 1.79793 12.2851 2.12968 12.4558 2.56147C12.5382 2.77011 12.5463 2.86505 12.5665 3.86531L12.5882 4.94413L12.6935 5.10261C12.8555 5.34673 13.0472 5.44677 13.3529 5.44677C13.6588 5.44677 13.8505 5.34669 14.0124 5.10242L14.1176 4.94378L14.1164 3.76731C14.1153 2.59547 14.1148 2.58952 14.007 2.23879C13.6964 1.22883 12.8986 0.43259 11.8824 0.118091L11.5294 0.00886353L7.15686 0.00170428C3.53451 -0.0042422 2.74129 0.00393421 2.53353 0.0493153ZM16.8627 6.75327C16.5164 6.91324 16.341 7.26498 16.4196 7.642C16.4567 7.81988 16.5089 7.88287 17.1689 8.54657L17.8784 9.25991L13.0344 9.27032L8.19031 9.28068L8.03137 9.38565C7.78573 9.5478 7.68628 9.73825 7.68628 10.0464C7.68628 10.2599 7.70416 10.3305 7.79149 10.4622C7.84933 10.5494 7.96404 10.6625 8.04639 10.7136L8.19608 10.8064L13.0372 10.8168L17.8784 10.8272L17.1689 11.5405C16.5089 12.2042 16.4567 12.2672 16.4196 12.4451C16.2872 13.0799 16.9147 13.6007 17.4902 13.3334C17.5925 13.286 18.0094 12.895 18.6885 12.2096C19.6582 11.2309 19.7393 11.1383 19.865 10.8651C19.9977 10.5767 20 10.5626 20 10.0436C20 9.52453 19.9977 9.51037 19.865 9.222C19.7393 8.94881 19.6582 8.85617 18.6885 7.87755C18.0094 7.19214 17.5925 6.80116 17.4902 6.75366C17.2907 6.66106 17.0627 6.6609 16.8627 6.75327Z"/>
    </symbol>
    <symbol id="stock" viewBox="0 0 10 10">
        <path fill-rule="evenodd" clip-rule="evenodd" d="M4.55889 0.511251C3.51885 0.640476 2.57184 1.095 1.83417 1.81898C1.198 2.44335 0.77215 3.20914 0.564539 4.10213C0.478487 4.47228 0.478487 5.52411 0.564539 5.89426C0.77623 6.80475 1.2442 7.62873 1.90122 8.2478C2.81441 9.10821 4.03442 9.55646 5.29406 9.49437C6.4779 9.436 7.45983 9.0063 8.3109 8.17409C8.95557 7.54373 9.3541 6.84046 9.56458 5.96175C9.6292 5.69208 9.64453 5.51408 9.64607 5.01623C9.64864 4.17468 9.53896 3.69552 9.18464 3.00055L9.03981 2.71648L9.49823 2.25828C9.98697 1.76973 10.0359 1.68423 9.98337 1.40966C9.95179 1.24446 9.75892 1.04853 9.57447 0.994312C9.30885 0.916207 9.16049 0.985545 8.75501 1.3773C8.55982 1.56587 8.37974 1.73701 8.35482 1.75768C8.32159 1.78521 8.25785 1.74931 8.11589 1.62319C7.57466 1.14233 6.74734 0.734671 5.99247 0.576838C5.72395 0.520703 4.81683 0.479179 4.55889 0.511251ZM5.89105 1.73001C6.31194 1.83482 6.72823 2.01826 7.0342 2.23385C7.26993 2.39991 7.48721 2.60389 7.46012 2.63365C7.45148 2.64314 6.89151 3.19622 6.2157 3.86273L4.98694 5.07453L4.5432 4.64342C4.29912 4.40633 4.0607 4.19297 4.0134 4.16934C3.79546 4.06039 3.45533 4.14882 3.29863 4.35517C3.2007 4.48407 3.17361 4.77391 3.24665 4.91103C3.31741 5.04398 4.55742 6.27511 4.71622 6.37014C4.8552 6.45333 5.06476 6.4617 5.23091 6.39074C5.29693 6.36252 5.96652 5.73267 6.74583 4.96573C7.51397 4.20975 8.15232 3.59122 8.16434 3.59122C8.19724 3.59122 8.27156 3.7588 8.37236 4.06021C8.497 4.43288 8.52968 5.20892 8.43922 5.64713C8.17364 6.93347 7.19046 7.94284 5.88708 8.26735C5.3982 8.38907 4.74724 8.38867 4.25597 8.26638C3.57196 8.09606 3.06088 7.79352 2.54743 7.25494C1.95096 6.62924 1.65553 5.88174 1.65553 4.99819C1.65553 4.0793 1.95408 3.35135 2.60492 2.68329C3.09668 2.17855 3.56708 1.90578 4.24644 1.73153C4.7232 1.60923 5.40334 1.60862 5.89105 1.73001Z" fill="#9AC07E"/>
    </symbol>
</svg>