<svg width="22" height="25" viewBox="0 0 22 25" fill="none" xmlns="http://www.w3.org/2000/svg">
<g filter="url(#filter0_d_2009_96959)">
<path fill-rule="evenodd" clip-rule="evenodd" d="M15.4753 3.70013C15.2313 3.72032 15.153 3.77695 14.8883 4.12481C14.1327 5.11745 13.1526 5.83556 12.0007 6.24028C11.5477 6.39947 11.2081 6.47016 10.4063 6.57224C8.26002 6.84546 6.49084 7.92039 5.27279 9.69124C4.32278 11.0724 3.88237 12.9151 4.08986 14.6407C4.13437 15.0109 4.33556 15.8234 4.47455 16.1941C5.12924 17.9402 6.4326 19.3476 8.08838 20.0964C9.78265 20.8626 11.674 20.9162 13.4507 20.2483C15.145 19.6114 16.5892 18.2925 17.3562 16.6818C18.0777 15.1665 18.2669 13.6698 17.9416 12.0501C17.8427 11.5577 17.788 11.4423 17.6025 11.335C17.3947 11.2148 17.2483 11.2451 16.7934 11.5025C16.4162 11.7159 15.8121 11.9879 15.6236 12.0292C15.5369 12.0482 15.5381 12.0448 15.6979 11.8285C15.9327 11.5104 16.3517 10.7086 16.5168 10.2613C17.0249 8.88486 17.1188 7.46041 16.7923 6.08197C16.6485 5.47504 16.5171 5.09556 16.2821 4.60913C15.9253 3.87064 15.7535 3.67708 15.4753 3.70013Z" fill="#969BDC"/>
<path d="M17.2174 10.5289C17.2184 10.5263 17.2194 10.5236 17.2204 10.521C17.7777 9.01133 17.8839 7.43651 17.5221 5.90911C17.3677 5.25716 17.2194 4.82516 16.9574 4.28291L16.9574 4.28287C16.7822 3.92025 16.6106 3.59698 16.4102 3.3712C16.2998 3.24689 16.1563 3.12285 15.9677 3.04081C15.7723 2.95585 15.5814 2.93878 15.4134 2.95268L17.2174 10.5289ZM17.2174 10.5289C17.5193 10.4861 17.7694 10.5651 17.978 10.6858C17.9781 10.6858 17.9781 10.6858 17.9781 10.6858L17.6025 11.335C17.788 11.4423 17.8427 11.5577 17.9416 12.0501L18.6769 11.9024C19.0347 13.6837 18.8234 15.3451 18.0333 17.0042C17.1815 18.793 15.5876 20.2462 13.7146 20.9503C11.7563 21.6865 9.65875 21.6297 7.77933 20.7797C5.93659 19.9464 4.49494 18.3847 3.77229 16.4574L4.35209 16.24L3.77229 16.4574C3.61358 16.0341 3.3973 15.1634 3.34523 14.7303C3.11682 12.8307 3.59731 10.8037 4.65485 9.2662L5.27279 9.69124L4.65485 9.2662C5.99486 7.31805 7.95505 6.12823 10.3116 5.82825C11.0913 5.72897 11.3713 5.6665 11.7521 5.53269L11.7521 5.53268C12.7625 5.17768 13.6227 4.54925 14.2915 3.67056C14.4138 3.50991 14.5626 3.31749 14.75 3.18195C14.9928 3.00623 15.2315 2.96775 15.4134 2.95268L17.2174 10.5289Z" stroke="white" stroke-width="1.5"/>
</g>
<defs>
<filter id="filter0_d_2009_96959" x="0.53949" y="0.198486" width="21.0558" height="24.0144" filterUnits="userSpaceOnUse" color-interpolation-filters="sRGB">
<feFlood flood-opacity="0" result="BackgroundImageFix"/>
<feColorMatrix in="SourceAlpha" type="matrix" values="0 0 0 0 0 0 0 0 0 0 0 0 0 0 0 0 0 0 127 0" result="hardAlpha"/>
<feOffset/>
<feGaussianBlur stdDeviation="1"/>
<feComposite in2="hardAlpha" operator="out"/>
<feColorMatrix type="matrix" values="0 0 0 0 0 0 0 0 0 0 0 0 0 0 0 0 0 0 0.25 0"/>
<feBlend mode="normal" in2="BackgroundImageFix" result="effect1_dropShadow_2009_96959"/>
<feBlend mode="normal" in="SourceGraphic" in2="effect1_dropShadow_2009_96959" result="shape"/>
</filter>
</defs>
</svg>
