<svg width="29" height="21" viewBox="0 0 29 21" fill="none" xmlns="http://www.w3.org/2000/svg">
<g filter="url(#filter0_d_2010_96962)">
<path fill-rule="evenodd" clip-rule="evenodd" d="M4.19884 12.4989C4.06986 12.919 4.2026 13.4462 4.50773 13.726C4.62516 13.8337 8.19653 15.8985 8.36521 15.9562C8.42905 15.9781 8.56589 16.0004 8.66928 16.0057C8.85244 16.0152 8.95377 15.9866 12.6359 14.8867C16.3197 13.7861 24.176 11.4377 24.3307 11.3271C24.6474 11.1008 24.8235 10.7987 24.8639 10.4127C24.8846 10.2145 24.8769 10.179 24.1644 7.1811C23.4543 4.19282 23.4426 4.14759 23.338 3.98935C23.1321 3.67767 22.8479 3.51325 22.4763 3.49089C22.2837 3.47931 14.4992 5.80421 10.7449 6.9264C7.37329 7.93422 6.95057 8.06633 6.83116 8.14949C6.56253 8.33657 6.6024 8.27481 5.36328 10.4245C4.51889 11.8893 4.22556 12.4119 4.19884 12.4989ZM5.84805 11.9057C5.97135 11.7595 6.123 11.6572 6.29007 11.6073C6.47118 11.5532 6.63121 11.5553 6.80966 11.614C7.36948 11.7985 7.5468 12.5446 7.14305 13.0169C6.88799 13.3152 6.52582 13.4189 6.16769 13.2961C5.75383 13.1542 5.52695 12.6369 5.68407 12.1935C5.73414 12.0521 5.7543 12.0168 5.84805 11.9057Z" fill="#DC5D60"/>
<path d="M3.48188 12.2788L3.48189 12.2787C3.51296 12.1776 3.57358 12.0629 3.60716 11.9994C3.6082 11.9975 3.60922 11.9955 3.61021 11.9937C3.65918 11.901 3.72845 11.7751 3.82042 11.6113C4.00499 11.2825 4.29137 10.7822 4.7135 10.0499C4.75137 9.98422 4.78809 9.9205 4.82372 9.85869C5.36388 8.92146 5.65103 8.42324 5.83095 8.14439C5.92857 7.99308 6.02066 7.86444 6.12892 7.75475C6.22962 7.65272 6.33091 7.58323 6.38546 7.5458C6.39181 7.54144 6.39753 7.53752 6.40253 7.53403L6.40254 7.53403C6.51876 7.4531 6.64809 7.40198 6.76175 7.36049C6.88882 7.31411 7.07284 7.25381 7.34475 7.16883C7.89234 6.9977 8.8463 6.71113 10.5301 6.20781C12.4071 5.64676 15.293 4.78463 17.7339 4.06416C18.9541 3.70401 20.0648 3.37874 20.8832 3.14405C21.292 3.02684 21.6307 2.93138 21.8748 2.86526C21.9961 2.83239 22.0988 2.80546 22.1768 2.78649C22.215 2.77719 22.2541 2.76814 22.2895 2.76107C22.3067 2.75763 22.3304 2.75318 22.3565 2.74948L22.358 2.74926C22.3724 2.74717 22.4401 2.73735 22.5214 2.74224L22.4763 3.49089L22.5214 2.74224C23.1295 2.77883 23.6284 3.06823 23.9638 3.57593L23.9638 3.57598C24.0914 3.76913 24.1449 3.92931 24.2502 4.33597C24.3574 4.74998 24.5402 5.51871 24.8941 7.0077C25.2491 8.50142 25.4317 9.27022 25.5221 9.68817C25.6122 10.1043 25.6335 10.2637 25.6098 10.4907L24.9488 10.4216L25.6098 10.4907C25.547 11.091 25.2576 11.5865 24.7668 11.9373C24.7668 11.9373 24.7668 11.9373 24.7668 11.9373L24.3307 11.3271C24.176 11.4377 16.3197 13.7861 12.6359 14.8867C8.95377 15.9866 8.85244 16.0152 8.66928 16.0057C8.56589 16.0004 8.42905 15.9781 8.36521 15.9562C8.19653 15.8985 4.62516 13.8337 4.50773 13.726L3.48188 12.2788ZM3.48188 12.2788C3.27459 12.9538 3.46633 13.7886 4.0008 14.2788L3.48188 12.2788ZM6.42128 12.3893L6.42123 12.3894C6.41332 12.3988 6.40728 12.406 6.4027 12.4116C6.3998 12.4194 6.396 12.4298 6.39101 12.4439L6.42128 12.3893ZM6.42128 12.3893C6.45991 12.3435 6.4909 12.33 6.50474 12.3259M6.42128 12.3893L6.50474 12.3259M6.50474 12.3259C6.51962 12.3214 6.52899 12.3197 6.53389 12.3189M6.50474 12.3259L6.53389 12.3189M6.53389 12.3189C6.53855 12.3182 6.54059 12.3182 6.54106 12.3183M6.53389 12.3189L6.54106 12.3183M6.54106 12.3183L6.54106 12.3183M6.54106 12.3183L6.54106 12.3183M6.54106 12.3183C6.54153 12.3183 6.54337 12.3183 6.5476 12.319M6.54106 12.3183L6.5476 12.319M6.5476 12.319C6.55207 12.3198 6.56086 12.3217 6.57497 12.3264L6.5476 12.319ZM6.4876 12.5934C6.50141 12.5894 6.53276 12.5766 6.57297 12.5295L6.4876 12.5934ZM6.4876 12.5934C6.47572 12.5968 6.45482 12.6002 6.41889 12.5892M6.4876 12.5934L6.41889 12.5892M6.41889 12.5892C6.41483 12.5852 6.40697 12.5757 6.3986 12.5566C6.38049 12.5153 6.38088 12.4725 6.391 12.4439L6.41889 12.5892ZM4.00084 14.2788C4.06167 14.3346 4.13959 14.3842 4.15888 14.3964C4.16027 14.3973 4.16135 14.398 4.1621 14.3985C4.20195 14.4242 4.25212 14.4554 4.30863 14.49C4.42252 14.5598 4.576 14.6517 4.75411 14.7571C5.11109 14.9685 5.57621 15.2399 6.04186 15.5092C6.50752 15.7784 6.97583 16.0466 7.33922 16.2517C7.52056 16.354 7.678 16.4419 7.79672 16.5067C7.85568 16.5388 7.90835 16.5671 7.95106 16.5891C7.95223 16.5897 7.95363 16.5905 7.95524 16.5913C7.97951 16.6039 8.05267 16.642 8.12229 16.6658L4.00084 14.2788ZM6.575 12.3264C6.57999 12.328 6.58252 12.3295 6.58669 12.3344C6.59246 12.3411 6.60211 12.3561 6.60802 12.3809C6.62045 12.4333 6.60827 12.4883 6.57298 12.5295L6.575 12.3264ZM6.42175 12.5917C6.42174 12.5917 6.42144 12.5915 6.42089 12.5911L6.42175 12.5917Z" stroke="white" stroke-width="1.5"/>
</g>
<defs>
<filter id="filter0_d_2010_96962" x="0.650406" y="0.990967" width="27.7182" height="19.5156" filterUnits="userSpaceOnUse" color-interpolation-filters="sRGB">
<feFlood flood-opacity="0" result="BackgroundImageFix"/>
<feColorMatrix in="SourceAlpha" type="matrix" values="0 0 0 0 0 0 0 0 0 0 0 0 0 0 0 0 0 0 127 0" result="hardAlpha"/>
<feOffset dy="1"/>
<feGaussianBlur stdDeviation="1"/>
<feComposite in2="hardAlpha" operator="out"/>
<feColorMatrix type="matrix" values="0 0 0 0 0 0 0 0 0 0 0 0 0 0 0 0 0 0 0.25 0"/>
<feBlend mode="normal" in2="BackgroundImageFix" result="effect1_dropShadow_2010_96962"/>
<feBlend mode="normal" in="SourceGraphic" in2="effect1_dropShadow_2010_96962" result="shape"/>
</filter>
</defs>
</svg>
