<svg width="50" height="16" viewBox="0 0 50 16" fill="none" xmlns="http://www.w3.org/2000/svg">
<path d="M20.3819 0L17.9017 15.968H21.8658L24.3445 0H20.3819ZM32.3397 6.50448C30.9545 5.79668 30.1045 5.31896 30.1045 4.59508C30.1215 3.93687 30.8232 3.26256 32.3884 3.26256C33.6764 3.22909 34.6237 3.54224 35.3412 3.85381L35.7011 4.01993L36.2398 0.679048C35.4578 0.3659 34.2162 0.0208474 32.6827 0.0208474C28.7674 0.0208474 26.0108 2.12668 25.9937 5.13844C25.9613 7.36101 27.9673 8.59429 29.4685 9.33413C31.002 10.0931 31.5237 10.5852 31.5237 11.2595C31.5068 12.2948 30.2845 12.7725 29.1427 12.7725C27.5614 12.7725 26.712 12.5265 25.4226 11.9496L24.9005 11.7036L24.3462 15.1755C25.2774 15.6038 26.99 15.9808 28.7676 16C32.9283 16 35.6355 13.926 35.6694 10.7162C35.683 8.95544 34.6248 7.60682 32.3397 6.50448ZM46.4031 0.0494131H43.336C42.391 0.0494131 41.6734 0.330668 41.2637 1.33408L35.3751 15.968H39.5355L40.6809 12.7997H45.3358L45.93 15.9808H49.6003L46.4031 0.0494131ZM41.8353 9.60224C41.9156 9.61039 43.4322 4.43034 43.4322 4.43034L44.6398 9.60224C44.6398 9.60224 42.6184 9.60224 41.8353 9.60224ZM14.5891 0L10.7052 10.8488L10.2822 8.70928C9.56397 6.24067 7.31244 3.55818 4.7998 2.22569L8.35638 15.952H12.5507L18.7836 0.00175446H14.5891V0Z" fill="#2394BC"/>
<path d="M9.02572 2.04985C8.71505 0.836081 7.7243 0.0174745 6.37863 0H0.065071L0 0.294531C4.92511 1.5146 9.059 5.26871 10.4 8.80005L9.02572 2.04985Z" fill="#EFC75E"/>
</svg>
